<svg width="360" height="360" viewBox="0 0 360 360" fill="none" xmlns="http://www.w3.org/2000/svg">
<path d="M360 179.987C360 80.5827 279.411 0 180 0C80.5886 0 0 80.5827 0 179.987V180.014C0 279.417 80.5892 360 180 360C279.411 360 360 279.417 360 180.014V179.987Z" fill="#1B2029"/>
<path d="M172.17 282V259.512H142.5V228.992H172.17V205.701H230.708V173.575H162.547V143.858H257.17V173.575H270V281.197H172.17V282ZM230.708 236.22H182.594V252.283H231.509V236.22H230.708ZM128.868 78V143.858H100V78H129.67H128.868Z" fill="#FFFEFE"/>
</svg>
