<svg width="800" height="800" viewBox="0 0 800 800" fill="none" xmlns="http://www.w3.org/2000/svg">
<g clip-path="url(#clip0_11_2)">
<path d="M800 0H0V800H800V0Z" fill="white"/>
<path fill-rule="evenodd" clip-rule="evenodd" d="M682.267 594.915H508.209C500.134 594.915 492.642 590.617 488.565 583.537L456.766 528.673L324.911 301.293L193.056 528.589H298.273C345.306 528.589 388.84 553.787 412.648 594.83H154.682H118.805C101.241 594.83 90.2531 575.448 99.1599 560.109L305.265 204.795C314.09 189.625 335.732 189.625 344.556 204.795L362.703 236.146L532.349 528.673H607.933L476.078 301.377C452.77 261.092 452.77 211.2 476.078 171L701.829 560.277C710.735 575.616 699.831 595 682.184 595L682.267 594.915Z" fill="url(#paint0_linear_11_2)"/>
</g>
<defs>
<linearGradient id="paint0_linear_11_2" x1="95.9968" y1="382.958" x2="705.076" y2="382.958" gradientUnits="userSpaceOnUse">
<stop stop-color="#003BFF"/>
<stop offset="0.51" stop-color="#007AE8"/>
<stop offset="1" stop-color="#00B3D4"/>
</linearGradient>
<clipPath id="clip0_11_2">
<rect width="800" height="800" rx="400" fill="white"/>
</clipPath>
</defs>
</svg>
