<svg width="46" height="45" viewBox="0 0 46 45" fill="none" xmlns="http://www.w3.org/2000/svg">
<g clip-path="url(#clip0_986_36)">
<rect width="46" height="45" rx="22.5" fill="white"/>
<ellipse cx="23" cy="22.5" rx="23" ry="23.5" fill="#2674D8"/>
<g clip-path="url(#clip1_986_36)">
<path d="M12.3055 21.9132C12.3055 16.5983 15.8278 12.1309 20.5581 10.9236C19.1267 10.3101 17.5541 9.9668 15.9023 9.9668C9.33483 9.9668 3.99268 15.3264 3.99268 21.9132C3.99267 28.4999 9.33324 33.8596 15.9023 33.8596C17.5541 33.8596 19.1267 33.518 20.5581 32.9028C15.8278 31.6955 12.3055 27.228 12.3055 21.9132Z" fill="#FFFBFD"/>
<path d="M29.9443 9.9668C28.2925 9.9668 26.72 10.3084 25.2886 10.9236C30.0188 12.1309 33.5412 16.5983 33.5412 21.9132C33.5412 27.228 30.0188 31.6955 25.2886 32.9027C26.72 33.5163 28.2925 33.8596 29.9443 33.8596C36.5119 33.8596 41.854 28.4999 41.854 21.9132C41.854 15.3264 36.5119 9.9668 29.9443 9.9668Z" fill="#FFFBFD"/>
</g>
</g>
<defs>
<clipPath id="clip0_986_36">
<rect width="46" height="45" rx="22.5" fill="white"/>
</clipPath>
<clipPath id="clip1_986_36">
<rect x="3" y="9.44434" width="44" height="26.1111" rx="13.0556" fill="white"/>
</clipPath>
</defs>
</svg>
