<svg width="250" height="250" viewBox="0 0 250 250" fill="none" xmlns="http://www.w3.org/2000/svg">
<g clip-path="url(#clip0_996_40)">
<path d="M125 0C194.036 0 250 55.9644 250 125C250 194.036 194.036 250 125 250C55.9644 250 0 194.036 0 125C0 55.9644 55.9644 0 125 0Z" fill="black"/>
<path d="M125 0C194.036 0 250 55.9644 250 125C250 194.036 194.036 250 125 250C55.9644 250 0 194.036 0 125C0 55.9644 55.9644 0 125 0ZM131.661 106.557V145.22C136.395 146.01 140.003 150.123 140.003 155.081C140.003 160.604 135.526 165.081 130.003 165.081C124.709 165.081 120.379 160.967 120.028 155.763H78.3311C78.3311 155.771 78.3311 155.779 78.3311 155.787C78.3315 182.976 102.21 205.018 131.665 205.018C161.12 205.017 184.998 182.976 184.998 155.787C184.998 128.598 161.12 106.556 131.665 106.556L131.661 106.557ZM118.336 45.0439C88.881 45.0441 65.0031 67.0852 65.0029 94.2744C65.0029 121.464 88.8809 143.506 118.336 143.506L118.34 143.505V104.88C113.612 104.085 110.009 99.9755 110.009 95.0215C110.009 89.4989 114.486 85.0225 120.009 85.0225C125.289 85.0227 129.61 89.1143 129.98 94.2998H171.67C171.67 94.2914 171.67 94.2828 171.67 94.2744C171.67 67.0853 147.791 45.0442 118.336 45.0439Z" fill="white"/>
</g>
<defs>
<clipPath id="clip0_996_40">
<rect width="250" height="250" rx="125" fill="white"/>
</clipPath>
</defs>
</svg>
