<svg width="55" height="55" viewBox="0 0 55 55" fill="none" xmlns="http://www.w3.org/2000/svg">
<rect x="0.292969" y="0.680664" width="53.8038" height="53.8038" rx="26.9019" fill="#1253FA"/>
<path d="M43.2686 33.1978C42.5372 32.1 41.4953 31.2451 40.2757 30.7424C40.0058 30.6311 39.7289 30.5375 39.4468 30.4622C38.9265 27.7724 37.2915 26.4975 35.6536 25.9029L28.7503 23.4447C26.0205 22.4699 24.9257 20.9092 24.9257 18.9197C24.9257 16.9302 26.9952 14.8235 29.8423 14.8235C32.6893 14.8235 35.7708 17.5933 37.2143 22.3527H38.1519V13.7715H37.1771L35.8108 16.1498C35.0387 15.3406 34.1137 14.6926 33.0895 14.2432C32.0647 13.7946 30.9608 13.5546 29.8423 13.5371H29.0619C27.2149 12.2651 25.0245 11.5852 22.7818 11.5877C16.1501 11.5877 9.98438 19.3113 9.98438 27.5809C9.98438 35.8505 16.1501 43.5369 22.7818 43.5369C24.1793 43.5607 25.5677 43.3071 26.8666 42.7909C28.1648 42.2754 29.3481 41.5079 30.3482 40.5327L31.8318 43.3397H33.0009V41.6132C34.1702 42.788 35.735 43.4852 37.3904 43.569C39.0457 43.6529 40.673 43.1172 41.9549 42.0665C43.2369 41.0159 44.0816 39.5255 44.3245 37.8859C44.5673 36.2463 44.1909 34.575 43.2686 33.1978ZM22.859 42.0534C18.5684 42.0534 15.1354 38.9319 15.1354 32.2631V22.9787C15.1354 16.307 18.8028 13.1856 22.859 13.1856C24.1803 13.1829 25.4719 13.5773 26.5665 14.3175C25.3922 14.9068 24.4054 15.8115 23.7165 16.9302C23.0513 18.0659 22.701 19.3585 22.7018 20.6748C22.7018 23.9906 24.2254 26.0602 26.6036 26.8777L32.3006 28.9072C33.4782 29.2904 34.5877 29.8577 35.5878 30.588C34.6148 30.914 33.7311 31.462 33.0066 32.1888H33.0009V30.6595H31.7918C30.6226 38.0344 27.1496 42.0534 22.859 42.0534ZM41.8879 41.0701C40.9242 42.0351 39.6556 42.636 38.2984 42.7704C36.9412 42.9049 35.5794 42.5645 34.4451 41.8073C33.3107 41.0502 32.4741 39.9231 32.0777 38.6181C31.6813 37.3132 31.7497 35.9111 32.2712 34.651C32.7927 33.3908 33.7351 32.3505 34.9378 31.7073C36.1405 31.0642 37.5289 30.858 38.8666 31.1239C40.2042 31.3898 41.4083 32.1113 42.2735 33.1656C43.1388 34.2198 43.6117 35.5414 43.6116 36.9053C43.6137 37.6789 43.4625 38.4453 43.1667 39.1602C42.8708 39.8751 42.4362 40.5242 41.8879 41.0701Z" fill="#FEFDFC"/>
<path d="M39.4413 33.1322C39.2238 33.0428 38.999 32.972 38.7695 32.9207V33.7267C38.8956 33.7618 39.0197 33.8038 39.1411 33.8525C39.7984 34.1238 40.3547 34.5931 40.733 35.1951C41.1112 35.7972 41.2925 36.5021 41.2516 37.212C41.2107 37.9218 40.9497 38.6012 40.5049 39.1559C40.0601 39.7106 39.4535 40.1129 38.7695 40.307V41.1102C39.6383 40.9115 40.4213 40.4417 41.0056 39.7688C41.5898 39.0959 41.945 38.2546 42.0198 37.3666C42.0945 36.4786 41.885 35.5898 41.4215 34.8286C40.958 34.0674 40.2646 33.4734 39.4413 33.1322Z" fill="#FEFDFC"/>
<path d="M34.6744 38.326C34.4876 37.8806 34.3977 37.4006 34.4108 36.9179C34.4238 36.4352 34.5395 35.9607 34.7502 35.5262C34.9608 35.0916 35.2616 34.7069 35.6325 34.3976C36.0033 34.0883 36.4358 33.8615 36.9011 33.7324V32.9263C36.1015 33.1088 35.3729 33.5216 34.8052 34.1136C34.2374 34.7055 33.8555 35.4508 33.7066 36.2574C33.5576 37.0639 33.6481 37.8965 33.9669 38.6522C34.2857 39.4079 34.8188 40.0537 35.5005 40.5098C35.9273 40.7935 36.4018 40.9978 36.9011 41.113V40.304C36.4042 40.1648 35.9455 39.9144 35.5598 39.5717C35.174 39.229 34.8712 38.803 34.6744 38.326Z" fill="#FEFDFC"/>
<path d="M39.567 37.926C39.567 37.3 39.144 36.8826 38.3121 36.6854L37.5632 36.511C37.1173 36.4024 36.9286 36.2366 36.9286 35.9536C36.9279 35.8931 36.9394 35.833 36.9625 35.777C36.9856 35.7209 37.0198 35.6702 37.063 35.6278C37.2116 35.4848 37.4689 35.4048 37.7747 35.4105C38.2035 35.4105 38.5694 35.6078 38.7552 35.9422C38.7771 35.9818 38.7962 36.0229 38.8124 36.0651L38.8295 36.1023L39.5127 35.9136L39.4956 35.865C39.4775 35.8106 39.4546 35.758 39.4269 35.7078C39.1868 35.2619 38.7523 34.9503 38.235 34.8331V34.1899H37.4546V34.8017C36.7085 34.9103 36.194 35.3876 36.194 36.0137C36.194 36.6397 36.5828 37.0027 37.346 37.1942L38.0406 37.3686C38.5723 37.5058 38.7895 37.6859 38.7895 37.9917C38.7895 38.4005 38.4293 38.6635 37.8719 38.6635C37.3145 38.6635 36.8858 38.4091 36.6914 37.9603C36.6694 37.9129 36.6503 37.8642 36.6342 37.8145L36.6199 37.7688L35.9453 37.9603L36.0168 38.1632C36.2512 38.7635 36.7771 39.1551 37.4546 39.2666V39.8898H38.235V39.2695C39.0353 39.1437 39.567 38.6263 39.567 37.926Z" fill="#FEFDFC"/>
</svg>
