<?xml version="1.0" encoding="UTF-8"?><svg id="Layer_1" xmlns="http://www.w3.org/2000/svg" xmlns:xlink="http://www.w3.org/1999/xlink" viewBox="0 0 150 150"><defs><style>.cls-1{clip-path:url(#clippath);}.cls-2{fill:none;}.cls-2,.cls-3,.cls-4,.cls-5,.cls-6,.cls-7{stroke-width:0px;}.cls-8{clip-path:url(#clippath-1);}.cls-3{fill:#f96d30;}.cls-4{fill:#1d1d1f;}.cls-5{fill:#2470ff;}.cls-6{fill:#f1f1f1;}.cls-7{fill:#004ec3;}</style><clipPath id="clippath"><rect class="cls-2" width="150" height="150"/></clipPath><clipPath id="clippath-1"><rect class="cls-2" x="13.0767" y="56.1352" width="40.8619" height="38.1009"/></clipPath></defs><g class="cls-1"><path class="cls-6" d="M75,150c41.4211,0,75-33.5789,75-75S116.4211,0,75,0,0,33.5789,0,75s33.5789,75,75,75Z"/><path class="cls-4" d="M101.2373,23.0658c-6.8536,0-12.4664,2.6405-16.7391,6.668-5.8434,5.4028-8.9845,11.4942-11.7966,21.712l-1.1203,4.5933c-5.2833,22.8661-11.6869,51.2466-14.0484,58.1362-1.1203,4.0163-2.4712,5.7469-4.6022,5.7469-1.7133,0-5.8763-4.6706-6.0413-4.9036-1.23-1.4869-3.0862-2.4408-5.1511-2.4408-.78,0-1.5267.1444-2.2186.3881-2.6142.9319-4.5033,3.4392-4.5033,6.4017,0,.7542.1317,1.4756.3516,2.1525.8789,3.262,4.7887,5.4141,8.3588,5.4141s7.3041-.7988,11.3461-3.2175c8.4244-4.9369,15.2784-12.1819,19.8806-22.2891,3.1411-7.1227,7.7545-23.7872,12.8072-45.3881l1.1203-4.5933c1.6805-7.3556,3.0314-12.6366,4.6022-17.5739,1.3509-3.7941,3.1416-7.0116,5.393-7.0116,1.9111,0,2.5814,1.6088,2.5814,4.2492,0,.3881-.0328.8541-.0881,1.3425-.0108.1111-.022.2217-.0441.3441-.0108.1664-.022.3328-.022.4992,0,3.3727,2.7131,6.1242,6.0633,6.1242.8348,0,1.6144-.1664,2.3395-.4772,2.0648-.8766,3.548-2.8734,3.7017-5.2369.0441-.3548.0769-.7214.0769-1.0983,0-5.858-4.7231-9.5414-12.247-9.5414l-.0005-.0005Z"/><path class="cls-4" d="M64.2989,49.2492l-1.8455,6.0131h34.7306l1.7133-6.0131h-34.5989.0005Z"/><path class="cls-3" d="M94.4264,127.0162c-4.0036,0-7.2638-3.2573-7.2638-7.2581s3.2602-7.2581,7.2638-7.2581,7.2638,3.2573,7.2638,7.2581-3.2602,7.2581-7.2638,7.2581Z"/></g><g class="cls-8"><path class="cls-7" d="M17.8481,81.8813v10.9692c0,.6755.5714.9558.7491,1.0191.1777.0764.7748.2419,1.3078-.255l8.2983-7.9748c.7069-.6792,1.3889-1.3927,1.9013-2.228.2414-.3928.3413-.6136.3413-.6136.5081-1.0322.5081-2.0255.0127-3.0197-.7364-1.478-2.6161-2.9812-5.4483-4.4081l-4.8384,2.7009c-1.4348.8152-2.3241,2.2552-2.3241,3.8095l.0005.0005Z"/><path class="cls-5" d="M13.0767,57.4837v11.5045c0,1.4395.9652,2.7136,2.3367,3.1214,4.6734,1.3505,12.8138,4.2553,14.7825,8.5233.2536.5606.4064,1.1086.4575,1.6819,1.3078-2.3822,1.905-5.1216,1.6256-7.8989-.3811-3.9366-2.4637-7.5169-5.715-9.7973l-11.595-8.1155c-.2034-.1528-.4444-.2292-.6858-.2292-.2034,0-.3811.0384-.5714.1402-.3811.2166-.6352.6117-.6352,1.0702v-.0005Z"/><path class="cls-7" d="M48.7125,81.8813v10.9692c0,.6755-.5714.9558-.7495,1.0191-.1777.0764-.7748.2419-1.3078-.255l-8.4914-8.16c-.578-.5555-1.1302-1.1433-1.5656-1.8164-.345-.533-.4837-.84-.4837-.84-.5081-1.0322-.5081-2.0255-.0131-3.0197.7369-1.478,2.6166-2.9812,5.4483-4.4081l4.8389,2.7009c1.448.8152,2.3241,2.2552,2.3241,3.8095v.0005Z"/><path class="cls-5" d="M53.4914,57.4828v11.5045c0,1.4395-.9656,2.7136-2.3372,3.1214-4.6734,1.3505-12.8137,4.2553-14.782,8.5233-.2541.5606-.4069,1.1086-.4575,1.6819-1.3078-2.3822-1.905-5.1216-1.6256-7.8989.3806-3.9366,2.4637-7.5169,5.715-9.7973l11.595-8.1155c.203-.1528.4444-.2292.6858-.2292.203,0,.3811.0384.5714.1402.3811.2166.6356.6117.6356,1.0702l-.0005-.0005Z"/></g></svg>