<svg width="150" height="150" viewBox="0 0 150 150" fill="none" xmlns="http://www.w3.org/2000/svg">
<g clip-path="url(#clip0_12_2)">
<path d="M74.82 141.82C111.271 141.82 140.82 112.271 140.82 75.82C140.82 39.3692 111.271 9.82001 74.82 9.82001C38.3692 9.82001 8.82 39.3692 8.82 75.82C8.82 112.271 38.3692 141.82 74.82 141.82Z" fill="#4A9879" stroke="#63B793" stroke-width="5.64" stroke-miterlimit="10"/>
<path d="M73.3 45.06H43.28V60.26H65.57V80.08H81.21V60.53H102.86V45.06H73.3Z" fill="white"/>
<path d="M81.21 85.09H65.57V116.93H81.21V85.09Z" fill="white"/>
<path d="M112.28 76.22C111.96 81.58 97.84 83.42 93.53 84.25C80.28 86.17 66.78 86.17 53.54 84.12C29.04 80.46 28.43 71.86 53.63 69.02C66.85 67.47 80.21 67.42 93.44 68.89C97.83 69.55 111.79 70.83 112.28 76.22ZM110.27 76.22C108.93 72.63 96.98 71 93.25 70.39C80.19 68.75 66.85 68.7 53.78 70.26C49.99 70.87 37.78 72.47 36.58 76.22C38.08 79.96 50.02 81.04 53.87 81.48C63.28 82.48 105.59 83.68 110.27 76.22Z" fill="white"/>
<path d="M112 136C124.703 136 135 125.703 135 113C135 100.297 124.703 90 112 90C99.2975 90 89 100.297 89 113C89 125.703 99.2975 136 112 136Z" fill="white"/>
<path d="M112 91C99.87 91 90 100.87 90 113C90 125.13 99.87 135 112 135C124.13 135 134 125.13 134 113C134 100.87 124.13 91 112 91ZM121.32 102.29C122.58 106.22 125.12 109.38 127.85 111.42C119.58 109.19 113.4 101.85 112.92 93C116.7 94.02 119.73 97.34 121.32 102.29ZM110.81 92.82C109.6 96.24 105.94 100.32 100.74 101.99C97.28 103.1 94.53 104.87 92.65 107.11C95.06 99.19 102.22 93.32 110.81 92.82ZM101.28 103.69C105.21 102.43 108.37 99.89 110.41 97.16C108.18 105.43 100.84 111.61 91.99 112.09C93.02 108.3 96.34 105.27 101.28 103.69ZM91.81 114.2C95.23 115.41 99.31 119.07 100.98 124.27C102.09 127.73 103.86 130.48 106.1 132.36C98.18 129.95 92.31 122.79 91.81 114.2ZM102.67 123.73C101.41 119.8 98.87 116.64 96.14 114.6C104.41 116.83 110.59 124.17 111.07 133.02C107.29 131.99 104.26 128.68 102.67 123.73ZM111.99 127.95C109.89 120.78 104.22 115.11 97.05 113.01C104.22 110.91 109.89 105.24 111.99 98.07C114.09 105.24 119.76 110.91 126.93 113.01C119.76 115.11 114.09 120.78 111.99 127.95ZM113.18 133.2C114.39 129.78 118.05 125.7 123.25 124.03C126.71 122.92 129.46 121.15 131.34 118.91C128.92 126.83 121.76 132.7 113.18 133.2ZM122.71 122.34C118.78 123.6 115.62 126.14 113.58 128.87C115.81 120.6 123.15 114.42 132 113.94C130.97 117.72 127.65 120.75 122.71 122.34ZM123.01 101.75C121.9 98.29 120.13 95.54 117.89 93.66C125.81 96.08 131.68 103.24 132.18 111.82C128.76 110.61 124.68 106.95 123.01 101.75Z" fill="#F29600"/>
<path d="M111.853 106.873L105.723 113.003L111.853 119.134L117.984 113.003L111.853 106.873Z" fill="#F29600"/>
</g>
<defs>
<clipPath id="clip0_12_2">
<rect width="150" height="150" rx="75" fill="white"/>
</clipPath>
</defs>
</svg>
