<svg width="37" height="37" viewBox="0 0 37 37" fill="none" xmlns="http://www.w3.org/2000/svg">
<g clip-path="url(#clip0_6498_9096)">
<mask id="mask0_6498_9096" style="mask-type:luminance" maskUnits="userSpaceOnUse" x="0" y="0" width="37" height="37">
<path d="M37 0H0V37H37V0Z" fill="white"/>
</mask>
<g mask="url(#mask0_6498_9096)">
<path d="M36.39 18.5551C36.39 8.56008 28.2874 0.457458 18.2923 0.457458C8.29725 0.457458 0.194656 8.56008 0.194656 18.5551C0.194656 28.5502 8.29725 36.6527 18.2923 36.6527C28.2874 36.6527 36.39 28.5502 36.39 18.5551Z" fill="#FA3812"/>
<path d="M29.1081 22.3331C28.6153 21.5944 27.9137 21.0194 27.0928 20.6812C26.912 20.6061 26.7263 20.5431 26.5371 20.4927C26.187 18.6832 25.0871 17.8255 23.9853 17.4255L19.3394 15.7718C17.5029 15.1161 16.7683 14.0661 16.7683 12.7278C16.7683 11.3894 18.1587 9.97215 20.0759 9.97215C21.9931 9.97215 24.0641 11.8354 25.0352 15.0373H25.664V9.26446H25.0083L24.091 10.8644C23.572 10.3195 22.9496 9.88348 22.2602 9.58167C21.5709 9.27992 20.8283 9.11844 20.0759 9.10675H19.5509C18.3076 8.25105 16.8334 7.79358 15.3242 7.79529C10.8629 7.79529 6.71689 12.9912 6.71689 18.5544C6.71689 24.1176 10.8629 29.2884 15.3242 29.2884C16.2643 29.3041 17.1981 29.1335 18.0721 28.7867C18.946 28.4398 19.7427 27.9235 20.4162 27.2674L21.4143 29.1558H22.2007V27.9943C22.9874 28.7846 24.04 29.2536 25.1537 29.31C26.2672 29.3665 27.362 29.0061 28.2243 28.2992C29.0868 27.5925 29.655 26.5898 29.8184 25.4868C29.9818 24.3838 29.7286 23.2595 29.1081 22.3331ZM15.378 28.2905C12.4916 28.2905 10.1821 26.1905 10.1821 21.7043V15.4584C10.1821 10.9702 12.6473 8.87028 15.378 8.87028C16.2663 8.86856 17.1346 9.13377 17.8702 9.63175C17.0812 10.0288 16.4181 10.6374 15.9549 11.3894C15.5065 12.153 15.2708 13.0229 15.2723 13.9085C15.2723 16.1391 16.2953 17.5314 17.8971 18.0813L21.7277 19.4466C22.5203 19.7047 23.2673 20.0864 23.941 20.5773C23.2861 20.797 22.6911 21.1656 22.2027 21.6542H22.2007V20.6254H21.3873C20.5989 25.5867 18.2644 28.2905 15.378 28.2905ZM28.1774 27.6289C27.5288 28.2771 26.6756 28.6804 25.763 28.7701C24.8505 28.8597 23.9351 28.6301 23.1728 28.1206C22.4106 27.6109 21.8486 26.8527 21.5826 25.9752C21.3167 25.0978 21.3633 24.1551 21.7144 23.3081C22.0656 22.461 22.6996 21.7619 23.5083 21.3299C24.3171 20.898 25.2507 20.7598 26.15 20.939C27.0492 21.1181 27.8586 21.6035 28.44 22.3125C29.0215 23.0215 29.3392 23.9102 29.3388 24.8272C29.3403 25.3478 29.2383 25.8635 29.0389 26.3445C28.8395 26.8254 28.5467 27.262 28.1774 27.6289Z" fill="#FEFDFC"/>
<path d="M24.6729 25.4274V27.2734H26.1881V23.8448H24.6729V25.4274Z" fill="#FEFDFC"/>
<path d="M22.9963 25.95L24.0366 27.2729H24.5097V25.1865H22.9963V25.95Z" fill="#FEFDFC"/>
<path d="M26.3521 22.4839V24.3108V25.1857V27.2741H26.827L27.8655 25.978V25.1857V24.3108V23.6646L26.827 22.4839H26.3521Z" fill="#FEFDFC"/>
</g>
</g>
<circle cx="18.5" cy="18.5" r="17.5" stroke="#1BE3C2" stroke-width="2"/>
<defs>
<clipPath id="clip0_6498_9096">
<rect width="37" height="37" fill="white"/>
</clipPath>
</defs>
</svg>
