<svg width="37" height="38" viewBox="0 0 37 38" fill="none" xmlns="http://www.w3.org/2000/svg">
<circle cx="18.5" cy="19" r="18" fill="#1D1B1D" stroke="#363232"/>
<path d="M18.8832 6.28125L18.7147 6.85428V23.4808L18.8832 23.649L26.5891 19.0871L18.8832 6.28125Z" fill="#6B6B6B"/>
<path d="M18.8832 6.28125L11.1771 19.0871L18.8832 23.649V15.579V6.28125Z" fill="#A2A2A2"/>
<path d="M18.8832 25.1104L18.7882 25.2263V31.149L18.8832 31.4265L26.5937 20.5508L18.8832 25.1104Z" fill="#4F4E4E"/>
<path d="M18.8832 31.4265V25.1104L11.1771 20.5508L18.8832 31.4265Z" fill="#A2A2A2"/>
<path d="M18.8832 23.6491L26.589 19.0872L18.8832 15.5791V23.6491Z" fill="#797979"/>
<path d="M11.1771 19.0872L18.8832 23.6491V15.5791L11.1771 19.0872Z" fill="#D4D4D4"/>
<g style="mix-blend-mode:overlay">
<path d="M18.4977 6.42725L18.3292 7.00028V23.6268L18.4977 23.795L26.2036 19.2331L18.4977 6.42725Z" fill="#ACE730"/>
<path d="M18.4977 6.42725L10.7916 19.2331L18.4977 23.795V15.725V6.42725Z" fill="#ACE730"/>
<path d="M18.4977 25.2564L18.4027 25.3723V31.295L18.4977 31.5725L26.2082 20.6968L18.4977 25.2564Z" fill="#ACE730"/>
<path d="M18.4977 31.5725V25.2564L10.7916 20.6968L18.4977 31.5725Z" fill="#ACE730"/>
<path d="M18.4977 23.7951L26.2035 19.2332L18.4977 15.7251V23.7951Z" fill="#ACE730"/>
<path d="M10.7916 19.2332L18.4977 23.7951V15.7251L10.7916 19.2332Z" fill="#ACE730"/>
</g>
<circle cx="18.5" cy="19" r="17.5" stroke="#1BE3C2" stroke-width="2"/>
</svg>
