<svg width="37" height="37" viewBox="0 0 37 37" fill="none" xmlns="http://www.w3.org/2000/svg">
<g clip-path="url(#clip0_4_2)">
<path d="M37 18.5C37 8.28273 28.7173 0 18.5 0C8.28273 0 0 8.28273 0 18.5C0 28.7173 8.28273 37 18.5 37C28.7173 37 37 28.7173 37 18.5Z" fill="#162E2F"/>
<mask id="mask0_4_2" style="mask-type:alpha" maskUnits="userSpaceOnUse" x="0" y="0" width="38" height="38">
<path d="M19.071 37.02C29.2883 37.02 37.571 28.7373 37.571 18.52C37.571 8.30273 29.2883 0.0199966 19.071 0.0199966C8.85373 0.0199966 0.570999 8.30273 0.570999 18.52C0.570999 28.7373 8.85373 37.02 19.071 37.02Z" fill="#D9D9D9"/>
</mask>
<g mask="url(#mask0_4_2)">
<path d="M-6.92901 8.508H19.401L19.444 11.269L21.693 12.353L23.216 14.03V23.166L21.693 24.931L19.402 26.354V28.53H-6.93001L-6.92901 8.508Z" fill="url(#paint0_linear_4_2)"/>
<path d="M0.0499878 11.608H16.333V25.413H0.0499878V11.608Z" fill="url(#paint1_linear_4_2)"/>
</g>
<path fill-rule="evenodd" clip-rule="evenodd" d="M20.536 10.17C23.368 10.421 25.611 11.3 25.859 13.921H25.861C26.046 15.839 25.251 16.987 23.979 17.643C26.072 18.153 27.383 19.407 27.123 22.22C26.803 25.712 24.22 26.648 20.533 26.86V28.51H18.339V26.91C17.771 26.91 17.187 26.904 16.587 26.892V28.509H14.395V26.852C13.883 26.849 11.518 26.839 10.987 26.839L11.003 24.916H12.833V12.136L11.003 12.125L11.009 10.175C11.009 10.175 13.926 10.177 14.4 10.168V8.49H16.592V10.097C17.1756 10.0841 17.7593 10.0768 18.343 10.075V8.492H20.536V10.17ZM17.064 24.22C18.86 24.246 22.787 24.302 22.787 21.781H22.785C22.785 19.202 19.007 19.291 17.168 19.336C16.964 19.34 16.784 19.345 16.636 19.345V24.215C16.7587 24.215 16.9013 24.2167 17.064 24.22ZM17 17.12C18.5 17.144 21.768 17.2 21.768 14.908C21.769 12.566 18.628 12.648 17.09 12.688C16.917 12.693 16.763 12.697 16.638 12.697V17.115C16.742 17.115 16.8627 17.1167 17 17.12Z" fill="#C3FCF1"/>
<g clip-path="url(#clip1_4_2)">
<path d="M18.5 36C28.165 36 36 28.165 36 18.5C36 8.83502 28.165 1 18.5 1C8.83502 1 1 8.83502 1 18.5C1 28.165 8.83502 36 18.5 36Z" stroke="#1BE3C2" stroke-width="2"/>
</g>
</g>
<defs>
<linearGradient id="paint0_linear_4_2" x1="23.216" y1="18.868" x2="0.501992" y2="18.519" gradientUnits="userSpaceOnUse">
<stop stop-color="#498E85"/>
<stop offset="1" stop-color="#32645F"/>
</linearGradient>
<linearGradient id="paint1_linear_4_2" x1="0.0499878" y1="19.218" x2="22.293" y2="19.677" gradientUnits="userSpaceOnUse">
<stop stop-color="#2F5D59"/>
<stop offset="1" stop-color="#3F8078"/>
</linearGradient>
<clipPath id="clip0_4_2">
<rect width="37" height="37" fill="white"/>
</clipPath>
<clipPath id="clip1_4_2">
<rect width="37" height="37" fill="white"/>
</clipPath>
</defs>
</svg>
