<?xml version="1.0" encoding="UTF-8"?>
<!DOCTYPE svg PUBLIC "-//W3C//DTD SVG 1.1//EN" "http://www.w3.org/Graphics/SVG/1.1/DTD/svg11.dtd">
<svg xmlns="http://www.w3.org/2000/svg" version="1.1" width="222px" height="222px" style="shape-rendering:geometricPrecision; text-rendering:geometricPrecision; image-rendering:optimizeQuality; fill-rule:evenodd; clip-rule:evenodd" xmlns:xlink="http://www.w3.org/1999/xlink">
<g><path style="opacity:0.998" fill="#32e2c4" d="M 90.5,-0.5 C 99.8333,-0.5 109.167,-0.5 118.5,-0.5C 128.245,0.517797 137.912,2.5178 147.5,5.5C 161.369,9.42991 173.369,16.4299 183.5,26.5C 186.5,30.1667 189.833,33.5 193.5,36.5C 204.458,47.3942 212.124,60.3942 216.5,75.5C 218.363,84.2446 220.029,92.9112 221.5,101.5C 221.5,108.5 221.5,115.5 221.5,122.5C 219.279,134.368 215.946,146.034 211.5,157.5C 202.095,179.574 186.761,196.241 165.5,207.5C 151.722,214.204 137.389,218.871 122.5,221.5C 111.833,221.5 101.167,221.5 90.5,221.5C 90.5,221.167 90.5,220.833 90.5,220.5C 84.8107,218.053 78.8107,216.386 72.5,215.5C 70.4471,215.598 68.7804,214.931 67.5,213.5C 63.8178,210.992 59.8178,208.992 55.5,207.5C 51.0243,206.343 47.3577,204.01 44.5,200.5C 27.6142,186.959 14.9475,170.293 6.5,150.5C 4.63327,143.352 2.63327,136.352 0.5,129.5C 0.5,128.833 0.166667,128.5 -0.5,128.5C -0.5,119.167 -0.5,109.833 -0.5,100.5C 1.0643,92.2605 2.73097,83.9272 4.5,75.5C 4.87234,71.7029 6.20567,68.3695 8.5,65.5C 13.3286,56.5069 18.6619,47.8402 24.5,39.5C 29.2635,34.2806 34.2635,29.2806 39.5,24.5C 45.5082,20.4971 51.5082,16.4971 57.5,12.5C 61.0407,9.69089 65.0407,7.52422 69.5,6C 76.5269,3.48811 83.5269,1.32144 90.5,-0.5 Z"/></g>
<g><path style="opacity:0.064" fill="#eafcf7" d="M 118.5,-0.5 C 122.5,-0.5 126.5,-0.5 130.5,-0.5C 136.421,0.731718 142.087,2.73172 147.5,5.5C 137.912,2.5178 128.245,0.517797 118.5,-0.5 Z"/></g>
<g><path style="opacity:1" fill="#1246eb" d="M 184.5,45.5 C 184.78,48.3882 183.447,49.8882 180.5,50C 183.729,50.3563 185.229,52.1897 185,55.5C 185.333,54.1667 185.667,52.8333 186,51.5C 186.671,50.7476 187.504,50.4142 188.5,50.5C 194.677,57.507 199.344,65.507 202.5,74.5C 202.67,75.8221 202.337,76.9887 201.5,78C 199.527,78.4955 197.527,78.6621 195.5,78.5C 195.5,74.8333 195.5,71.1667 195.5,67.5C 196.043,67.44 196.376,67.1067 196.5,66.5C 194.833,65.1667 193.167,65.1667 191.5,66.5C 192.433,70.4295 192.766,74.4295 192.5,78.5C 196.516,79.3545 200.516,79.6878 204.5,79.5C 205.774,81.9925 206.44,84.6592 206.5,87.5C 206.119,88.9311 205.119,89.7645 203.5,90C 203.728,90.3988 204.062,90.5654 204.5,90.5C 204.665,94.1817 204.499,97.8484 204,101.5C 203.549,99.0712 202.715,98.9045 201.5,101C 199.527,101.495 197.527,101.662 195.5,101.5C 195.207,97.5633 195.54,93.73 196.5,90C 194.833,89.3333 193.167,89.3333 191.5,90C 194.402,97.9337 191.735,101.767 183.5,101.5C 183.207,97.5633 183.54,93.73 184.5,90C 182.934,89.235 181.601,89.4017 180.5,90.5C 180.81,93.7131 180.477,96.7131 179.5,99.5C 177.18,101.226 174.513,101.893 171.5,101.5C 171.207,97.5633 171.54,93.73 172.5,90C 170.934,89.235 169.601,89.4017 168.5,90.5C 170.318,98.3954 167.318,102.062 159.5,101.5C 159.207,97.5633 159.54,93.73 160.5,90C 159.167,89.3333 157.833,89.3333 156.5,90C 157.3,94.08 157.8,98.2467 158,102.5C 161.611,103.327 165.111,103.661 168.5,103.5C 172.042,103.813 175.375,103.479 178.5,102.5C 179.167,102.833 179.833,103.167 180.5,103.5C 190.178,103.26 199.844,103.26 209.5,103.5C 209.521,110.854 209.187,118.187 208.5,125.5C 207.178,121.434 207.178,117.267 208.5,113C 206.833,112.333 205.167,112.333 203.5,113C 204.822,117.267 204.822,121.434 203.5,125.5C 205.219,126.022 206.552,127.022 207.5,128.5C 205.895,135.312 203.895,141.979 201.5,148.5C 199.5,148.5 197.5,148.5 195.5,148.5C 195.207,144.563 195.54,140.73 196.5,137C 195.207,136.51 193.873,136.343 192.5,136.5C 192.82,139.898 192.487,143.232 191.5,146.5C 189.149,148.229 186.482,148.896 183.5,148.5C 183.207,144.563 183.54,140.73 184.5,137C 182.934,136.235 181.601,136.402 180.5,137.5C 180.81,140.713 180.477,143.713 179.5,146.5C 177.18,148.226 174.513,148.893 171.5,148.5C 171.207,144.563 171.54,140.73 172.5,137C 171.167,136.333 169.833,136.333 168.5,137C 169.809,141.136 169.809,145.302 168.5,149.5C 171.98,150.806 175.313,150.806 178.5,149.5C 179.167,149.833 179.833,150.167 180.5,150.5C 184.106,150.789 187.606,150.456 191,149.5C 194.27,150.132 197.437,150.799 200.5,151.5C 199.167,154.167 197.833,156.833 196.5,159.5C 194.801,159.34 193.134,159.506 191.5,160C 192.406,161.699 192.739,163.533 192.5,165.5C 191.189,168.135 189.522,170.469 187.5,172.5C 186.167,172.5 184.833,172.5 183.5,172.5C 183.203,168.233 183.536,164.066 184.5,160C 182.833,159.333 181.167,159.333 179.5,160C 180.056,160.383 180.389,160.883 180.5,161.5C 180.909,164.855 180.242,167.855 178.5,170.5C 178.389,171.117 178.056,171.617 177.5,172C 175.527,172.495 173.527,172.662 171.5,172.5C 171.203,168.233 171.536,164.066 172.5,160C 170.833,159.333 169.167,159.333 167.5,160C 168.743,161.87 169.41,164.036 169.5,166.5C 169.468,168.759 169.134,170.925 168.5,173C 172.255,173.755 175.922,173.589 179.5,172.5C 179.5,173.167 179.833,173.5 180.5,173.5C 182.5,173.5 184.5,173.5 186.5,173.5C 182.167,178.5 177.5,183.167 172.5,187.5C 171.209,186.458 171.209,185.292 172.5,184C 171.167,183.333 169.833,183.333 168.5,184C 169.406,185.699 169.739,187.533 169.5,189.5C 167.025,192.241 164.025,194.241 160.5,195.5C 159.179,191.767 159.179,187.934 160.5,184C 159.167,183.333 157.833,183.333 156.5,184C 157.69,188.787 157.69,193.621 156.5,198.5C 146.445,203.129 135.945,206.462 125,208.5C 124.619,207.518 123.786,206.852 122.5,206.5C 120.334,206.43 120.001,207.096 121.5,208.5C 118.232,209.487 114.898,209.82 111.5,209.5C 111.577,208.25 112.244,207.417 113.5,207C 111.833,206.333 110.167,206.333 108.5,207C 109.252,207.671 109.586,208.504 109.5,209.5C 106.102,209.82 102.768,209.487 99.5,208.5C 102.321,207.158 102.154,206.492 99,206.5C 98.1667,206.667 97.3333,206.833 96.5,207C 96.8333,207.333 97.1667,207.667 97.5,208C 85.887,207.187 74.887,204.021 64.5,198.5C 66.8927,197.79 69.3927,197.123 72,196.5C 85.7358,197.376 99.4025,197.709 113,197.5C 114.833,197.333 116.667,197.167 118.5,197C 119.517,195.951 119.684,194.784 119,193.5C 116.865,195.278 114.365,195.945 111.5,195.5C 111.207,191.563 111.54,187.73 112.5,184C 111.167,183.333 109.833,183.333 108.5,184C 109.46,187.73 109.793,191.563 109.5,195.5C 108.849,194.909 108.182,194.243 107.5,193.5C 105.149,195.229 102.482,195.896 99.5,195.5C 99.2065,191.563 99.5399,187.73 100.5,184C 99.1667,183.333 97.8333,183.333 96.5,184C 97.4601,187.73 97.7935,191.563 97.5,195.5C 96.8485,194.909 96.1818,194.243 95.5,193.5C 93.1489,195.229 90.4822,195.896 87.5,195.5C 87.2065,191.563 87.5399,187.73 88.5,184C 87.1667,183.333 85.8333,183.333 84.5,184C 85.4601,187.73 85.7935,191.563 85.5,195.5C 84.8485,194.909 84.1818,194.243 83.5,193.5C 81.4902,195.171 79.1569,195.838 76.5,195.5C 76.5,191.5 76.5,187.5 76.5,183.5C 75.1266,183.343 73.7932,183.51 72.5,184C 73.4601,187.73 73.7935,191.563 73.5,195.5C 72.8485,194.909 72.1818,194.243 71.5,193.5C 69.4902,195.171 67.1569,195.838 64.5,195.5C 64.2338,191.429 64.5672,187.429 65.5,183.5C 63.8333,182.167 62.1667,182.167 60.5,183.5C 61.7963,187.631 61.7963,191.631 60.5,195.5C 57.4604,194.32 54.7937,192.653 52.5,190.5C 52.2924,188.08 52.6258,185.747 53.5,183.5C 51.8333,182.167 50.1667,182.167 48.5,183.5C 49.7053,184.995 49.7053,186.328 48.5,187.5C 42.1078,182.11 36.4412,176.11 31.5,169.5C 32.2297,167.955 33.563,167.122 35.5,167C 31.6667,167.167 29.8333,165.333 30,161.5C 29.79,163.058 29.29,164.391 28.5,165.5C 24.109,159.385 20.7757,152.718 18.5,145.5C 20.0858,144.852 21.7525,144.352 23.5,144C 22.376,143.751 21.376,143.251 20.5,142.5C 21.8303,139.151 21.3303,138.818 19,141.5C 18.6667,140.5 18.3333,139.5 18,138.5C 17.7679,139.737 17.2679,140.737 16.5,141.5C 14.5383,134.982 13.205,128.316 12.5,121.5C 13.2389,121.369 13.9056,121.536 14.5,122C 13.2888,122.893 13.2888,123.726 14.5,124.5C 15.5178,123.807 16.5178,123.141 17.5,122.5C 17.8333,126.5 18.1667,126.5 18.5,122.5C 19.4822,123.141 20.4822,123.807 21.5,124.5C 20.983,122.981 21.6496,121.648 23.5,120.5C 20.2027,119.858 19.8693,118.691 22.5,117C 20.74,115.207 19.74,115.707 19.5,118.5C 18.71,117.391 18.21,116.058 18,114.5C 17.6481,116.247 17.1481,117.914 16.5,119.5C 15.1667,119.5 13.8333,119.5 12.5,119.5C 12.7373,118.209 12.404,117.209 11.5,116.5C 11.1765,109.978 11.5098,103.645 12.5,97.5C 15.8595,96.7904 17.6929,98.1238 18,101.5C 18.3563,98.2712 20.1897,96.7712 23.5,97C 20.6667,96.1667 18.8333,94.3333 18,91.5C 17.8712,95.118 16.0379,96.7847 12.5,96.5C 20.2664,55.5619 43.933,28.3953 83.5,15C 115.994,7.20827 145.66,13.2083 172.5,33C 176.704,37.0356 180.704,41.2022 184.5,45.5 Z"/></g>
<g><path style="opacity:0.192" fill="#e4faf5" d="M 57.5,12.5 C 51.5082,16.4971 45.5082,20.4971 39.5,24.5C 44.5051,18.9982 50.5051,14.9982 57.5,12.5 Z"/></g>
<g><path style="opacity:0.004" fill="#dbf9f2" d="M 183.5,26.5 C 187.833,28.8333 191.167,32.1667 193.5,36.5C 189.833,33.5 186.5,30.1667 183.5,26.5 Z"/></g>
<g><path style="opacity:0.314" fill="#e1faf4" d="M 39.5,24.5 C 34.2635,29.2806 29.2635,34.2806 24.5,39.5C 27.93,32.9475 32.93,27.9475 39.5,24.5 Z"/></g>
<g><path style="opacity:1" fill="#f2f3f2" d="M 103.5,41.5 C 106.167,41.5 108.833,41.5 111.5,41.5C 111.177,48.0221 111.51,54.3554 112.5,60.5C 120.167,60.5 127.833,60.5 135.5,60.5C 135.5,66.8333 135.5,73.1667 135.5,79.5C 116.833,79.5 98.1667,79.5 79.5,79.5C 79.5,73.1667 79.5,66.8333 79.5,60.5C 87.1667,60.5 94.8333,60.5 102.5,60.5C 103.49,54.3554 103.823,48.0221 103.5,41.5 Z"/></g>
<g><path style="opacity:1" fill="#7a94f0" d="M 127.5,48.5 C 126.041,48.4326 124.708,48.7659 123.5,49.5C 122.2,48.399 121.7,47.0657 122,45.5C 123.691,48.1307 124.858,47.7973 125.5,44.5C 126.428,46.3348 127.594,46.6682 129,45.5C 129.585,46.9976 129.085,47.9976 127.5,48.5 Z"/></g>
<g><path style="opacity:1" fill="#7892f0" d="M 142.5,49.5 C 140.09,48.5615 137.756,48.5615 135.5,49.5C 134.2,48.399 133.7,47.0657 134,45.5C 135.691,48.1307 136.858,47.7973 137.5,44.5C 138.197,46.3845 139.197,46.7178 140.5,45.5C 141.711,46.2739 141.711,47.1072 140.5,48C 141.416,48.2784 142.082,48.7784 142.5,49.5 Z"/></g>
<g><path style="opacity:1" fill="#b5c5f0" d="M 184.5,45.5 C 186.587,46.5846 187.92,48.2512 188.5,50.5C 187.504,50.4142 186.671,50.7476 186,51.5C 185.667,52.8333 185.333,54.1667 185,55.5C 185.229,52.1897 183.729,50.3563 180.5,50C 183.447,49.8882 184.78,48.3882 184.5,45.5 Z"/></g>
<g><path style="opacity:1" fill="#a4b1f2" d="M 111.5,41.5 C 112.312,43.7757 113.646,45.7757 115.5,47.5C 113.441,48.9512 112.441,50.9512 112.5,53.5C 113.675,53.281 114.675,53.6143 115.5,54.5C 113.441,55.9512 112.441,57.9512 112.5,60.5C 111.51,54.3554 111.177,48.0221 111.5,41.5 Z"/></g>
<g><path style="opacity:1" fill="#bec9f2" d="M 127.5,48.5 C 128.263,49.2679 129.263,49.7679 130.5,50C 129.263,50.2321 128.263,50.7321 127.5,51.5C 126.167,51.5 124.833,51.5 123.5,51.5C 122.737,50.7321 121.737,50.2321 120.5,50C 121.448,49.5172 122.448,49.3505 123.5,49.5C 124.708,48.7659 126.041,48.4326 127.5,48.5 Z"/></g>
<g><path style="opacity:1" fill="#becaf2" d="M 142.5,49.5 C 141.5,50.1667 140.5,50.8333 139.5,51.5C 138.167,51.5 136.833,51.5 135.5,51.5C 134.737,50.7321 133.737,50.2321 132.5,50C 133.448,49.5172 134.448,49.3505 135.5,49.5C 137.756,48.5615 140.09,48.5615 142.5,49.5 Z"/></g>
<g><path style="opacity:1" fill="#a0aef1" d="M 148.5,44.5 C 149.931,45.4458 151.264,46.6125 152.5,48C 152.167,48.3333 151.833,48.6667 151.5,49C 155.5,49.6667 155.5,50.3333 151.5,51C 154.112,53.1513 154.112,53.9847 151.5,53.5C 149.397,55.8799 148.23,55.2132 148,51.5C 146.933,50.8095 145.766,50.3095 144.5,50C 147.876,49.6929 149.21,47.8595 148.5,44.5 Z"/></g>
<g><path style="opacity:1" fill="#a0aef1" d="M 160.5,44.5 C 161.931,45.4458 163.264,46.6125 164.5,48C 164.167,48.3333 163.833,48.6667 163.5,49C 167.5,49.6667 167.5,50.3333 163.5,51C 166.112,53.1513 166.112,53.9847 163.5,53.5C 161.397,55.8799 160.23,55.2132 160,51.5C 158.933,50.8095 157.766,50.3095 156.5,50C 159.876,49.6929 161.21,47.8595 160.5,44.5 Z"/></g>
<g><path style="opacity:1" fill="#b1bef2" d="M 172.5,44.5 C 173.404,45.209 173.737,46.209 173.5,47.5C 175.202,48.0751 176.869,48.9085 178.5,50C 175.19,49.7712 173.356,51.2712 173,54.5C 172.644,51.2712 170.81,49.7712 167.5,50C 171.459,50.2087 173.126,48.3754 172.5,44.5 Z"/></g>
<g><path style="opacity:0.092" fill="#ecfcf8" d="M 24.5,39.5 C 18.6619,47.8402 13.3286,56.5069 8.5,65.5C 11.813,55.531 17.1463,46.8644 24.5,39.5 Z"/></g>
<g><path style="opacity:1" fill="#7892f0" d="M 123.5,51.5 C 124.833,51.5 126.167,51.5 127.5,51.5C 129.085,52.0024 129.585,53.0024 129,54.5C 127.684,51.972 126.517,51.972 125.5,54.5C 124.28,53.2889 123.113,53.2889 122,54.5C 120.35,52.9576 120.85,51.9576 123.5,51.5 Z"/></g>
<g><path style="opacity:1" fill="#718cef" d="M 135.5,51.5 C 136.833,51.5 138.167,51.5 139.5,51.5C 141.085,52.0024 141.585,53.0024 141,54.5C 139.309,51.8693 138.142,52.2027 137.5,55.5C 135.964,54.0642 134.297,53.2308 132.5,53C 133.527,52.4867 134.527,51.9867 135.5,51.5 Z"/></g>
<g><path style="opacity:1" fill="#7d94f0" d="M 88.5,52.5 C 91.8606,53.2032 92.1939,54.5365 89.5,56.5C 87.3576,55.5629 87.0243,54.2296 88.5,52.5 Z"/></g>
<g><path style="opacity:1" fill="#94a7f1" d="M 76.5,52.5 C 79.8606,53.2032 80.1939,54.5365 77.5,56.5C 76.5713,55.3112 76.238,53.9778 76.5,52.5 Z"/></g>
<g><path style="opacity:1" fill="#a5b3f2" d="M 103.5,41.5 C 103.823,48.0221 103.49,54.3554 102.5,60.5C 102.559,57.9512 101.559,55.9512 99.5,54.5C 100.325,53.6143 101.325,53.281 102.5,53.5C 102.559,50.9512 101.559,48.9512 99.5,47.5C 101.354,45.7757 102.688,43.7757 103.5,41.5 Z"/></g>
<g><path style="opacity:1" fill="#b6c3f2" d="M 179.5,76.5 C 179.443,77.609 179.11,78.609 178.5,79.5C 174.818,79.6653 171.152,79.4986 167.5,79C 168.743,77.1303 169.41,74.9637 169.5,72.5C 169.41,70.0363 168.743,67.8697 167.5,66C 169.259,65.2025 170.926,65.3691 172.5,66.5C 171.567,70.4295 171.234,74.4295 171.5,78.5C 174.513,78.8928 177.18,78.2261 179.5,76.5 Z"/></g>
<g><path style="opacity:1" fill="#bec9f2" d="M 183.5,67.5 C 183.5,71.1667 183.5,74.8333 183.5,78.5C 186.365,78.9452 188.865,78.2785 191,76.5C 191.617,77.4491 191.451,78.2825 190.5,79C 187.183,79.4983 183.85,79.665 180.5,79.5C 181.111,75.2101 181.778,70.8767 182.5,66.5C 183.107,66.6236 183.44,66.9569 183.5,67.5 Z"/></g>
<g><path style="opacity:1" fill="#b9c7f1" d="M 195.5,67.5 C 195.5,71.1667 195.5,74.8333 195.5,78.5C 197.527,78.6621 199.527,78.4955 201.5,78C 202.337,76.9887 202.67,75.8221 202.5,74.5C 203.537,75.9303 204.204,77.597 204.5,79.5C 200.516,79.6878 196.516,79.3545 192.5,78.5C 193.166,74.6475 193.833,70.6475 194.5,66.5C 195.107,66.6236 195.44,66.9569 195.5,67.5 Z"/></g>
<g><path style="opacity:1" fill="#718df0" d="M 183.5,67.5 C 183.44,66.9569 183.107,66.6236 182.5,66.5C 181.778,70.8767 181.111,75.2101 180.5,79.5C 179.833,79.5 179.167,79.5 178.5,79.5C 179.11,78.609 179.443,77.609 179.5,76.5C 180.82,73.1013 180.82,69.6013 179.5,66C 181.259,65.2025 182.926,65.3691 184.5,66.5C 184.376,67.1067 184.043,67.44 183.5,67.5 Z"/></g>
<g><path style="opacity:1" fill="#7590f0" d="M 195.5,67.5 C 195.44,66.9569 195.107,66.6236 194.5,66.5C 193.833,70.6475 193.166,74.6475 192.5,78.5C 192.766,74.4295 192.433,70.4295 191.5,66.5C 193.167,65.1667 194.833,65.1667 196.5,66.5C 196.376,67.1067 196.043,67.44 195.5,67.5 Z"/></g>
<g><path style="opacity:1" fill="#c5d0f2" d="M 41.5,69.5 C 43.7602,70.2376 43.9269,71.2376 42,72.5C 40.2716,71.6477 40.105,70.6477 41.5,69.5 Z"/></g>
<g><path style="opacity:1" fill="#b7c4f2" d="M 53.5,69.5 C 55.7602,70.2376 55.9269,71.2376 54,72.5C 52.2716,71.6477 52.105,70.6477 53.5,69.5 Z"/></g>
<g><path style="opacity:1" fill="#869df0" d="M 65.5,67.5 C 67.7679,70.9728 67.9346,74.6394 66,78.5C 65.5294,75.4061 63.696,73.7394 60.5,73.5C 63.7973,72.8576 64.1307,71.6909 61.5,70C 62.9961,69.4926 64.1627,69.9926 65,71.5C 65.49,70.2068 65.6567,68.8734 65.5,67.5 Z"/></g>
<g><path style="opacity:1" fill="#8398f0" d="M 148.5,67.5 C 149.931,68.4458 151.264,69.6125 152.5,71C 151.833,71.3333 151.167,71.6667 150.5,72C 153.5,72.6667 156.5,72.6667 159.5,72C 160.071,70.7949 160.738,69.6283 161.5,68.5C 162.354,69.5217 163.354,70.3551 164.5,71C 163.833,71.3333 163.167,71.6667 162.5,72C 163.938,72.2189 165.271,72.7189 166.5,73.5C 164.615,74.1973 164.282,75.1973 165.5,76.5C 164.726,77.7112 163.893,77.7112 163,76.5C 161.623,80.2649 160.623,79.9316 160,75.5C 157.827,78.277 157.327,78.1103 158.5,75C 154.826,73.0114 152.826,73.8447 152.5,77.5C 151.197,76.2822 150.197,76.6155 149.5,78.5C 147.218,74.9956 146.884,71.3289 148.5,67.5 Z"/></g>
<g><path style="opacity:1" fill="#b2bdf2" d="M 29.5,76.5 C 32.1247,77.4657 32.1247,78.4657 29.5,79.5C 26.9548,78.4508 26.9548,77.4508 29.5,76.5 Z"/></g>
<g><path style="opacity:1" fill="#c5d0f2" d="M 41.5,76.5 C 43.7602,77.2376 43.9269,78.2376 42,79.5C 40.2716,78.6477 40.105,77.6477 41.5,76.5 Z"/></g>
<g><path style="opacity:1" fill="#b7c3f2" d="M 53.5,76.5 C 55.7602,77.2376 55.9269,78.2376 54,79.5C 52.2716,78.6477 52.105,77.6477 53.5,76.5 Z"/></g>
<g><path style="opacity:1" fill="#eeeff3" d="M 59.5,79.5 C 65.8333,79.5 72.1667,79.5 78.5,79.5C 78.5,85.8333 78.5,92.1667 78.5,98.5C 72.1667,98.5 65.8333,98.5 59.5,98.5C 59.5,92.1667 59.5,85.8333 59.5,79.5 Z"/></g>
<g><path style="opacity:0.584" fill="#d1f8ee" d="M 4.5,75.5 C 2.73097,83.9272 1.0643,92.2605 -0.5,100.5C -0.5,97.8333 -0.5,95.1667 -0.5,92.5C 0.551556,86.6761 2.21822,81.0094 4.5,75.5 Z"/></g>
<g><path style="opacity:0.034" fill="#daf9f2" d="M 216.5,75.5 C 218.542,80.385 220.209,85.385 221.5,90.5C 221.5,94.1667 221.5,97.8333 221.5,101.5C 220.029,92.9112 218.363,84.2446 216.5,75.5 Z"/></g>
<g><path style="opacity:1" fill="#92a7f1" d="M 135.5,60.5 C 136.49,66.6446 136.823,72.9779 136.5,79.5C 136.5,82.5 136.5,85.5 136.5,88.5C 142.5,88.5 148.5,88.5 154.5,88.5C 154.5,85.5 154.5,82.5 154.5,79.5C 155.479,82.6248 155.813,85.9581 155.5,89.5C 148.833,89.5 142.167,89.5 135.5,89.5C 135.5,86.1667 135.5,82.8333 135.5,79.5C 135.5,73.1667 135.5,66.8333 135.5,60.5 Z"/></g>
<g><path style="opacity:1" fill="#f1f1f3" d="M 136.5,79.5 C 142.5,79.5 148.5,79.5 154.5,79.5C 154.5,82.5 154.5,85.5 154.5,88.5C 148.5,88.5 142.5,88.5 136.5,88.5C 136.5,85.5 136.5,82.5 136.5,79.5 Z"/></g>
<g><path style="opacity:1" fill="#b7c8f0" d="M 206.5,87.5 C 207.404,88.209 207.737,89.209 207.5,90.5C 206.676,94.3123 206.176,98.3123 206,102.5C 205.824,98.3123 205.324,94.3123 204.5,90.5C 204.062,90.5654 203.728,90.3988 203.5,90C 205.119,89.7645 206.119,88.9311 206.5,87.5 Z"/></g>
<g><path style="opacity:1" fill="#6382ef" d="M 180.5,90.5 C 181.736,94.7012 181.736,99.0345 180.5,103.5C 179.833,103.167 179.167,102.833 178.5,102.5C 179.11,101.609 179.443,100.609 179.5,99.5C 180.477,96.7131 180.81,93.7131 180.5,90.5 Z"/></g>
<g><path style="opacity:1" fill="#bbc7f2" d="M 12.5,97.5 C 12.5,97.1667 12.5,96.8333 12.5,96.5C 16.0379,96.7847 17.8712,95.118 18,91.5C 18.8333,94.3333 20.6667,96.1667 23.5,97C 20.1897,96.7712 18.3563,98.2712 18,101.5C 17.6929,98.1238 15.8595,96.7904 12.5,97.5 Z"/></g>
<g><path style="opacity:1" fill="#bdc8f2" d="M 29.5,91.5 C 30.6499,94.1458 32.6499,95.9791 35.5,97C 32.1897,96.7712 30.3563,98.2712 30,101.5C 29.6437,98.2712 27.8103,96.7712 24.5,97C 28.0945,96.8775 29.7612,95.0442 29.5,91.5 Z"/></g>
<g><path style="opacity:1" fill="#b8c4f2" d="M 41.5,91.5 C 42.1002,94.6247 43.2669,94.958 45,92.5C 45.5074,93.9961 45.0074,95.1627 43.5,96C 48.8333,96.6667 48.8333,97.3333 43.5,98C 42.8095,99.0674 42.3095,100.234 42,101.5C 41.6437,98.2712 39.8103,96.7712 36.5,97C 40.0945,96.8775 41.7612,95.0442 41.5,91.5 Z"/></g>
<g><path style="opacity:1" fill="#92a6f1" d="M 53.5,91.5 C 55.8995,94.9485 56.0661,98.6152 54,102.5C 53.6667,101.167 53.3333,99.8333 53,98.5C 49.7927,101.15 49.2927,100.984 51.5,98C 50.5,97.6667 49.5,97.3333 48.5,97C 52.118,96.8712 53.7847,95.0379 53.5,91.5 Z"/></g>
<g><path style="opacity:1" fill="#f1f1f3" d="M 135.5,98.5 C 135.5,104.833 135.5,111.167 135.5,117.5C 116.833,117.5 98.1667,117.5 79.5,117.5C 79.5,111.167 79.5,104.833 79.5,98.5C 98.1667,98.5 116.833,98.5 135.5,98.5 Z"/></g>
<g><path style="opacity:1" fill="#6884ef" d="M 168.5,90.5 C 169.736,94.7012 169.736,99.0345 168.5,103.5C 165.111,103.661 161.611,103.327 158,102.5C 157.8,98.2467 157.3,94.08 156.5,90C 157.833,89.3333 159.167,89.3333 160.5,90C 159.54,93.73 159.207,97.5633 159.5,101.5C 167.318,102.062 170.318,98.3954 168.5,90.5 Z"/></g>
<g><path style="opacity:1" fill="#a6b6f1" d="M 168.5,90.5 C 169.601,89.4017 170.934,89.235 172.5,90C 171.54,93.73 171.207,97.5633 171.5,101.5C 174.513,101.893 177.18,101.226 179.5,99.5C 179.443,100.609 179.11,101.609 178.5,102.5C 175.375,103.479 172.042,103.813 168.5,103.5C 169.736,99.0345 169.736,94.7012 168.5,90.5 Z"/></g>
<g><path style="opacity:1" fill="#95a8f0" d="M 180.5,90.5 C 181.601,89.4017 182.934,89.235 184.5,90C 183.54,93.73 183.207,97.5633 183.5,101.5C 191.735,101.767 194.402,97.9337 191.5,90C 193.167,89.3333 194.833,89.3333 196.5,90C 195.54,93.73 195.207,97.5633 195.5,101.5C 197.527,101.662 199.527,101.495 201.5,101C 202.715,98.9045 203.549,99.0712 204,101.5C 204.499,97.8484 204.665,94.1817 204.5,90.5C 205.324,94.3123 205.824,98.3123 206,102.5C 206.176,98.3123 206.676,94.3123 207.5,90.5C 208.702,94.7144 209.369,99.0478 209.5,103.5C 199.844,103.26 190.178,103.26 180.5,103.5C 181.736,99.0345 181.736,94.7012 180.5,90.5 Z"/></g>
<g><path style="opacity:1" fill="#bfcaf2" d="M 179.5,123.5 C 179.5,124.167 179.5,124.833 179.5,125.5C 175.922,126.589 172.255,126.755 168.5,126C 169.626,122.256 169.793,118.423 169,114.5C 166.968,113.06 167.302,112.393 170,112.5C 170.833,112.667 171.667,112.833 172.5,113C 171.536,117.066 171.203,121.233 171.5,125.5C 174.513,125.893 177.18,125.226 179.5,123.5 Z"/></g>
<g><path style="opacity:1" fill="#c5d0f2" d="M 183.5,113.5 C 183.5,117.5 183.5,121.5 183.5,125.5C 186.513,125.893 189.18,125.226 191.5,123.5C 191.5,124.167 191.5,124.833 191.5,125.5C 187.936,126.423 184.269,126.756 180.5,126.5C 180.78,121.792 181.78,117.458 183.5,113.5 Z"/></g>
<g><path style="opacity:1" fill="#c4cff2" d="M 195.5,113.5 C 195.5,117.5 195.5,121.5 195.5,125.5C 198.365,125.945 200.865,125.278 203,123.5C 203.464,124.094 203.631,124.761 203.5,125.5C 199.399,126.791 195.399,126.791 191.5,125.5C 192.833,121.5 194.167,117.5 195.5,113.5 Z"/></g>
<g><path style="opacity:1" fill="#a7baf0" d="M 208.5,125.5 C 208.737,126.791 208.404,127.791 207.5,128.5C 206.552,127.022 205.219,126.022 203.5,125.5C 204.822,121.434 204.822,117.267 203.5,113C 205.167,112.333 206.833,112.333 208.5,113C 207.178,117.267 207.178,121.434 208.5,125.5 Z"/></g>
<g><path style="opacity:1" fill="#718df0" d="M 183.5,113.5 C 181.78,117.458 180.78,121.792 180.5,126.5C 179.833,126.5 179.5,126.167 179.5,125.5C 179.5,124.833 179.5,124.167 179.5,123.5C 180.82,120.101 180.82,116.601 179.5,113C 181.743,112.203 183.077,112.37 183.5,113.5 Z"/></g>
<g><path style="opacity:1" fill="#718df0" d="M 195.5,113.5 C 194.167,117.5 192.833,121.5 191.5,125.5C 191.5,124.833 191.5,124.167 191.5,123.5C 192.82,120.101 192.82,116.601 191.5,113C 193.743,112.203 195.077,112.37 195.5,113.5 Z"/></g>
<g><path style="opacity:1" fill="#c1cbf2" d="M 19.5,118.5 C 19.5674,119.959 19.2341,121.292 18.5,122.5C 18.1667,126.5 17.8333,126.5 17.5,122.5C 16.8902,121.609 16.5569,120.609 16.5,119.5C 17.1481,117.914 17.6481,116.247 18,114.5C 18.21,116.058 18.71,117.391 19.5,118.5 Z"/></g>
<g><path style="opacity:1" fill="#c1cbf2" d="M 31.5,118.5 C 31.5674,119.959 31.2341,121.292 30.5,122.5C 30.1667,126.5 29.8333,126.5 29.5,122.5C 28.7659,121.292 28.4326,119.959 28.5,118.5C 29.29,117.391 29.79,116.058 30,114.5C 30.21,116.058 30.71,117.391 31.5,118.5 Z"/></g>
<g><path style="opacity:1" fill="#a6b4f2" d="M 41.5,114.5 C 42.29,115.609 42.79,116.942 43,118.5C 44.0674,119.191 45.2341,119.691 46.5,120C 42.9984,120.656 42.9984,121.989 46.5,124C 45.0039,124.507 43.8373,124.007 43,122.5C 42.6667,123.5 42.3333,124.5 42,125.5C 40.9085,123.869 40.0751,122.202 39.5,120.5C 35.551,120.307 35.551,119.807 39.5,119C 36.9918,114.556 37.4918,114.389 41,118.5C 41.49,117.207 41.6567,115.873 41.5,114.5 Z"/></g>
<g><path style="opacity:1" fill="#b3c1f1" d="M 135.5,98.5 C 136.49,104.645 136.823,110.978 136.5,117.5C 142.833,117.5 149.167,117.5 155.5,117.5C 155.5,123.5 155.5,129.5 155.5,135.5C 155.5,136.167 155.167,136.5 154.5,136.5C 154.5,130.5 154.5,124.5 154.5,118.5C 148.5,118.5 142.5,118.5 136.5,118.5C 136.167,118.5 135.833,118.5 135.5,118.5C 135.5,118.167 135.5,117.833 135.5,117.5C 135.5,111.167 135.5,104.833 135.5,98.5 Z"/></g>
<g><path style="opacity:1" fill="#f2f3f2" d="M 136.5,118.5 C 142.5,118.5 148.5,118.5 154.5,118.5C 154.5,124.5 154.5,130.5 154.5,136.5C 148.5,136.5 142.5,136.5 136.5,136.5C 136.5,130.5 136.5,124.5 136.5,118.5 Z"/></g>
<g><path style="opacity:1" fill="#8298f0" d="M 53.5,114.5 C 56.0985,118.052 56.0985,121.719 53.5,125.5C 52.8027,123.615 51.8027,123.282 50.5,124.5C 49.2888,123.726 49.2888,122.893 50.5,122C 47.999,120.582 48.3323,119.582 51.5,119C 48.9918,114.556 49.4918,114.389 53,118.5C 53.49,117.207 53.6567,115.873 53.5,114.5 Z"/></g>
<g><path style="opacity:1" fill="#5d7eed" d="M 11.5,116.5 C 12.404,117.209 12.7373,118.209 12.5,119.5C 13.8333,119.5 15.1667,119.5 16.5,119.5C 16.5569,120.609 16.8902,121.609 17.5,122.5C 16.5178,123.141 15.5178,123.807 14.5,124.5C 13.2888,123.726 13.2888,122.893 14.5,122C 13.9056,121.536 13.2389,121.369 12.5,121.5C 11.6993,119.958 11.366,118.292 11.5,116.5 Z"/></g>
<g><path style="opacity:1" fill="#6680ef" d="M 28.5,118.5 C 28.4326,119.959 28.7659,121.292 29.5,122.5C 28.5178,123.141 27.5178,123.807 26.5,124.5C 25.2888,123.726 25.2888,122.893 26.5,122C 23.999,120.582 24.3323,119.582 27.5,119C 25.0766,114.689 25.4099,114.522 28.5,118.5 Z"/></g>
<g><path style="opacity:1" fill="#8ba0f1" d="M 158.5,113.5 C 159.483,117.298 159.817,121.298 159.5,125.5C 162.365,125.945 164.865,125.278 167,123.5C 167.617,124.449 167.451,125.282 166.5,126C 163.167,126.667 159.833,126.667 156.5,126C 157.954,121.991 158.621,117.825 158.5,113.5 Z"/></g>
<g><path style="opacity:1" fill="#6d88ef" d="M 18.5,122.5 C 19.2341,121.292 19.5674,119.959 19.5,118.5C 19.74,115.707 20.74,115.207 22.5,117C 19.8693,118.691 20.2027,119.858 23.5,120.5C 21.6496,121.648 20.983,122.981 21.5,124.5C 20.4822,123.807 19.4822,123.141 18.5,122.5 Z"/></g>
<g><path style="opacity:1" fill="#6d88ef" d="M 30.5,122.5 C 31.2341,121.292 31.5674,119.959 31.5,118.5C 31.74,115.707 32.74,115.207 34.5,117C 31.8693,118.691 32.2027,119.858 35.5,120.5C 33.6496,121.648 32.983,122.981 33.5,124.5C 32.4822,123.807 31.4822,123.141 30.5,122.5 Z"/></g>
<g><path style="opacity:1" fill="#eff0f2" d="M 59.5,127.5 C 65.8333,127.5 72.1667,127.5 78.5,127.5C 78.5,130.5 78.5,133.5 78.5,136.5C 72.1667,136.5 65.8333,136.5 59.5,136.5C 59.5,133.5 59.5,130.5 59.5,127.5 Z"/></g>
<g><path style="opacity:0.034" fill="#edfcf8" d="M 0.5,129.5 C 2.63327,136.352 4.63327,143.352 6.5,150.5C 2.90942,144.05 0.909421,137.05 0.5,129.5 Z"/></g>
<g><path style="opacity:0.032" fill="#eefcf8" d="M 221.5,122.5 C 221.5,125.167 221.5,127.833 221.5,130.5C 220.027,135.711 218.527,141.044 217,146.5C 215.648,150.538 213.814,154.205 211.5,157.5C 215.946,146.034 219.279,134.368 221.5,122.5 Z"/></g>
<g><path style="opacity:1" fill="#a6b5f2" d="M 135.5,118.5 C 135.833,118.5 136.167,118.5 136.5,118.5C 136.5,124.5 136.5,130.5 136.5,136.5C 136.5,136.833 136.5,137.167 136.5,137.5C 136.823,143.69 136.49,149.69 135.5,155.5C 135.5,149.5 135.5,143.5 135.5,137.5C 116.833,137.5 98.1667,137.5 79.5,137.5C 79.5,137.167 79.5,136.833 79.5,136.5C 98.1667,136.5 116.833,136.5 135.5,136.5C 135.5,130.5 135.5,124.5 135.5,118.5 Z"/></g>
<g><path style="opacity:1" fill="#4e72ee" d="M 155.5,135.5 C 157.288,135.215 158.955,135.548 160.5,136.5C 160.376,137.107 160.043,137.44 159.5,137.5C 159.44,136.957 159.107,136.624 158.5,136.5C 157.723,141.175 157.056,145.842 156.5,150.5C 155.833,150.5 155.167,150.5 154.5,150.5C 155.625,149.348 155.625,148.348 154.5,147.5C 156.273,144.512 156.94,141.179 156.5,137.5C 153.5,137.5 150.5,137.5 147.5,137.5C 147.5,139.167 147.5,140.833 147.5,142.5C 146.833,142.833 146.167,143.167 145.5,143.5C 145.5,141.5 145.5,139.5 145.5,137.5C 142.5,137.5 139.5,137.5 136.5,137.5C 136.5,137.167 136.5,136.833 136.5,136.5C 142.5,136.5 148.5,136.5 154.5,136.5C 155.167,136.5 155.5,136.167 155.5,135.5 Z"/></g>
<g><path style="opacity:1" fill="#6281ef" d="M 59.5,127.5 C 65.979,126.509 72.6457,126.176 79.5,126.5C 79.5,129.833 79.5,133.167 79.5,136.5C 79.5,136.833 79.5,137.167 79.5,137.5C 79.5,143.5 79.5,149.5 79.5,155.5C 87.3516,155.175 95.0182,155.508 102.5,156.5C 94.5,156.5 86.5,156.5 78.5,156.5C 78.5,150.167 78.5,143.833 78.5,137.5C 71.9779,137.823 65.6446,137.49 59.5,136.5C 65.8333,136.5 72.1667,136.5 78.5,136.5C 78.5,133.5 78.5,130.5 78.5,127.5C 72.1667,127.5 65.8333,127.5 59.5,127.5 Z"/></g>
<g><path style="opacity:1" fill="#f1f1f3" d="M 79.5,137.5 C 98.1667,137.5 116.833,137.5 135.5,137.5C 135.5,143.5 135.5,149.5 135.5,155.5C 127.833,155.5 120.167,155.5 112.5,155.5C 112.5,161.167 112.5,166.833 112.5,172.5C 115.044,172.896 117.211,172.229 119,170.5C 119.617,171.449 119.451,172.282 118.5,173C 113.036,174.458 107.703,174.625 102.5,173.5C 102.5,173.167 102.5,172.833 102.5,172.5C 102.5,167.167 102.5,161.833 102.5,156.5C 95.0182,155.508 87.3516,155.175 79.5,155.5C 79.5,149.5 79.5,143.5 79.5,137.5 Z"/></g>
<g><path style="opacity:1" fill="#0142ea" d="M 154.5,147.5 C 152.283,148.369 149.95,148.702 147.5,148.5C 147.5,146.5 147.5,144.5 147.5,142.5C 147.5,140.833 147.5,139.167 147.5,137.5C 150.5,137.5 153.5,137.5 156.5,137.5C 156.94,141.179 156.273,144.512 154.5,147.5 Z"/></g>
<g><path style="opacity:1" fill="#6382ef" d="M 180.5,137.5 C 181.736,141.701 181.736,146.035 180.5,150.5C 179.833,150.167 179.167,149.833 178.5,149.5C 179.11,148.609 179.443,147.609 179.5,146.5C 180.477,143.713 180.81,140.713 180.5,137.5 Z"/></g>
<g><path style="opacity:1" fill="#b2bff2" d="M 29.5,138.5 C 30.1002,141.625 31.2669,141.958 33,139.5C 33.4922,140.549 33.3256,141.549 32.5,142.5C 33.376,143.251 34.376,143.751 35.5,144C 32.1897,143.771 30.3563,145.271 30,148.5C 29.6437,145.271 27.8103,143.771 24.5,144C 28.0945,143.878 29.7612,142.044 29.5,138.5 Z"/></g>
<g><path style="opacity:1" fill="#afbcf2" d="M 41.5,138.5 C 42.1002,141.625 43.2669,141.958 45,139.5C 45.5074,140.996 45.0074,142.163 43.5,143C 48.8333,143.667 48.8333,144.333 43.5,145C 42.8095,146.067 42.3095,147.234 42,148.5C 41.6437,145.271 39.8103,143.771 36.5,144C 40.0945,143.878 41.7612,142.044 41.5,138.5 Z"/></g>
<g><path style="opacity:1" fill="#97a7f1" d="M 53.5,138.5 C 54.2679,139.263 54.7679,140.263 55,141.5C 59.4445,138.992 59.6112,139.492 55.5,143C 60.8333,143.667 60.8333,144.333 55.5,145C 54.9103,146.509 54.2436,148.009 53.5,149.5C 52.5723,147.665 51.4056,147.332 50,148.5C 49.4926,147.004 49.9926,145.837 51.5,145C 50.5,144.667 49.5,144.333 48.5,144C 52.0945,143.878 53.7612,142.044 53.5,138.5 Z"/></g>
<g><path style="opacity:1" fill="#9caff1" d="M 18.5,145.5 C 17.6554,144.329 16.9887,142.995 16.5,141.5C 17.2679,140.737 17.7679,139.737 18,138.5C 18.3333,139.5 18.6667,140.5 19,141.5C 21.3303,138.818 21.8303,139.151 20.5,142.5C 21.376,143.251 22.376,143.751 23.5,144C 21.7525,144.352 20.0858,144.852 18.5,145.5 Z"/></g>
<g><path style="opacity:1" fill="#96abf1" d="M 64.5,142.5 C 65.5,142.5 66.5,142.5 67.5,142.5C 67.313,144.564 66.813,146.564 66,148.5C 65.6667,147.5 65.3333,146.5 65,145.5C 61.7927,148.15 61.2927,147.984 63.5,145C 62.5,144.667 61.5,144.333 60.5,144C 62.0581,143.79 63.3915,143.29 64.5,142.5 Z"/></g>
<g><path style="opacity:1" fill="#a6b6f1" d="M 159.5,137.5 C 159.5,141.167 159.5,144.833 159.5,148.5C 162.365,148.945 164.865,148.278 167,146.5C 167.492,147.549 167.326,148.549 166.5,149.5C 163.232,150.487 159.898,150.82 156.5,150.5C 157.056,145.842 157.723,141.175 158.5,136.5C 159.107,136.624 159.44,136.957 159.5,137.5 Z"/></g>
<g><path style="opacity:1" fill="#a6b6f1" d="M 179.5,146.5 C 179.443,147.609 179.11,148.609 178.5,149.5C 175.313,150.806 171.98,150.806 168.5,149.5C 169.809,145.302 169.809,141.136 168.5,137C 169.833,136.333 171.167,136.333 172.5,137C 171.54,140.73 171.207,144.563 171.5,148.5C 174.513,148.893 177.18,148.226 179.5,146.5 Z"/></g>
<g><path style="opacity:1" fill="#9baef0" d="M 180.5,137.5 C 181.601,136.402 182.934,136.235 184.5,137C 183.54,140.73 183.207,144.563 183.5,148.5C 186.482,148.896 189.149,148.229 191.5,146.5C 192.487,143.232 192.82,139.898 192.5,136.5C 193.873,136.343 195.207,136.51 196.5,137C 195.54,140.73 195.207,144.563 195.5,148.5C 197.5,148.5 199.5,148.5 201.5,148.5C 201.737,149.791 201.404,150.791 200.5,151.5C 197.437,150.799 194.27,150.132 191,149.5C 187.606,150.456 184.106,150.789 180.5,150.5C 181.736,146.035 181.736,141.701 180.5,137.5 Z"/></g>
<g><path style="opacity:1" fill="#6d8bf0" d="M 141.5,147.5 C 143.549,147.706 143.883,148.539 142.5,150C 141.167,150.667 139.833,150.667 138.5,150C 140.119,149.764 141.119,148.931 141.5,147.5 Z"/></g>
<g><path style="opacity:1" fill="#92a7f1" d="M 147.5,142.5 C 147.5,144.5 147.5,146.5 147.5,148.5C 149.95,148.702 152.283,148.369 154.5,147.5C 155.625,148.348 155.625,149.348 154.5,150.5C 151.102,150.82 147.768,150.487 144.5,149.5C 145.348,147.591 145.682,145.591 145.5,143.5C 146.167,143.167 146.833,142.833 147.5,142.5 Z"/></g>
<g><path style="opacity:1" fill="#c4cff2" d="M 72.5,160.5 C 73.6009,159.402 74.9343,159.235 76.5,160C 75.5363,164.066 75.203,168.233 75.5,172.5C 78.2518,172.422 80.9184,172.255 83.5,172C 80.0283,173.58 76.3616,173.913 72.5,173C 73.822,168.733 73.822,164.566 72.5,160.5 Z"/></g>
<g><path style="opacity:1" fill="#c3cdf2" d="M 143.5,160.5 C 144.946,159.387 146.613,159.22 148.5,160C 147.536,164.066 147.203,168.233 147.5,172.5C 150.365,172.945 152.865,172.278 155,170.5C 155.617,171.449 155.451,172.282 154.5,173C 151.167,173.667 147.833,173.667 144.5,173C 145.134,170.925 145.468,168.759 145.5,166.5C 145.461,164.048 144.794,162.048 143.5,160.5 Z"/></g>
<g><path style="opacity:1" fill="#c4cef2" d="M 155.5,160.5 C 156.946,159.387 158.613,159.22 160.5,160C 159.536,164.066 159.203,168.233 159.5,172.5C 162.365,172.945 164.865,172.278 167,170.5C 167.617,171.449 167.451,172.282 166.5,173C 163.167,173.667 159.833,173.667 156.5,173C 157.134,170.925 157.468,168.759 157.5,166.5C 157.461,164.048 156.794,162.048 155.5,160.5 Z"/></g>
<g><path style="opacity:1" fill="#c4cef2" d="M 178.5,170.5 C 179.338,170.842 179.672,171.508 179.5,172.5C 175.922,173.589 172.255,173.755 168.5,173C 169.134,170.925 169.468,168.759 169.5,166.5C 169.41,164.036 168.743,161.87 167.5,160C 169.167,159.333 170.833,159.333 172.5,160C 171.536,164.066 171.203,168.233 171.5,172.5C 173.527,172.662 175.527,172.495 177.5,172C 178.056,171.617 178.389,171.117 178.5,170.5 Z"/></g>
<g><path style="opacity:1" fill="#c1cdf2" d="M 187.5,172.5 C 187.5,173.167 187.167,173.5 186.5,173.5C 184.5,173.5 182.5,173.5 180.5,173.5C 181.791,169.399 181.791,165.399 180.5,161.5C 180.389,160.883 180.056,160.383 179.5,160C 181.167,159.333 182.833,159.333 184.5,160C 183.536,164.066 183.203,168.233 183.5,172.5C 184.833,172.5 186.167,172.5 187.5,172.5 Z"/></g>
<g><path style="opacity:1" fill="#a7beee" d="M 196.5,159.5 C 195.525,161.795 194.192,163.795 192.5,165.5C 192.739,163.533 192.406,161.699 191.5,160C 193.134,159.506 194.801,159.34 196.5,159.5 Z"/></g>
<g><path style="opacity:1" fill="#c4cef2" d="M 132.5,160.5 C 133.601,159.402 134.934,159.235 136.5,160C 135.536,164.066 135.203,168.233 135.5,172.5C 138.365,172.945 140.865,172.278 143,170.5C 143.617,171.449 143.451,172.282 142.5,173C 139.167,173.667 135.833,173.667 132.5,173C 133.822,168.733 133.822,164.566 132.5,160.5 Z"/></g>
<g><path style="opacity:1" fill="#6584ef" d="M 180.5,161.5 C 181.791,165.399 181.791,169.399 180.5,173.5C 179.833,173.5 179.5,173.167 179.5,172.5C 179.672,171.508 179.338,170.842 178.5,170.5C 180.242,167.855 180.909,164.855 180.5,161.5 Z"/></g>
<g><path style="opacity:1" fill="#b5c7f0" d="M 31.5,169.5 C 30.0256,168.564 29.0256,167.23 28.5,165.5C 29.29,164.391 29.79,163.058 30,161.5C 29.8333,165.333 31.6667,167.167 35.5,167C 33.563,167.122 32.2297,167.955 31.5,169.5 Z"/></g>
<g><path style="opacity:1" fill="#c1cbf2" d="M 41.5,161.5 C 42.29,162.609 42.79,163.942 43,165.5C 44.0674,166.191 45.2341,166.691 46.5,167C 43.2712,167.356 41.7712,169.19 42,172.5C 41.8353,169.007 40.002,167.174 36.5,167C 40.4592,167.209 42.1258,165.375 41.5,161.5 Z"/></g>
<g><path style="opacity:1" fill="#c2cdf2" d="M 84.5,160.5 C 85.6009,159.402 86.9343,159.235 88.5,160C 87.5363,164.066 87.203,168.233 87.5,172.5C 90.2518,172.422 92.9184,172.255 95.5,172C 92.0283,173.58 88.3616,173.913 84.5,173C 85.822,168.733 85.822,164.566 84.5,160.5 Z"/></g>
<g><path style="opacity:1" fill="#a6b5f2" d="M 49.5,162.5 C 50.7942,163.29 51.9609,164.29 53,165.5C 53.3333,164.5 53.6667,163.5 54,162.5C 54.3563,165.729 56.1897,167.229 59.5,167C 58.1667,167.333 56.8333,167.667 55.5,168C 58.1502,171.207 57.9835,171.707 55,169.5C 54.6667,170.5 54.3333,171.5 54,172.5C 53.8262,168.998 51.9929,167.165 48.5,167C 49.5,166.667 50.5,166.333 51.5,166C 50.1772,165.184 49.5106,164.017 49.5,162.5 Z"/></g>
<g><path style="opacity:1" fill="#a8b6f2" d="M 61.5,162.5 C 62.7942,163.29 63.9609,164.29 65,165.5C 65.3333,164.5 65.6667,163.5 66,162.5C 66.3563,165.729 68.1897,167.229 71.5,167C 70.1667,167.333 68.8333,167.667 67.5,168C 70.1502,171.207 69.9835,171.707 67,169.5C 66.6667,170.5 66.3333,171.5 66,172.5C 65.8262,168.998 63.9929,167.165 60.5,167C 61.5,166.667 62.5,166.333 63.5,166C 62.1772,165.184 61.5106,164.017 61.5,162.5 Z"/></g>
<g><path style="opacity:1" fill="#bec9f2" d="M 120.5,160.5 C 121.601,159.402 122.934,159.235 124.5,160C 123.536,164.066 123.203,168.233 123.5,172.5C 126.365,172.945 128.865,172.278 131,170.5C 131.617,171.449 131.451,172.282 130.5,173C 127.167,173.667 123.833,173.667 120.5,173C 121.822,168.733 121.822,164.566 120.5,160.5 Z"/></g>
<g><path style="opacity:1" fill="#bdc8f2" d="M 102.5,172.5 C 102.5,172.833 102.5,173.167 102.5,173.5C 100.473,173.662 98.4727,173.495 96.5,173C 97.8333,168.667 97.8333,164.333 96.5,160C 97.8333,159.333 99.1667,159.333 100.5,160C 99.5363,164.066 99.203,168.233 99.5,172.5C 100.5,172.5 101.5,172.5 102.5,172.5 Z"/></g>
<g><path style="opacity:0.093" fill="#ebfcf8" d="M 6.5,150.5 C 14.9475,170.293 27.6142,186.959 44.5,200.5C 26.1663,188.163 13.4996,171.496 6.5,150.5 Z"/></g>
<g><path style="opacity:1" fill="#98abf0" d="M 52.5,190.5 C 51.1283,189.488 49.795,188.488 48.5,187.5C 49.7053,186.328 49.7053,184.995 48.5,183.5C 50.1667,182.167 51.8333,182.167 53.5,183.5C 52.6258,185.747 52.2924,188.08 52.5,190.5 Z"/></g>
<g><path style="opacity:1" fill="#a8b6f1" d="M 64.5,195.5 C 64.1583,196.338 63.4916,196.672 62.5,196.5C 61.5084,196.672 60.8417,196.338 60.5,195.5C 61.7963,191.631 61.7963,187.631 60.5,183.5C 62.1667,182.167 63.8333,182.167 65.5,183.5C 64.5672,187.429 64.2338,191.429 64.5,195.5 Z"/></g>
<g><path style="opacity:1" fill="#b1bdf2" d="M 76.5,195.5 C 75.5,196.833 74.5,196.833 73.5,195.5C 73.7935,191.563 73.4601,187.73 72.5,184C 73.7932,183.51 75.1266,183.343 76.5,183.5C 76.5,187.5 76.5,191.5 76.5,195.5 Z"/></g>
<g><path style="opacity:1" fill="#c2cdf2" d="M 87.5,195.5 C 86.8333,196.833 86.1667,196.833 85.5,195.5C 85.7935,191.563 85.4601,187.73 84.5,184C 85.8333,183.333 87.1667,183.333 88.5,184C 87.5399,187.73 87.2065,191.563 87.5,195.5 Z"/></g>
<g><path style="opacity:1" fill="#c2cdf2" d="M 99.5,195.5 C 98.8333,196.833 98.1667,196.833 97.5,195.5C 97.7935,191.563 97.4601,187.73 96.5,184C 97.8333,183.333 99.1667,183.333 100.5,184C 99.5399,187.73 99.2065,191.563 99.5,195.5 Z"/></g>
<g><path style="opacity:1" fill="#c2cdf2" d="M 111.5,195.5 C 110.833,196.833 110.167,196.833 109.5,195.5C 109.793,191.563 109.46,187.73 108.5,184C 109.833,183.333 111.167,183.333 112.5,184C 111.54,187.73 111.207,191.563 111.5,195.5 Z"/></g>
<g><path style="opacity:1" fill="#c1ccf2" d="M 123.5,195.5 C 122.791,196.404 121.791,196.737 120.5,196.5C 121.803,192.333 121.803,188.166 120.5,184C 121.833,183.333 123.167,183.333 124.5,184C 123.54,187.73 123.207,191.563 123.5,195.5 Z"/></g>
<g><path style="opacity:1" fill="#c1ccf2" d="M 135.5,195.5 C 134.791,196.404 133.791,196.737 132.5,196.5C 133.803,192.333 133.803,188.166 132.5,184C 133.833,183.333 135.167,183.333 136.5,184C 135.54,187.73 135.207,191.563 135.5,195.5 Z"/></g>
<g><path style="opacity:1" fill="#c1ccf2" d="M 147.5,195.5 C 146.791,196.404 145.791,196.737 144.5,196.5C 145.803,192.333 145.803,188.166 144.5,184C 145.833,183.333 147.167,183.333 148.5,184C 147.54,187.73 147.207,191.563 147.5,195.5 Z"/></g>
<g><path style="opacity:1" fill="#b7c6f1" d="M 160.5,195.5 C 159.205,196.488 157.872,197.488 156.5,198.5C 157.69,193.621 157.69,188.787 156.5,184C 157.833,183.333 159.167,183.333 160.5,184C 159.179,187.934 159.179,191.767 160.5,195.5 Z"/></g>
<g><path style="opacity:1" fill="#b7c6f1" d="M 172.5,187.5 C 171.71,188.401 170.71,189.068 169.5,189.5C 169.739,187.533 169.406,185.699 168.5,184C 169.833,183.333 171.167,183.333 172.5,184C 171.209,185.292 171.209,186.458 172.5,187.5 Z"/></g>
<g><path style="opacity:1" fill="#718def" d="M 73.5,195.5 C 74.5,196.833 75.5,196.833 76.5,195.5C 79.1569,195.838 81.4902,195.171 83.5,193.5C 84.1818,194.243 84.8485,194.909 85.5,195.5C 86.1667,196.833 86.8333,196.833 87.5,195.5C 90.4822,195.896 93.1489,195.229 95.5,193.5C 96.1818,194.243 96.8485,194.909 97.5,195.5C 98.1667,196.833 98.8333,196.833 99.5,195.5C 102.482,195.896 105.149,195.229 107.5,193.5C 108.182,194.243 108.849,194.909 109.5,195.5C 110.167,196.833 110.833,196.833 111.5,195.5C 114.365,195.945 116.865,195.278 119,193.5C 119.684,194.784 119.517,195.951 118.5,197C 116.667,197.167 114.833,197.333 113,197.5C 99.4025,197.709 85.7358,197.376 72,196.5C 69.3927,197.123 66.8927,197.79 64.5,198.5C 63.5,198.167 62.8333,197.5 62.5,196.5C 63.4916,196.672 64.1583,196.338 64.5,195.5C 67.1569,195.838 69.4902,195.171 71.5,193.5C 72.1818,194.243 72.8485,194.909 73.5,195.5 Z"/></g>
<g><path style="opacity:1" fill="#7a93f0" d="M 120.5,196.5 C 121.791,196.737 122.791,196.404 123.5,195.5C 126.365,195.945 128.865,195.278 131,193.5C 131.684,194.784 131.517,195.951 130.5,197C 126.973,197.808 123.64,197.641 120.5,196.5 Z"/></g>
<g><path style="opacity:1" fill="#7a93f0" d="M 132.5,196.5 C 133.791,196.737 134.791,196.404 135.5,195.5C 138.365,195.945 140.865,195.278 143,193.5C 143.684,194.784 143.517,195.951 142.5,197C 138.973,197.808 135.64,197.641 132.5,196.5 Z"/></g>
<g><path style="opacity:1" fill="#7a93f0" d="M 144.5,196.5 C 145.791,196.737 146.791,196.404 147.5,195.5C 150.365,195.945 152.865,195.278 155,193.5C 155.684,194.784 155.517,195.951 154.5,197C 150.973,197.808 147.64,197.641 144.5,196.5 Z"/></g>
<g><path style="opacity:1" fill="#bec8f2" d="M 111.5,209.5 C 110.833,209.5 110.167,209.5 109.5,209.5C 109.586,208.504 109.252,207.671 108.5,207C 110.167,206.333 111.833,206.333 113.5,207C 112.244,207.417 111.577,208.25 111.5,209.5 Z"/></g>
<g><path style="opacity:0.08" fill="#f0fcf9" d="M 55.5,207.5 C 59.8178,208.992 63.8178,210.992 67.5,213.5C 62.9136,212.54 58.9136,210.54 55.5,207.5 Z"/></g>
<g><path style="opacity:0.804" fill="#d1f8ee" d="M 72.5,215.5 C 78.8107,216.386 84.8107,218.053 90.5,220.5C 84.142,219.747 78.142,218.08 72.5,215.5 Z"/></g>
<g><path style="opacity:0.035" fill="#effcf9" d="M 165.5,207.5 C 161.341,210.749 156.674,213.249 151.5,215C 144.473,217.512 137.473,219.679 130.5,221.5C 127.833,221.5 125.167,221.5 122.5,221.5C 137.389,218.871 151.722,214.204 165.5,207.5 Z"/></g>
</svg>
