<svg version="1.2" xmlns="http://www.w3.org/2000/svg" viewBox="0 0 150 150" width="150" height="150">
	<title>fa9a5918-5df8-4c17-a1c1-cf0beb4717d0</title>
	<defs>
		<clipPath clipPathUnits="userSpaceOnUse" id="cp1">
			<path d="m150 85.14v64.86h-64.86v-64.86z"/>
		</clipPath>
		<radialGradient id="g1" cx="0" cy="0" r="1" gradientUnits="userSpaceOnUse" gradientTransform="matrix(9.888,73.987,-73.987,9.888,113.217,79.257)">
			<stop offset="0" stop-color="#d9326f"/>
			<stop offset="1" stop-color="#3a34dd"/>
		</radialGradient>
		<radialGradient id="g2" cx="0" cy="0" r="1" gradientUnits="userSpaceOnUse" gradientTransform="matrix(4.746,89.595,-89.595,4.746,117.568,60.405)">
			<stop offset="0" stop-color="#fe4d8b"/>
			<stop offset="1" stop-color="#483ffc"/>
		</radialGradient>
		<radialGradient id="g3" cx="0" cy="0" r="1" gradientUnits="userSpaceOnUse" gradientTransform="matrix(0,42.162,-42.162,0,117.568,85.135)">
			<stop offset="0" stop-color="#628cbf"/>
			<stop offset="1" stop-color="#1d507d"/>
		</radialGradient>
	</defs>
	<style>
		.s0 { fill: #2775ca } 
		.s1 { fill: #ffffff } 
		.s2 { fill: none;stroke: #1be3c2;stroke-width: 8.1 } 
		.s3 { fill: url(#g1) } 
		.s4 { fill: url(#g2) } 
		.s5 { fill: url(#g3) } 
		.s6 { fill: #f9f9f9;stroke: #ffffff;stroke-width: 1.8 } 
	</style>
	<path fill-rule="evenodd" class="s0" d="m75 150c-41.5 0-75-33.5-75-75 0-41.5 33.5-75 75-75 41.5 0 75 33.5 75 75 0 41.5-33.5 75-75 75z"/>
	<path class="s1" d="m94.6 85.2c0-10.9-6.6-14.7-19.7-16.2-9.4-1.3-11.3-3.8-11.3-8.1 0-4.4 3.2-7.2 9.4-7.2 5.6 0 8.8 1.8 10.3 6.5 0.3 1 1.3 1.6 2.2 1.6h5c1.3 0 2.2-0.9 2.2-2.2v-0.3c-1.2-6.9-6.9-12.2-14.1-12.8v-7.5c0-1.3-0.9-2.2-2.5-2.5h-4.6c-1.3 0-2.2 0.9-2.5 2.5v7.2c-9.4 1.2-15.4 7.5-15.4 15.3 0 10.3 6.3 14.4 19.4 15.9 8.8 1.6 11.6 3.5 11.6 8.5 0 5-4.4 8.4-10.3 8.4-8.2 0-11-3.4-11.9-8.1-0.3-1.3-1.3-1.9-2.2-1.9h-5.3c-1.3 0-2.2 0.9-2.2 2.2v0.3c1.3 7.8 6.3 13.4 16.6 15v7.5c0 1.2 0.9 2.2 2.5 2.5h4.7c1.2 0 2.1-0.9 2.5-2.5v-7.5c9.3-1.6 15.6-8.1 15.6-16.6z"/>
	<path class="s1" d="m60.7 118.1c-24.3-8.8-36.8-36-27.8-60 4.7-13.1 15-23.1 27.8-27.8 1.3-0.7 1.9-1.6 1.9-3.2v-4.3c0-1.3-0.6-2.2-1.9-2.5-0.3 0-0.9 0-1.2 0.3-29.7 9.4-46 40.9-36.6 70.6 5.6 17.5 19.1 30.9 36.6 36.6 1.2 0.6 2.5 0 2.8-1.3 0.3-0.3 0.3-0.6 0.3-1.2v-4.4c0-0.9-0.9-2.2-1.9-2.8zm33.2-97.5c-1.3-0.6-2.5 0-2.9 1.2-0.3 0.3-0.3 0.7-0.3 1.3v4.4c0 1.2 1 2.5 1.9 3.1 24.4 8.7 36.9 35.9 27.8 60-4.7 13.1-15 23.1-27.8 27.8-1.2 0.6-1.9 1.6-1.9 3.1v4.4c0 1.2 0.7 2.2 1.9 2.5 0.3 0 0.9 0 1.3-0.3 29.6-9.4 45.9-41 36.5-70.6-5.6-17.9-19.4-31.3-36.5-36.9z"/>
	<path fill-rule="evenodd" class="s2" d="m75 145.9c-39.2 0-70.9-31.7-70.9-70.9 0-39.2 31.7-70.9 70.9-70.9 39.2 0 70.9 31.7 70.9 70.9 0 39.2-31.7 70.9-70.9 70.9z"/>
	<g id="Clip-Path" clip-path="url(#cp1)">
		<g>
			<path fill-rule="evenodd" class="s3" d="m117.6 150c-17.5 0-31.7-14.5-31.7-32.4 0-18 14.2-32.5 31.7-32.5 17.5 0 31.6 14.5 31.6 32.5 0 17.9-14.1 32.4-31.6 32.4z"/>
			<path fill-rule="evenodd" class="s4" d="m117.6 150c-17.5 0-31.7-14.5-31.7-32.4 0-18 14.2-32.5 31.7-32.5 17.5 0 31.6 14.5 31.6 32.5 0 17.9-14.1 32.4-31.6 32.4z"/>
			<path fill-rule="evenodd" class="s5" d="m117.6 150c-17.5 0-31.7-14.5-31.7-32.4 0-18 14.2-32.5 31.7-32.5 17.5 0 31.6 14.5 31.6 32.5 0 17.9-14.1 32.4-31.6 32.4z"/>
			<path fill-rule="evenodd" class="s6" d="m107.5 102.4c-0.2 0-0.4 0.2-0.4 0.4-0.1 0.3-0.1 4.2 0 4.4q0 0.2 0.3 0.4h0.1 12 0.2c0.1-0.1 0.2-0.2 0.3-0.4v-0.1-2.1c0-2.3 0-2.1-0.1-2.4 0-0.1-0.3-0.2-0.4-0.2-0.1 0-11.8 0-12 0zm-0.1 12.8c-0.1 0-0.3 0.2-0.3 0.4-0.1 0.2-0.1 16.9 0 17.1 0 0.2 0.1 0.3 0.3 0.4l0.1 0.1h21.2l0.1-0.1c0.4-0.2 0.4 0 0.4-2.6-0.1-2.5 0-2.3-0.4-2.5l-0.1-0.1h-8.3c-7.3 0-8.2 0-8.2 0-0.1-0.1-0.1-1.5-0.1-3.7v-3.7l0.1-0.1h0.1 6c5.5 0 5.9 0 6-0.1q0.2-0.1 0.2-0.3c0.1-0.2 0.1-4.3 0-4.5 0-0.1-0.1-0.2-0.2-0.3-0.1 0-16.7 0-16.9 0z"/>
		</g>
	</g>
</svg>