<svg width="150" height="150" viewBox="0 0 150 150" fill="none" xmlns="http://www.w3.org/2000/svg">
<g clip-path="url(#clip0_657_2)">
<path fill-rule="evenodd" clip-rule="evenodd" d="M75 148.5C34.3 148.5 1.5 115.7 1.5 75C1.5 34.3 34.3 1.5 75 1.5C115.7 1.5 148.5 34.3 148.5 75C148.5 115.7 115.7 148.5 75 148.5Z" fill="white"/>
<path d="M30.7 58.5C21.5 82.9 34.2 110.5 59 119.4C59.9 120 60.9 121.3 60.9 122.2V126.7C60.9 127.3 60.9 127.6 60.5 128C60.2 129.2 59 129.9 57.7 129.2C39.9 123.5 26.3 109.9 20.5 92.1C11 62 27.5 30 57.7 20.5C58 20.1 58.6 20.1 59 20.1C60.2 20.5 60.9 21.4 60.9 22.7V27.1C60.9 28.7 60.2 29.7 59 30.3C45.9 35 35.5 45.2 30.7 58.5Z" fill="url(#paint0_linear_657_2)"/>
<path d="M89.7 21.7C90.1 20.5 91.3 19.8 92.6 20.5C110.1 26.2 124 39.8 129.8 57.9C139.3 88 122.8 120 92.6 129.5C92.3 129.9 91.7 129.9 91.3 129.9C90.1 129.5 89.4 128.6 89.4 127.3V122.9C89.4 121.3 90.1 120.3 91.3 119.7C104.4 115 114.8 104.8 119.6 91.5C128.8 67.1 116.1 39.5 91.3 30.6C90.4 30 89.4 28.7 89.4 27.4V23C89.4 22.4 89.4 22 89.7 21.7Z" fill="url(#paint1_linear_657_2)"/>
<path fill-rule="evenodd" clip-rule="evenodd" d="M75 150C33.5 150 0 116.5 0 75C0 33.5 33.5 0 75 0C116.5 0 150 33.5 150 75C150 116.5 116.5 150 75 150ZM147.1 75C147.1 35.2 114.8 2.9 75 2.9C35.2 2.9 2.9 35.2 2.9 75C2.9 114.8 35.2 147.1 75 147.1C114.8 147.1 147.1 114.8 147.1 75Z" fill="url(#paint2_linear_657_2)"/>
<path d="M55.1 86.9L64.9 80.1C67.1 83.3 69.8 85.2 73 86V78.8C71.6 78.4 70.4667 78.0333 69.6 77.7C68.7333 77.4333 67.6667 77.0333 66.4 76.5C63.9 75.4 62.6 74.6 60.8 73.1C58.1 70.9 56.9 68.1 56.8 63.9C56.8 61.2333 57.5667 58.8333 59.1 56.7C60.5667 54.5667 62.5333 52.9 65 51.7C67.4667 50.5 70.1333 49.8 73 49.6V44.1H77.5V49.7C83.9667 50.4333 89.1667 53.8 93.1 59.8L83.7 66.3C82.1667 63.8333 80.1 62.2 77.5 61.4V68.4C81.8 69.6 84.7 70.7 87.7 72.4C89.2 73.3 90.4 74.2 91.4 75.2C93.2 77.2 94.4 80 94.4 83.3C94.4 87.6 92.3 91.3 89.1 93.6C85.9 96 81.8 97.4 77.5 97.7V103.1H73V97.6C65.1 96.9 58.8 93.1 55.1 86.9ZM80.1 85.1C81.4 84.1 81.4 82.5 80.3 81.6C79.7 81.1 78.8 80.7 77.5 80.2V86.2C78.6 86 79.5 85.6 80.1 85.1ZM73 66.9V61C71.2 61.4 70.1 62.4 70.1 63.8C70.1 65 71.0667 66.0333 73 66.9Z" fill="url(#paint3_linear_657_2)"/>
</g>
<defs>
<linearGradient id="paint0_linear_657_2" x1="156.618" y1="-11.181" x2="84.3002" y2="136.152" gradientUnits="userSpaceOnUse">
<stop stop-color="#FFE47C"/>
<stop offset="0.526" stop-color="#FF43C3"/>
<stop offset="1" stop-color="#4156E0"/>
</linearGradient>
<linearGradient id="paint1_linear_657_2" x1="156.618" y1="-11.181" x2="84.3005" y2="136.152" gradientUnits="userSpaceOnUse">
<stop stop-color="#FFE47C"/>
<stop offset="0.526" stop-color="#FF43C3"/>
<stop offset="1" stop-color="#4156E0"/>
</linearGradient>
<linearGradient id="paint2_linear_657_2" x1="156.618" y1="-11.181" x2="84.3" y2="136.151" gradientUnits="userSpaceOnUse">
<stop stop-color="#FFE47C"/>
<stop offset="0.526" stop-color="#FF43C3"/>
<stop offset="1" stop-color="#4156E0"/>
</linearGradient>
<linearGradient id="paint3_linear_657_2" x1="95.376" y1="41.072" x2="56.0413" y2="89.5113" gradientUnits="userSpaceOnUse">
<stop stop-color="#FFE47C"/>
<stop offset="0.526" stop-color="#FF43C3"/>
<stop offset="1" stop-color="#4156E0"/>
</linearGradient>
<clipPath id="clip0_657_2">
<rect width="150" height="150" fill="white"/>
</clipPath>
</defs>
</svg>
