<svg width="37" height="37" viewBox="0 0 37 37" fill="none" xmlns="http://www.w3.org/2000/svg">
<g clip-path="url(#clip0_871_143)">
<mask id="mask0_871_143" style="mask-type:luminance" maskUnits="userSpaceOnUse" x="0" y="0" width="36" height="36">
<path d="M35.5 0.5H0.5V35.5H35.5V0.5Z" fill="white"/>
</mask>
<g mask="url(#mask0_871_143)">
<mask id="mask1_871_143" style="mask-type:luminance" maskUnits="userSpaceOnUse" x="0" y="0" width="36" height="36">
<path d="M35.5 18C35.5 8.33502 27.665 0.5 18 0.5C8.33502 0.5 0.5 8.33502 0.5 18C0.5 27.665 8.33502 35.5 18 35.5C27.665 35.5 35.5 27.665 35.5 18Z" fill="white"/>
</mask>
<g mask="url(#mask1_871_143)">
<path d="M35.5 18C35.5 8.33502 27.665 0.5 18 0.5C8.33502 0.5 0.5 8.33502 0.5 18C0.5 27.665 8.33502 35.5 18 35.5C27.665 35.5 35.5 27.665 35.5 18Z" fill="#FF2E00"/>
<g opacity="0.8">
<path d="M12.7346 9.17593V8.98056H12.93V8.78516H13.1254V8.98056H13.3208V9.17593H13.1254V9.3713H12.93V9.17593H12.7346Z" fill="#F3F3F3"/>
<path d="M14.7261 9.17593V8.98056H14.9214V8.78516H15.1168V8.98056H15.3122V9.17593H15.1168V9.3713H14.9214V9.17593H14.7261Z" fill="#F3F3F3"/>
<path d="M16.7173 9.17628V8.98091H16.9127V8.7855H17.108V8.98091H17.3034V9.17628H17.108V9.37165H16.9127V9.17628H16.7173ZM16.7173 8.00402V7.80865H16.9127V7.61328H17.108V7.80865H17.3034V8.00402H17.108V8.19939H16.9127V8.00402H16.7173Z" fill="#F3F3F3"/>
<path d="M18.7085 9.17628V8.98091H18.9039V8.7855H19.0993V8.98091H19.2946V9.17628H19.0993V9.37165H18.9039V9.17628H18.7085ZM18.7085 8.00402V7.80865H18.9039V7.61328H19.0993V7.80865H19.2946V8.00402H19.0993V8.19939H18.9039V8.00402H18.7085Z" fill="#F3F3F3"/>
<path d="M21.6768 8.97999H21.4814V8.78458H21.6768V8.97999ZM21.6768 7.61236V7.80773H21.4814V7.61236H21.6768ZM20.3091 8.97999V8.78458H20.5045V8.97999H20.3091ZM20.3091 7.80773V7.61236H20.5045V7.80773H20.3091ZM20.6999 8.58921V8.39384H20.1138V8.19847H20.6999V8.0031H20.8953V7.41699H21.0907V8.0031H21.286V8.19847H21.8721V8.39384H21.286V8.58921H21.0907V9.17536H20.8953V8.58921H20.6999ZM20.6999 8.78458H20.5045V8.58921H20.6999V8.78458ZM20.6999 8.0031H20.5045V7.80773H20.6999V8.0031ZM21.4814 8.58921V8.78458H21.286V8.58921H21.4814ZM21.4814 8.0031H21.286V7.80773H21.4814V8.0031Z" fill="#F3F3F3"/>
<path d="M23.668 8.97999H23.4726V8.78458H23.668V8.97999ZM23.668 7.61236V7.80773H23.4726V7.61236H23.668ZM22.3004 8.97999V8.78458H22.4957V8.97999H22.3004ZM22.3004 7.80773V7.61236H22.4957V7.80773H22.3004ZM22.6911 8.58921V8.39384H22.105V8.19847H22.6911V8.0031H22.8865V7.41699H23.0819V8.0031H23.2772V8.19847H23.8633V8.39384H23.2772V8.58921H23.0819V9.17536H22.8865V8.58921H22.6911ZM22.6911 8.78458H22.4957V8.58921H22.6911V8.78458ZM22.6911 8.0031H22.4957V7.80773H22.6911V8.0031ZM23.4726 8.58921V8.78458H23.2772V8.58921H23.4726ZM23.4726 8.0031H23.2772V7.80773H23.4726V8.0031Z" fill="#F3F3F3"/>
<path d="M25.6592 8.97999H25.4638V8.78458H25.6592V8.97999ZM25.6592 7.61236V7.80773H25.4638V7.61236H25.6592ZM24.2916 8.97999V8.78458H24.487V8.97999H24.2916ZM24.2916 7.80773V7.61236H24.487V7.80773H24.2916ZM24.6823 8.58921V8.39384H24.0962V8.19847H24.6823V8.0031H24.8777V7.41699H25.0731V8.0031H25.2685V8.19847H25.8546V8.39384H25.2685V8.58921H25.0731V9.17536H24.8777V8.58921H24.6823ZM24.6823 8.78458H24.487V8.58921H24.6823V8.78458ZM24.6823 8.0031H24.487V7.80773H24.6823V8.0031ZM25.4638 8.58921V8.78458H25.2685V8.58921H25.4638ZM25.4638 8.0031H25.2685V7.80773H25.4638V8.0031Z" fill="#F3F3F3"/>
<path d="M27.6506 8.97999H27.4553V8.78458H27.6506V8.97999ZM27.6506 7.61236V7.80773H27.4553V7.61236H27.6506ZM26.283 8.97999V8.78458H26.4784V8.97999H26.283ZM26.283 7.80773V7.61236H26.4784V7.80773H26.283ZM26.6738 8.58921V8.39384H26.0876V8.19847H26.6738V8.0031H26.8691V7.41699H27.0645V8.0031H27.2599V8.19847H27.846V8.39384H27.2599V8.58921H27.0645V9.17536H26.8691V8.58921H26.6738ZM26.6738 8.78458H26.4784V8.58921H26.6738V8.78458ZM26.6738 8.0031H26.4784V7.80773H26.6738V8.0031ZM27.4553 8.58921V8.78458H27.2599V8.58921H27.4553ZM27.4553 8.0031H27.2599V7.80773H27.4553V8.0031Z" fill="#F3F3F3"/>
<path d="M29.6421 8.97999H29.4467V8.78458H29.6421V8.97999ZM29.6421 7.61236V7.80773H29.4467V7.61236H29.6421ZM28.2745 8.97999V8.78458H28.4698V8.97999H28.2745ZM28.2745 7.80773V7.61236H28.4698V7.80773H28.2745ZM28.6652 8.58921V8.39384H28.0791V8.19847H28.6652V8.0031H28.8606V7.41699H29.0559V8.0031H29.2513V8.19847H29.8374V8.39384H29.2513V8.58921H29.0559V9.17536H28.8606V8.58921H28.6652ZM28.6652 8.78458H28.4698V8.58921H28.6652V8.78458ZM28.6652 8.0031H28.4698V7.80773H28.6652V8.0031ZM29.4467 8.58921V8.78458H29.2513V8.58921H29.4467ZM29.4467 8.0031H29.2513V7.80773H29.4467V8.0031Z" fill="#F3F3F3"/>
<path d="M31.6333 8.97999H31.4379V8.78458H31.6333V8.97999ZM31.6333 7.61236V7.80773H31.4379V7.61236H31.6333ZM30.2657 8.97999V8.78458H30.4611V8.97999H30.2657ZM30.2657 7.80773V7.61236H30.4611V7.80773H30.2657ZM30.6564 8.58921V8.39384H30.0703V8.19847H30.6564V8.0031H30.8518V7.41699H31.0472V8.0031H31.2425V8.19847H31.8287V8.39384H31.2425V8.58921H31.0472V9.17536H30.8518V8.58921H30.6564ZM30.6564 8.78458H30.4611V8.58921H30.6564V8.78458ZM30.6564 8.0031H30.4611V7.80773H30.6564V8.0031ZM31.4379 8.58921V8.78458H31.2425V8.58921H31.4379ZM31.4379 8.0031H31.2425V7.80773H31.4379V8.0031Z" fill="#F3F3F3"/>
<path d="M33.6245 8.97999H33.4291V8.78458H33.6245V8.97999ZM33.6245 7.61236V7.80773H33.4291V7.61236H33.6245ZM32.2569 8.97999V8.78458H32.4523V8.97999H32.2569ZM32.2569 7.80773V7.61236H32.4523V7.80773H32.2569ZM32.6477 8.58921V8.39384H32.0615V8.19847H32.6477V8.0031H32.843V7.41699H33.0384V8.0031H33.2338V8.19847H33.8199V8.39384H33.2338V8.58921H33.0384V9.17536H32.843V8.58921H32.6477ZM32.6477 8.78458H32.4523V8.58921H32.6477V8.78458ZM32.6477 8.0031H32.4523V7.80773H32.6477V8.0031ZM33.4291 8.58921V8.78458H33.2338V8.58921H33.4291ZM33.4291 8.0031H33.2338V7.80773H33.4291V8.0031Z" fill="#F3F3F3"/>
<path d="M4.76953 13.0836V12.8882H4.9649V12.6929H5.16027V12.8882H5.35568V13.0836H5.16027V13.279H4.9649V13.0836H4.76953Z" fill="#F3F3F3"/>
<path d="M6.76074 13.0835V12.8881H6.95611V12.6928H7.15148V12.8881H7.34685V13.0835H7.15148V13.2789H6.95611V13.0835H6.76074ZM6.76074 11.9112V11.7159H6.95611V11.5205H7.15148V11.7159H7.34685V11.9112H7.15148V12.1066H6.95611V11.9112H6.76074Z" fill="#F3F3F3"/>
<path d="M8.7522 13.0835V12.8881H8.94757V12.6928H9.14294V12.8881H9.33831V13.0835H9.14294V13.2789H8.94757V13.0835H8.7522ZM8.7522 11.9112V11.7159H8.94757V11.5205H9.14294V11.7159H9.33831V11.9112H9.14294V12.1066H8.94757V11.9112H8.7522Z" fill="#F3F3F3"/>
<path d="M11.7202 12.8877H11.5248V12.6923H11.7202V12.8877ZM11.7202 11.5201V11.7154H11.5248V11.5201H11.7202ZM10.3526 12.8877V12.6923H10.548V12.8877H10.3526ZM10.3526 11.7154V11.5201H10.548V11.7154H10.3526ZM10.7434 12.4969V12.3016H10.1572V12.1062H10.7434V11.9108H10.9387V11.3247H11.1341V11.9108H11.3295V12.1062H11.9156V12.3016H11.3295V12.4969H11.1341V13.0831H10.9387V12.4969H10.7434ZM10.7434 12.6923H10.548V12.4969H10.7434V12.6923ZM10.7434 11.9108H10.548V11.7154H10.7434V11.9108ZM11.5248 12.4969V12.6923H11.3295V12.4969H11.5248ZM11.5248 11.9108H11.3295V11.7154H11.5248V11.9108Z" fill="#F3F3F3"/>
<path d="M13.7117 12.8877H13.5163V12.6923H13.7117V12.8877ZM13.7117 11.5201V11.7154H13.5163V11.5201H13.7117ZM12.344 12.8877V12.6923H12.5394V12.8877H12.344ZM12.344 11.7154V11.5201H12.5394V11.7154H12.344ZM12.7348 12.4969V12.3016H12.1487V12.1062H12.7348V11.9108H12.9302V11.3247H13.1255V11.9108H13.3209V12.1062H13.907V12.3016H13.3209V12.4969H13.1255V13.0831H12.9302V12.4969H12.7348ZM12.7348 12.6923H12.5394V12.4969H12.7348V12.6923ZM12.7348 11.9108H12.5394V11.7154H12.7348V11.9108ZM13.5163 12.4969V12.6923H13.3209V12.4969H13.5163ZM13.5163 11.9108H13.3209V11.7154H13.5163V11.9108Z" fill="#F3F3F3"/>
<path d="M15.7029 12.8877H15.5075V12.6923H15.7029V12.8877ZM15.7029 11.5201V11.7154H15.5075V11.5201H15.7029ZM14.3353 12.8877V12.6923H14.5307V12.8877H14.3353ZM14.3353 11.7154V11.5201H14.5307V11.7154H14.3353ZM14.726 12.4969V12.3016H14.1399V12.1062H14.726V11.9108H14.9214V11.3247H15.1168V11.9108H15.3121V12.1062H15.8983V12.3016H15.3121V12.4969H15.1168V13.0831H14.9214V12.4969H14.726ZM14.726 12.6923H14.5307V12.4969H14.726V12.6923ZM14.726 11.9108H14.5307V11.7154H14.726V11.9108ZM15.5075 12.4969V12.6923H15.3121V12.4969H15.5075ZM15.5075 11.9108H15.3121V11.7154H15.5075V11.9108Z" fill="#F3F3F3"/>
<path d="M17.6941 12.8877H17.4987V12.6923H17.6941V12.8877ZM17.6941 11.5201V11.7154H17.4987V11.5201H17.6941ZM16.3265 12.8877V12.6923H16.5219V12.8877H16.3265ZM16.3265 11.7154V11.5201H16.5219V11.7154H16.3265ZM16.7173 12.4969V12.3016H16.1311V12.1062H16.7173V11.9108H16.9126V11.3247H17.108V11.9108H17.3034V12.1062H17.8895V12.3016H17.3034V12.4969H17.108V13.0831H16.9126V12.4969H16.7173ZM16.7173 12.6923H16.5219V12.4969H16.7173V12.6923ZM16.7173 11.9108H16.5219V11.7154H16.7173V11.9108ZM17.4987 12.4969V12.6923H17.3034V12.4969H17.4987ZM17.4987 11.9108H17.3034V11.7154H17.4987V11.9108Z" fill="#F3F3F3"/>
<path d="M19.6856 12.8877H19.4902V12.6923H19.6856V12.8877ZM19.6856 11.5201V11.7154H19.4902V11.5201H19.6856ZM18.3179 12.8877V12.6923H18.5133V12.8877H18.3179ZM18.3179 11.7154V11.5201H18.5133V11.7154H18.3179ZM18.7087 12.4969V12.3016H18.1226V12.1062H18.7087V11.9108H18.9041V11.3247H19.0994V11.9108H19.2948V12.1062H19.8809V12.3016H19.2948V12.4969H19.0994V13.0831H18.9041V12.4969H18.7087ZM18.7087 12.6923H18.5133V12.4969H18.7087V12.6923ZM18.7087 11.9108H18.5133V11.7154H18.7087V11.9108ZM19.4902 12.4969V12.6923H19.2948V12.4969H19.4902ZM19.4902 11.9108H19.2948V11.7154H19.4902V11.9108Z" fill="#F3F3F3"/>
<path d="M21.6768 12.8877H21.4814V12.6923H21.6768V12.8877ZM21.6768 11.5201V11.7154H21.4814V11.5201H21.6768ZM20.3091 12.8877V12.6923H20.5045V12.8877H20.3091ZM20.3091 11.7154V11.5201H20.5045V11.7154H20.3091ZM20.6999 12.4969V12.3016H20.1138V12.1062H20.6999V11.9108H20.8953V11.3247H21.0907V11.9108H21.286V12.1062H21.8721V12.3016H21.286V12.4969H21.0907V13.0831H20.8953V12.4969H20.6999ZM20.6999 12.6923H20.5045V12.4969H20.6999V12.6923ZM20.6999 11.9108H20.5045V11.7154H20.6999V11.9108ZM21.4814 12.4969V12.6923H21.286V12.4969H21.4814ZM21.4814 11.9108H21.286V11.7154H21.4814V11.9108Z" fill="#F3F3F3"/>
<path d="M23.668 12.8877H23.4726V12.6923H23.668V12.8877ZM23.668 11.5201V11.7154H23.4726V11.5201H23.668ZM22.3004 12.8877V12.6923H22.4957V12.8877H22.3004ZM22.3004 11.7154V11.5201H22.4957V11.7154H22.3004ZM22.6911 12.4969V12.3016H22.105V12.1062H22.6911V11.9108H22.8865V11.3247H23.0819V11.9108H23.2772V12.1062H23.8633V12.3016H23.2772V12.4969H23.0819V13.0831H22.8865V12.4969H22.6911ZM22.6911 12.6923H22.4957V12.4969H22.6911V12.6923ZM22.6911 11.9108H22.4957V11.7154H22.6911V11.9108ZM23.4726 12.4969V12.6923H23.2772V12.4969H23.4726ZM23.4726 11.9108H23.2772V11.7154H23.4726V11.9108Z" fill="#F3F3F3"/>
<path d="M25.6592 12.8877H25.4638V12.6923H25.6592V12.8877ZM25.6592 11.5201V11.7154H25.4638V11.5201H25.6592ZM24.2916 12.8877V12.6923H24.487V12.8877H24.2916ZM24.2916 11.7154V11.5201H24.487V11.7154H24.2916ZM24.6823 12.4969V12.3016H24.0962V12.1062H24.6823V11.9108H24.8777V11.3247H25.0731V11.9108H25.2685V12.1062H25.8546V12.3016H25.2685V12.4969H25.0731V13.0831H24.8777V12.4969H24.6823ZM24.6823 12.6923H24.487V12.4969H24.6823V12.6923ZM24.6823 11.9108H24.487V11.7154H24.6823V11.9108ZM25.4638 12.4969V12.6923H25.2685V12.4969H25.4638ZM25.4638 11.9108H25.2685V11.7154H25.4638V11.9108Z" fill="#F3F3F3"/>
<path d="M27.6506 12.8877H27.4553V12.6923H27.6506V12.8877ZM27.6506 11.5201V11.7154H27.4553V11.5201H27.6506ZM26.283 12.8877V12.6923H26.4784V12.8877H26.283ZM26.283 11.7154V11.5201H26.4784V11.7154H26.283ZM26.6738 12.4969V12.3016H26.0876V12.1062H26.6738V11.9108H26.8691V11.3247H27.0645V11.9108H27.2599V12.1062H27.846V12.3016H27.2599V12.4969H27.0645V13.0831H26.8691V12.4969H26.6738ZM26.6738 12.6923H26.4784V12.4969H26.6738V12.6923ZM26.6738 11.9108H26.4784V11.7154H26.6738V11.9108ZM27.4553 12.4969V12.6923H27.2599V12.4969H27.4553ZM27.4553 11.9108H27.2599V11.7154H27.4553V11.9108Z" fill="#F3F3F3"/>
<path d="M28.0791 11.1295V10.9341H28.8606V11.1295H28.6652V13.0832H29.6421V12.8878H29.8374V12.6924H30.0328V13.0832H29.8374V13.2786H28.0791V13.0832H28.2745V11.1295H28.0791Z" fill="#F3F3F3"/>
<path d="M30.0703 11.1295V10.9341H30.8518V11.1295H30.6564V13.0832H31.6333V12.8878H31.8287V12.6924H32.024V13.0832H31.8287V13.2786H30.0703V13.0832H30.2657V11.1295H30.0703Z" fill="#F3F3F3"/>
<path d="M32.0615 11.1295V10.9341H32.843V11.1295H32.6477V13.0832H33.6245V12.8878H33.8199V12.6924H34.0153V13.0832H33.8199V13.2786H32.0615V13.0832H32.2569V11.1295H32.0615Z" fill="#F3F3F3"/>
<path d="M34.0527 11.1295V10.9341H34.8342V11.1295H34.6389V13.0832H35.6158V12.8878H35.8111V12.6924H36.0064V13.0832H35.8111V13.2786H34.0527V13.0832H34.2481V11.1295H34.0527Z" fill="#F3F3F3"/>
<path d="M0.787109 16.9902V16.7949H0.982483V16.5995H1.17786V16.7949H1.37323V16.9902H1.17786V17.1856H0.982483V16.9902H0.787109ZM0.787109 15.818V15.6226H0.982483V15.4272H1.17786V15.6226H1.37323V15.818H1.17786V16.0134H0.982483V15.818H0.787109Z" fill="#F3F3F3"/>
<path d="M3.75513 16.7954H3.55976V16.6H3.75513V16.7954ZM3.75513 15.4278V15.6232H3.55976V15.4278H3.75513ZM2.38751 16.7954V16.6H2.58289V16.7954H2.38751ZM2.38751 15.6232V15.4278H2.58289V15.6232H2.38751ZM2.77826 16.4047V16.2093H2.19214V16.0139H2.77826V15.8185H2.97363V15.2324H3.16901V15.8185H3.36438V16.0139H3.9505V16.2093H3.36438V16.4047H3.16901V16.9908H2.97363V16.4047H2.77826ZM2.77826 16.6H2.58289V16.4047H2.77826V16.6ZM2.77826 15.8185H2.58289V15.6232H2.77826V15.8185ZM3.55976 16.4047V16.6H3.36438V16.4047H3.55976ZM3.55976 15.8185H3.36438V15.6232H3.55976V15.8185Z" fill="#F3F3F3"/>
<path d="M5.74635 16.7954H5.55098V16.6H5.74635V16.7954ZM5.74635 15.4278V15.6232H5.55098V15.4278H5.74635ZM4.37872 16.7954V16.6H4.57409V16.7954H4.37872ZM4.37872 15.6232V15.4278H4.57409V15.6232H4.37872ZM4.76946 16.4047V16.2093H4.18335V16.0139H4.76946V15.8185H4.96483V15.2324H5.1602V15.8185H5.35561V16.0139H5.94172V16.2093H5.35561V16.4047H5.1602V16.9908H4.96483V16.4047H4.76946ZM4.76946 16.6H4.57409V16.4047H4.76946V16.6ZM4.76946 15.8185H4.57409V15.6232H4.76946V15.8185ZM5.55098 16.4047V16.6H5.35561V16.4047H5.55098ZM5.55098 15.8185H5.35561V15.6232H5.55098V15.8185Z" fill="#F3F3F3"/>
<path d="M7.7378 16.7954H7.54243V16.6H7.7378V16.7954ZM7.7378 15.4278V15.6232H7.54243V15.4278H7.7378ZM6.37017 16.7954V16.6H6.56554V16.7954H6.37017ZM6.37017 15.6232V15.4278H6.56554V15.6232H6.37017ZM6.76091 16.4047V16.2093H6.1748V16.0139H6.76091V15.8185H6.95628V15.2324H7.15165V15.8185H7.34702V16.0139H7.93317V16.2093H7.34702V16.4047H7.15165V16.9908H6.95628V16.4047H6.76091ZM6.76091 16.6H6.56554V16.4047H6.76091V16.6ZM6.76091 15.8185H6.56554V15.6232H6.76091V15.8185ZM7.54243 16.4047V16.6H7.34702V16.4047H7.54243ZM7.54243 15.8185H7.34702V15.6232H7.54243V15.8185Z" fill="#F3F3F3"/>
<path d="M9.72898 16.7954H9.53361V16.6H9.72898V16.7954ZM9.72898 15.4278V15.6232H9.53361V15.4278H9.72898ZM8.36139 16.7954V16.6H8.55676V16.7954H8.36139ZM8.36139 15.6232V15.4278H8.55676V15.6232H8.36139ZM8.75212 16.4047V16.2093H8.16602V16.0139H8.75212V15.8185H8.9475V15.2324H9.14287V15.8185H9.33823V16.0139H9.92438V16.2093H9.33823V16.4047H9.14287V16.9908H8.9475V16.4047H8.75212ZM8.75212 16.6H8.55676V16.4047H8.75212V16.6ZM8.75212 15.8185H8.55676V15.6232H8.75212V15.8185ZM9.53361 16.4047V16.6H9.33823V16.4047H9.53361ZM9.53361 15.8185H9.33823V15.6232H9.53361V15.8185Z" fill="#F3F3F3"/>
<path d="M11.7202 16.7954H11.5248V16.6H11.7202V16.7954ZM11.7202 15.4278V15.6232H11.5248V15.4278H11.7202ZM10.3526 16.7954V16.6H10.548V16.7954H10.3526ZM10.3526 15.6232V15.4278H10.548V15.6232H10.3526ZM10.7434 16.4047V16.2093H10.1572V16.0139H10.7434V15.8185H10.9387V15.2324H11.1341V15.8185H11.3295V16.0139H11.9156V16.2093H11.3295V16.4047H11.1341V16.9908H10.9387V16.4047H10.7434ZM10.7434 16.6H10.548V16.4047H10.7434V16.6ZM10.7434 15.8185H10.548V15.6232H10.7434V15.8185ZM11.5248 16.4047V16.6H11.3295V16.4047H11.5248ZM11.5248 15.8185H11.3295V15.6232H11.5248V15.8185Z" fill="#F3F3F3"/>
<path d="M13.7117 16.7954H13.5163V16.6H13.7117V16.7954ZM13.7117 15.4278V15.6232H13.5163V15.4278H13.7117ZM12.344 16.7954V16.6H12.5394V16.7954H12.344ZM12.344 15.6232V15.4278H12.5394V15.6232H12.344ZM12.7348 16.4047V16.2093H12.1487V16.0139H12.7348V15.8185H12.9302V15.2324H13.1255V15.8185H13.3209V16.0139H13.907V16.2093H13.3209V16.4047H13.1255V16.9908H12.9302V16.4047H12.7348ZM12.7348 16.6H12.5394V16.4047H12.7348V16.6ZM12.7348 15.8185H12.5394V15.6232H12.7348V15.8185ZM13.5163 16.4047V16.6H13.3209V16.4047H13.5163ZM13.5163 15.8185H13.3209V15.6232H13.5163V15.8185Z" fill="#F3F3F3"/>
<path d="M15.7029 16.7954H15.5075V16.6H15.7029V16.7954ZM15.7029 15.4278V15.6232H15.5075V15.4278H15.7029ZM14.3353 16.7954V16.6H14.5307V16.7954H14.3353ZM14.3353 15.6232V15.4278H14.5307V15.6232H14.3353ZM14.726 16.4047V16.2093H14.1399V16.0139H14.726V15.8185H14.9214V15.2324H15.1168V15.8185H15.3121V16.0139H15.8983V16.2093H15.3121V16.4047H15.1168V16.9908H14.9214V16.4047H14.726ZM14.726 16.6H14.5307V16.4047H14.726V16.6ZM14.726 15.8185H14.5307V15.6232H14.726V15.8185ZM15.5075 16.4047V16.6H15.3121V16.4047H15.5075ZM15.5075 15.8185H15.3121V15.6232H15.5075V15.8185Z" fill="#F3F3F3"/>
<path d="M17.6941 16.7954H17.4987V16.6H17.6941V16.7954ZM17.6941 15.4278V15.6232H17.4987V15.4278H17.6941ZM16.3265 16.7954V16.6H16.5219V16.7954H16.3265ZM16.3265 15.6232V15.4278H16.5219V15.6232H16.3265ZM16.7173 16.4047V16.2093H16.1311V16.0139H16.7173V15.8185H16.9126V15.2324H17.108V15.8185H17.3034V16.0139H17.8895V16.2093H17.3034V16.4047H17.108V16.9908H16.9126V16.4047H16.7173ZM16.7173 16.6H16.5219V16.4047H16.7173V16.6ZM16.7173 15.8185H16.5219V15.6232H16.7173V15.8185ZM17.4987 16.4047V16.6H17.3034V16.4047H17.4987ZM17.4987 15.8185H17.3034V15.6232H17.4987V15.8185Z" fill="#F3F3F3"/>
<path d="M19.6856 16.7954H19.4902V16.6H19.6856V16.7954ZM19.6856 15.4278V15.6232H19.4902V15.4278H19.6856ZM18.3179 16.7954V16.6H18.5133V16.7954H18.3179ZM18.3179 15.6232V15.4278H18.5133V15.6232H18.3179ZM18.7087 16.4047V16.2093H18.1226V16.0139H18.7087V15.8185H18.9041V15.2324H19.0994V15.8185H19.2948V16.0139H19.8809V16.2093H19.2948V16.4047H19.0994V16.9908H18.9041V16.4047H18.7087ZM18.7087 16.6H18.5133V16.4047H18.7087V16.6ZM18.7087 15.8185H18.5133V15.6232H18.7087V15.8185ZM19.4902 16.4047V16.6H19.2948V16.4047H19.4902ZM19.4902 15.8185H19.2948V15.6232H19.4902V15.8185Z" fill="#F3F3F3"/>
<path d="M21.6768 16.7954H21.4814V16.6H21.6768V16.7954ZM21.6768 15.4278V15.6232H21.4814V15.4278H21.6768ZM20.3091 16.7954V16.6H20.5045V16.7954H20.3091ZM20.3091 15.6232V15.4278H20.5045V15.6232H20.3091ZM20.6999 16.4047V16.2093H20.1138V16.0139H20.6999V15.8185H20.8953V15.2324H21.0907V15.8185H21.286V16.0139H21.8721V16.2093H21.286V16.4047H21.0907V16.9908H20.8953V16.4047H20.6999ZM20.6999 16.6H20.5045V16.4047H20.6999V16.6ZM20.6999 15.8185H20.5045V15.6232H20.6999V15.8185ZM21.4814 16.4047V16.6H21.286V16.4047H21.4814ZM21.4814 15.8185H21.286V15.6232H21.4814V15.8185Z" fill="#F3F3F3"/>
<path d="M23.668 16.7954H23.4726V16.6H23.668V16.7954ZM23.668 15.4278V15.6232H23.4726V15.4278H23.668ZM22.3004 16.7954V16.6H22.4957V16.7954H22.3004ZM22.3004 15.6232V15.4278H22.4957V15.6232H22.3004ZM22.6911 16.4047V16.2093H22.105V16.0139H22.6911V15.8185H22.8865V15.2324H23.0819V15.8185H23.2772V16.0139H23.8633V16.2093H23.2772V16.4047H23.0819V16.9908H22.8865V16.4047H22.6911ZM22.6911 16.6H22.4957V16.4047H22.6911V16.6ZM22.6911 15.8185H22.4957V15.6232H22.6911V15.8185ZM23.4726 16.4047V16.6H23.2772V16.4047H23.4726ZM23.4726 15.8185H23.2772V15.6232H23.4726V15.8185Z" fill="#F3F3F3"/>
<path d="M24.0962 15.0372V14.8418H24.8777V15.0372H24.6823V16.9909H25.6592V16.7955H25.8546V16.6002H26.0499V16.9909H25.8546V17.1863H24.0962V16.9909H24.2916V15.0372H24.0962Z" fill="#F3F3F3"/>
<path d="M26.0876 15.0372V14.8418H26.8691V15.0372H26.6738V16.9909H27.6506V16.7955H27.846V16.6002H28.0414V16.9909H27.846V17.1863H26.0876V16.9909H26.283V15.0372H26.0876Z" fill="#F3F3F3"/>
<path d="M28.0791 15.0372V14.8418H28.8606V15.0372H28.6652V16.9909H29.6421V16.7955H29.8374V16.6002H30.0328V16.9909H29.8374V17.1863H28.0791V16.9909H28.2745V15.0372H28.0791Z" fill="#F3F3F3"/>
<path d="M30.0703 15.0372V14.8418H30.8518V15.0372H30.6564V16.9909H31.6333V16.7955H31.8287V16.6002H32.024V16.9909H31.8287V17.1863H30.0703V16.9909H30.2657V15.0372H30.0703Z" fill="#F3F3F3"/>
<path d="M32.0615 15.0372V14.8418H32.843V15.0372H32.6477V16.9909H33.6245V16.7955H33.8199V16.6002H34.0153V16.9909H33.8199V17.1863H32.0615V16.9909H32.2569V15.0372H32.0615Z" fill="#F3F3F3"/>
<path d="M34.0527 15.0372V14.8418H34.8342V15.0372H34.6389V16.9909H35.6158V16.7955H35.8111V16.6002H36.0064V16.9909H35.8111V17.1863H34.0527V16.9909H34.2481V15.0372H34.0527Z" fill="#F3F3F3"/>
<path d="M1.76392 20.7031H1.56854V20.5078H1.76392V20.7031ZM1.76392 19.3355V19.5309H1.56854V19.3355H1.76392ZM0.396301 20.7031V20.5078H0.591675V20.7031H0.396301ZM0.396301 19.5309V19.3355H0.591675V19.5309H0.396301ZM0.787048 20.3124V20.117H0.200928V19.9217H0.787048V19.7262H0.982422V19.1401H1.1778V19.7262H1.37317V19.9217H1.95929V20.117H1.37317V20.3124H1.1778V20.8985H0.982422V20.3124H0.787048ZM0.787048 20.5078H0.591675V20.3124H0.787048V20.5078ZM0.787048 19.7262H0.591675V19.5309H0.787048V19.7262ZM1.56854 20.3124V20.5078H1.37317V20.3124H1.56854ZM1.56854 19.7262H1.37317V19.5309H1.56854V19.7262Z" fill="#F3F3F3"/>
<path d="M3.75513 20.7031H3.55976V20.5078H3.75513V20.7031ZM3.75513 19.3355V19.5309H3.55976V19.3355H3.75513ZM2.38751 20.7031V20.5078H2.58289V20.7031H2.38751ZM2.38751 19.5309V19.3355H2.58289V19.5309H2.38751ZM2.77826 20.3124V20.117H2.19214V19.9217H2.77826V19.7262H2.97363V19.1401H3.16901V19.7262H3.36438V19.9217H3.9505V20.117H3.36438V20.3124H3.16901V20.8985H2.97363V20.3124H2.77826ZM2.77826 20.5078H2.58289V20.3124H2.77826V20.5078ZM2.77826 19.7262H2.58289V19.5309H2.77826V19.7262ZM3.55976 20.3124V20.5078H3.36438V20.3124H3.55976ZM3.55976 19.7262H3.36438V19.5309H3.55976V19.7262Z" fill="#F3F3F3"/>
<path d="M5.74635 20.7031H5.55098V20.5078H5.74635V20.7031ZM5.74635 19.3355V19.5309H5.55098V19.3355H5.74635ZM4.37872 20.7031V20.5078H4.57409V20.7031H4.37872ZM4.37872 19.5309V19.3355H4.57409V19.5309H4.37872ZM4.76946 20.3124V20.117H4.18335V19.9217H4.76946V19.7262H4.96483V19.1401H5.1602V19.7262H5.35561V19.9217H5.94172V20.117H5.35561V20.3124H5.1602V20.8985H4.96483V20.3124H4.76946ZM4.76946 20.5078H4.57409V20.3124H4.76946V20.5078ZM4.76946 19.7262H4.57409V19.5309H4.76946V19.7262ZM5.55098 20.3124V20.5078H5.35561V20.3124H5.55098ZM5.55098 19.7262H5.35561V19.5309H5.55098V19.7262Z" fill="#F3F3F3"/>
<path d="M7.7378 20.7031H7.54243V20.5078H7.7378V20.7031ZM7.7378 19.3355V19.5309H7.54243V19.3355H7.7378ZM6.37017 20.7031V20.5078H6.56554V20.7031H6.37017ZM6.37017 19.5309V19.3355H6.56554V19.5309H6.37017ZM6.76091 20.3124V20.117H6.1748V19.9217H6.76091V19.7262H6.95628V19.1401H7.15165V19.7262H7.34702V19.9217H7.93317V20.117H7.34702V20.3124H7.15165V20.8985H6.95628V20.3124H6.76091ZM6.76091 20.5078H6.56554V20.3124H6.76091V20.5078ZM6.76091 19.7262H6.56554V19.5309H6.76091V19.7262ZM7.54243 20.3124V20.5078H7.34702V20.3124H7.54243ZM7.54243 19.7262H7.34702V19.5309H7.54243V19.7262Z" fill="#F3F3F3"/>
<path d="M9.72898 20.7031H9.53361V20.5078H9.72898V20.7031ZM9.72898 19.3355V19.5309H9.53361V19.3355H9.72898ZM8.36139 20.7031V20.5078H8.55676V20.7031H8.36139ZM8.36139 19.5309V19.3355H8.55676V19.5309H8.36139ZM8.75212 20.3124V20.117H8.16602V19.9217H8.75212V19.7262H8.9475V19.1401H9.14287V19.7262H9.33823V19.9217H9.92438V20.117H9.33823V20.3124H9.14287V20.8985H8.9475V20.3124H8.75212ZM8.75212 20.5078H8.55676V20.3124H8.75212V20.5078ZM8.75212 19.7262H8.55676V19.5309H8.75212V19.7262ZM9.53361 20.3124V20.5078H9.33823V20.3124H9.53361ZM9.53361 19.7262H9.33823V19.5309H9.53361V19.7262Z" fill="#F3F3F3"/>
<path d="M11.7202 20.7031H11.5248V20.5078H11.7202V20.7031ZM11.7202 19.3355V19.5309H11.5248V19.3355H11.7202ZM10.3526 20.7031V20.5078H10.548V20.7031H10.3526ZM10.3526 19.5309V19.3355H10.548V19.5309H10.3526ZM10.7434 20.3124V20.117H10.1572V19.9217H10.7434V19.7262H10.9387V19.1401H11.1341V19.7262H11.3295V19.9217H11.9156V20.117H11.3295V20.3124H11.1341V20.8985H10.9387V20.3124H10.7434ZM10.7434 20.5078H10.548V20.3124H10.7434V20.5078ZM10.7434 19.7262H10.548V19.5309H10.7434V19.7262ZM11.5248 20.3124V20.5078H11.3295V20.3124H11.5248ZM11.5248 19.7262H11.3295V19.5309H11.5248V19.7262Z" fill="#F3F3F3"/>
<path d="M13.7117 20.7031H13.5163V20.5078H13.7117V20.7031ZM13.7117 19.3355V19.5309H13.5163V19.3355H13.7117ZM12.344 20.7031V20.5078H12.5394V20.7031H12.344ZM12.344 19.5309V19.3355H12.5394V19.5309H12.344ZM12.7348 20.3124V20.117H12.1487V19.9217H12.7348V19.7262H12.9302V19.1401H13.1255V19.7262H13.3209V19.9217H13.907V20.117H13.3209V20.3124H13.1255V20.8985H12.9302V20.3124H12.7348ZM12.7348 20.5078H12.5394V20.3124H12.7348V20.5078ZM12.7348 19.7262H12.5394V19.5309H12.7348V19.7262ZM13.5163 20.3124V20.5078H13.3209V20.3124H13.5163ZM13.5163 19.7262H13.3209V19.5309H13.5163V19.7262Z" fill="#F3F3F3"/>
<path d="M15.7029 20.7031H15.5075V20.5078H15.7029V20.7031ZM15.7029 19.3355V19.5309H15.5075V19.3355H15.7029ZM14.3353 20.7031V20.5078H14.5307V20.7031H14.3353ZM14.3353 19.5309V19.3355H14.5307V19.5309H14.3353ZM14.726 20.3124V20.117H14.1399V19.9217H14.726V19.7262H14.9214V19.1401H15.1168V19.7262H15.3121V19.9217H15.8983V20.117H15.3121V20.3124H15.1168V20.8985H14.9214V20.3124H14.726ZM14.726 20.5078H14.5307V20.3124H14.726V20.5078ZM14.726 19.7262H14.5307V19.5309H14.726V19.7262ZM15.5075 20.3124V20.5078H15.3121V20.3124H15.5075ZM15.5075 19.7262H15.3121V19.5309H15.5075V19.7262Z" fill="#F3F3F3"/>
<path d="M17.6941 20.7031H17.4987V20.5078H17.6941V20.7031ZM17.6941 19.3355V19.5309H17.4987V19.3355H17.6941ZM16.3265 20.7031V20.5078H16.5219V20.7031H16.3265ZM16.3265 19.5309V19.3355H16.5219V19.5309H16.3265ZM16.7173 20.3124V20.117H16.1311V19.9217H16.7173V19.7262H16.9126V19.1401H17.108V19.7262H17.3034V19.9217H17.8895V20.117H17.3034V20.3124H17.108V20.8985H16.9126V20.3124H16.7173ZM16.7173 20.5078H16.5219V20.3124H16.7173V20.5078ZM16.7173 19.7262H16.5219V19.5309H16.7173V19.7262ZM17.4987 20.3124V20.5078H17.3034V20.3124H17.4987ZM17.4987 19.7262H17.3034V19.5309H17.4987V19.7262Z" fill="#F3F3F3"/>
<path d="M19.6856 20.7031H19.4902V20.5078H19.6856V20.7031ZM19.6856 19.3355V19.5309H19.4902V19.3355H19.6856ZM18.3179 20.7031V20.5078H18.5133V20.7031H18.3179ZM18.3179 19.5309V19.3355H18.5133V19.5309H18.3179ZM18.7087 20.3124V20.117H18.1226V19.9217H18.7087V19.7262H18.9041V19.1401H19.0994V19.7262H19.2948V19.9217H19.8809V20.117H19.2948V20.3124H19.0994V20.8985H18.9041V20.3124H18.7087ZM18.7087 20.5078H18.5133V20.3124H18.7087V20.5078ZM18.7087 19.7262H18.5133V19.5309H18.7087V19.7262ZM19.4902 20.3124V20.5078H19.2948V20.3124H19.4902ZM19.4902 19.7262H19.2948V19.5309H19.4902V19.7262Z" fill="#F3F3F3"/>
<path d="M20.1138 18.9444V18.749H20.8953V18.9444H20.6999V20.8981H21.6768V20.7028H21.8721V20.5074H22.0675V20.8981H21.8721V21.0935H20.1138V20.8981H20.3091V18.9444H20.1138Z" fill="#F3F3F3"/>
<path d="M22.105 18.9444V18.749H22.8865V18.9444H22.6911V20.8981H23.668V20.7028H23.8633V20.5074H24.0587V20.8981H23.8633V21.0935H22.105V20.8981H22.3004V18.9444H22.105Z" fill="#F3F3F3"/>
<path d="M24.0962 18.9444V18.749H24.8777V18.9444H24.6823V20.8981H25.6592V20.7028H25.8546V20.5074H26.0499V20.8981H25.8546V21.0935H24.0962V20.8981H24.2916V18.9444H24.0962Z" fill="#F3F3F3"/>
<path d="M26.0876 18.9444V18.749H26.8691V18.9444H26.6738V20.8981H27.6506V20.7028H27.846V20.5074H28.0414V20.8981H27.846V21.0935H26.0876V20.8981H26.283V18.9444H26.0876Z" fill="#F3F3F3"/>
<path d="M28.0791 18.9444V18.749H28.8606V18.9444H28.6652V20.8981H29.6421V20.7028H29.8374V20.5074H30.0328V20.8981H29.8374V21.0935H28.0791V20.8981H28.2745V18.9444H28.0791Z" fill="#F3F3F3"/>
<path d="M30.0703 18.9444V18.749H30.8518V18.9444H30.6564V20.8981H31.6333V20.7028H31.8287V20.5074H32.024V20.8981H31.8287V21.0935H30.0703V20.8981H30.2657V18.9444H30.0703Z" fill="#F3F3F3"/>
<path d="M32.0615 18.9444V18.749H32.843V18.9444H32.6477V20.8981H33.6245V20.7028H33.8199V20.5074H34.0153V20.8981H33.8199V21.0935H32.0615V20.8981H32.2569V18.9444H32.0615Z" fill="#F3F3F3"/>
<path d="M34.0527 18.9444V18.749H34.8342V18.9444H34.6389V20.8981H35.6158V20.7028H35.8111V20.5074H36.0064V20.8981H35.8111V21.0935H34.0527V20.8981H34.2481V18.9444H34.0527Z" fill="#F3F3F3"/>
<path d="M1.76392 24.6104H1.56854V24.415H1.76392V24.6104ZM1.76392 23.2427V23.4381H1.56854V23.2427H1.76392ZM0.396301 24.6104V24.415H0.591675V24.6104H0.396301ZM0.396301 23.4381V23.2427H0.591675V23.4381H0.396301ZM0.787048 24.2196V24.0242H0.200928V23.8289H0.787048V23.6335H0.982422V23.0474H1.1778V23.6335H1.37317V23.8289H1.95929V24.0242H1.37317V24.2196H1.1778V24.8057H0.982422V24.2196H0.787048ZM0.787048 24.415H0.591675V24.2196H0.787048V24.415ZM0.787048 23.6335H0.591675V23.4381H0.787048V23.6335ZM1.56854 24.2196V24.415H1.37317V24.2196H1.56854ZM1.56854 23.6335H1.37317V23.4381H1.56854V23.6335Z" fill="#F3F3F3"/>
<path d="M3.75513 24.6104H3.55976V24.415H3.75513V24.6104ZM3.75513 23.2427V23.4381H3.55976V23.2427H3.75513ZM2.38751 24.6104V24.415H2.58289V24.6104H2.38751ZM2.38751 23.4381V23.2427H2.58289V23.4381H2.38751ZM2.77826 24.2196V24.0242H2.19214V23.8289H2.77826V23.6335H2.97363V23.0474H3.16901V23.6335H3.36438V23.8289H3.9505V24.0242H3.36438V24.2196H3.16901V24.8057H2.97363V24.2196H2.77826ZM2.77826 24.415H2.58289V24.2196H2.77826V24.415ZM2.77826 23.6335H2.58289V23.4381H2.77826V23.6335ZM3.55976 24.2196V24.415H3.36438V24.2196H3.55976ZM3.55976 23.6335H3.36438V23.4381H3.55976V23.6335Z" fill="#F3F3F3"/>
<path d="M5.74635 24.6104H5.55098V24.415H5.74635V24.6104ZM5.74635 23.2427V23.4381H5.55098V23.2427H5.74635ZM4.37872 24.6104V24.415H4.57409V24.6104H4.37872ZM4.37872 23.4381V23.2427H4.57409V23.4381H4.37872ZM4.76946 24.2196V24.0242H4.18335V23.8289H4.76946V23.6335H4.96483V23.0474H5.1602V23.6335H5.35561V23.8289H5.94172V24.0242H5.35561V24.2196H5.1602V24.8057H4.96483V24.2196H4.76946ZM4.76946 24.415H4.57409V24.2196H4.76946V24.415ZM4.76946 23.6335H4.57409V23.4381H4.76946V23.6335ZM5.55098 24.2196V24.415H5.35561V24.2196H5.55098ZM5.55098 23.6335H5.35561V23.4381H5.55098V23.6335Z" fill="#F3F3F3"/>
<path d="M7.7378 24.6104H7.54243V24.415H7.7378V24.6104ZM7.7378 23.2427V23.4381H7.54243V23.2427H7.7378ZM6.37017 24.6104V24.415H6.56554V24.6104H6.37017ZM6.37017 23.4381V23.2427H6.56554V23.4381H6.37017ZM6.76091 24.2196V24.0242H6.1748V23.8289H6.76091V23.6335H6.95628V23.0474H7.15165V23.6335H7.34702V23.8289H7.93317V24.0242H7.34702V24.2196H7.15165V24.8057H6.95628V24.2196H6.76091ZM6.76091 24.415H6.56554V24.2196H6.76091V24.415ZM6.76091 23.6335H6.56554V23.4381H6.76091V23.6335ZM7.54243 24.2196V24.415H7.34702V24.2196H7.54243ZM7.54243 23.6335H7.34702V23.4381H7.54243V23.6335Z" fill="#F3F3F3"/>
<path d="M9.72898 24.6104H9.53361V24.415H9.72898V24.6104ZM9.72898 23.2427V23.4381H9.53361V23.2427H9.72898ZM8.36139 24.6104V24.415H8.55676V24.6104H8.36139ZM8.36139 23.4381V23.2427H8.55676V23.4381H8.36139ZM8.75212 24.2196V24.0242H8.16602V23.8289H8.75212V23.6335H8.9475V23.0474H9.14287V23.6335H9.33823V23.8289H9.92438V24.0242H9.33823V24.2196H9.14287V24.8057H8.9475V24.2196H8.75212ZM8.75212 24.415H8.55676V24.2196H8.75212V24.415ZM8.75212 23.6335H8.55676V23.4381H8.75212V23.6335ZM9.53361 24.2196V24.415H9.33823V24.2196H9.53361ZM9.53361 23.6335H9.33823V23.4381H9.53361V23.6335Z" fill="#F3F3F3"/>
<path d="M11.7202 24.6104H11.5248V24.415H11.7202V24.6104ZM11.7202 23.2427V23.4381H11.5248V23.2427H11.7202ZM10.3526 24.6104V24.415H10.548V24.6104H10.3526ZM10.3526 23.4381V23.2427H10.548V23.4381H10.3526ZM10.7434 24.2196V24.0242H10.1572V23.8289H10.7434V23.6335H10.9387V23.0474H11.1341V23.6335H11.3295V23.8289H11.9156V24.0242H11.3295V24.2196H11.1341V24.8057H10.9387V24.2196H10.7434ZM10.7434 24.415H10.548V24.2196H10.7434V24.415ZM10.7434 23.6335H10.548V23.4381H10.7434V23.6335ZM11.5248 24.2196V24.415H11.3295V24.2196H11.5248ZM11.5248 23.6335H11.3295V23.4381H11.5248V23.6335Z" fill="#F3F3F3"/>
<path d="M13.7117 24.6104H13.5163V24.415H13.7117V24.6104ZM13.7117 23.2427V23.4381H13.5163V23.2427H13.7117ZM12.344 24.6104V24.415H12.5394V24.6104H12.344ZM12.344 23.4381V23.2427H12.5394V23.4381H12.344ZM12.7348 24.2196V24.0242H12.1487V23.8289H12.7348V23.6335H12.9302V23.0474H13.1255V23.6335H13.3209V23.8289H13.907V24.0242H13.3209V24.2196H13.1255V24.8057H12.9302V24.2196H12.7348ZM12.7348 24.415H12.5394V24.2196H12.7348V24.415ZM12.7348 23.6335H12.5394V23.4381H12.7348V23.6335ZM13.5163 24.2196V24.415H13.3209V24.2196H13.5163ZM13.5163 23.6335H13.3209V23.4381H13.5163V23.6335Z" fill="#F3F3F3"/>
<path d="M15.7029 24.6104H15.5075V24.415H15.7029V24.6104ZM15.7029 23.2427V23.4381H15.5075V23.2427H15.7029ZM14.3353 24.6104V24.415H14.5307V24.6104H14.3353ZM14.3353 23.4381V23.2427H14.5307V23.4381H14.3353ZM14.726 24.2196V24.0242H14.1399V23.8289H14.726V23.6335H14.9214V23.0474H15.1168V23.6335H15.3121V23.8289H15.8983V24.0242H15.3121V24.2196H15.1168V24.8057H14.9214V24.2196H14.726ZM14.726 24.415H14.5307V24.2196H14.726V24.415ZM14.726 23.6335H14.5307V23.4381H14.726V23.6335ZM15.5075 24.2196V24.415H15.3121V24.2196H15.5075ZM15.5075 23.6335H15.3121V23.4381H15.5075V23.6335Z" fill="#F3F3F3"/>
<path d="M16.1311 22.8521V22.6567H16.9126V22.8521H16.7173V24.8058H17.6941V24.6105H17.8895V24.4151H18.0849V24.8058H17.8895V25.0012H16.1311V24.8058H16.3265V22.8521H16.1311Z" fill="#F3F3F3"/>
<path d="M18.1226 22.8521V22.6567H18.9041V22.8521H18.7087V24.8058H19.6856V24.6105H19.8809V24.4151H20.0763V24.8058H19.8809V25.0012H18.1226V24.8058H18.3179V22.8521H18.1226Z" fill="#F3F3F3"/>
<path d="M20.1138 22.8521V22.6567H20.8953V22.8521H20.6999V24.8058H21.6768V24.6105H21.8721V24.4151H22.0675V24.8058H21.8721V25.0012H20.1138V24.8058H20.3091V22.8521H20.1138Z" fill="#F3F3F3"/>
<path d="M22.105 22.8521V22.6567H22.8865V22.8521H22.6911V24.8058H23.668V24.6105H23.8633V24.4151H24.0587V24.8058H23.8633V25.0012H22.105V24.8058H22.3004V22.8521H22.105Z" fill="#F3F3F3"/>
<path d="M24.0962 22.8521V22.6567H24.8777V22.8521H24.6823V24.8058H25.6592V24.6105H25.8546V24.4151H26.0499V24.8058H25.8546V25.0012H24.0962V24.8058H24.2916V22.8521H24.0962Z" fill="#F3F3F3"/>
<path d="M26.0876 22.8521V22.6567H26.8691V22.8521H26.6738V24.8058H27.6506V24.6105H27.846V24.4151H28.0414V24.8058H27.846V25.0012H26.0876V24.8058H26.283V22.8521H26.0876Z" fill="#F3F3F3"/>
<path d="M28.0791 22.8521V22.6567H28.8606V22.8521H28.6652V24.8058H29.6421V24.6105H29.8374V24.4151H30.0328V24.8058H29.8374V25.0012H28.0791V24.8058H28.2745V22.8521H28.0791Z" fill="#F3F3F3"/>
<path d="M30.0703 22.8521V22.6567H30.8518V22.8521H30.6564V24.8058H31.6333V24.6105H31.8287V24.4151H32.024V24.8058H31.8287V25.0012H30.0703V24.8058H30.2657V22.8521H30.0703Z" fill="#F3F3F3"/>
<path d="M32.0615 22.8521V22.6567H32.843V22.8521H32.6477V24.8058H33.6245V24.6105H33.8199V24.4151H34.0153V24.8058H33.8199V25.0012H32.0615V24.8058H32.2569V22.8521H32.0615Z" fill="#F3F3F3"/>
<path d="M34.0527 22.8521V22.6567H34.8342V22.8521H34.6389V24.8058H35.6158V24.6105H35.8111V24.4151H36.0064V24.8058H35.8111V25.0012H34.0527V24.8058H34.2481V22.8521H34.0527Z" fill="#F3F3F3"/>
<path d="M3.75513 28.518H3.55976V28.3227H3.75513V28.518ZM3.75513 27.1504V27.3458H3.55976V27.1504H3.75513ZM2.38751 28.518V28.3227H2.58289V28.518H2.38751ZM2.38751 27.3458V27.1504H2.58289V27.3458H2.38751ZM2.77826 28.1273V27.9319H2.19214V27.7366H2.77826V27.5412H2.97363V26.9551H3.16901V27.5412H3.36438V27.7366H3.9505V27.9319H3.36438V28.1273H3.16901V28.7134H2.97363V28.1273H2.77826ZM2.77826 28.3227H2.58289V28.1273H2.77826V28.3227ZM2.77826 27.5412H2.58289V27.3458H2.77826V27.5412ZM3.55976 28.1273V28.3227H3.36438V28.1273H3.55976ZM3.55976 27.5412H3.36438V27.3458H3.55976V27.5412Z" fill="#F3F3F3"/>
<path d="M5.74635 28.518H5.55098V28.3227H5.74635V28.518ZM5.74635 27.1504V27.3458H5.55098V27.1504H5.74635ZM4.37872 28.518V28.3227H4.57409V28.518H4.37872ZM4.37872 27.3458V27.1504H4.57409V27.3458H4.37872ZM4.76946 28.1273V27.9319H4.18335V27.7366H4.76946V27.5412H4.96483V26.9551H5.1602V27.5412H5.35561V27.7366H5.94172V27.9319H5.35561V28.1273H5.1602V28.7134H4.96483V28.1273H4.76946ZM4.76946 28.3227H4.57409V28.1273H4.76946V28.3227ZM4.76946 27.5412H4.57409V27.3458H4.76946V27.5412ZM5.55098 28.1273V28.3227H5.35561V28.1273H5.55098ZM5.55098 27.5412H5.35561V27.3458H5.55098V27.5412Z" fill="#F3F3F3"/>
<path d="M7.7378 28.518H7.54243V28.3227H7.7378V28.518ZM7.7378 27.1504V27.3458H7.54243V27.1504H7.7378ZM6.37017 28.518V28.3227H6.56554V28.518H6.37017ZM6.37017 27.3458V27.1504H6.56554V27.3458H6.37017ZM6.76091 28.1273V27.9319H6.1748V27.7366H6.76091V27.5412H6.95628V26.9551H7.15165V27.5412H7.34702V27.7366H7.93317V27.9319H7.34702V28.1273H7.15165V28.7134H6.95628V28.1273H6.76091ZM6.76091 28.3227H6.56554V28.1273H6.76091V28.3227ZM6.76091 27.5412H6.56554V27.3458H6.76091V27.5412ZM7.54243 28.1273V28.3227H7.34702V28.1273H7.54243ZM7.54243 27.5412H7.34702V27.3458H7.54243V27.5412Z" fill="#F3F3F3"/>
<path d="M9.72898 28.518H9.53361V28.3227H9.72898V28.518ZM9.72898 27.1504V27.3458H9.53361V27.1504H9.72898ZM8.36139 28.518V28.3227H8.55676V28.518H8.36139ZM8.36139 27.3458V27.1504H8.55676V27.3458H8.36139ZM8.75212 28.1273V27.9319H8.16602V27.7366H8.75212V27.5412H8.9475V26.9551H9.14287V27.5412H9.33823V27.7366H9.92438V27.9319H9.33823V28.1273H9.14287V28.7134H8.9475V28.1273H8.75212ZM8.75212 28.3227H8.55676V28.1273H8.75212V28.3227ZM8.75212 27.5412H8.55676V27.3458H8.75212V27.5412ZM9.53361 28.1273V28.3227H9.33823V28.1273H9.53361ZM9.53361 27.5412H9.33823V27.3458H9.53361V27.5412Z" fill="#F3F3F3"/>
<path d="M11.7202 28.518H11.5248V28.3227H11.7202V28.518ZM11.7202 27.1504V27.3458H11.5248V27.1504H11.7202ZM10.3526 28.518V28.3227H10.548V28.518H10.3526ZM10.3526 27.3458V27.1504H10.548V27.3458H10.3526ZM10.7434 28.1273V27.9319H10.1572V27.7366H10.7434V27.5412H10.9387V26.9551H11.1341V27.5412H11.3295V27.7366H11.9156V27.9319H11.3295V28.1273H11.1341V28.7134H10.9387V28.1273H10.7434ZM10.7434 28.3227H10.548V28.1273H10.7434V28.3227ZM10.7434 27.5412H10.548V27.3458H10.7434V27.5412ZM11.5248 28.1273V28.3227H11.3295V28.1273H11.5248ZM11.5248 27.5412H11.3295V27.3458H11.5248V27.5412Z" fill="#F3F3F3"/>
<path d="M12.1487 26.7598V26.5645H12.9302V26.7598H12.7348V28.7136H13.7117V28.5182H13.907V28.3228H14.1024V28.7136H13.907V28.909H12.1487V28.7136H12.344V26.7598H12.1487Z" fill="#F3F3F3"/>
<path d="M14.1399 26.7598V26.5645H14.9214V26.7598H14.726V28.7136H15.7029V28.5182H15.8983V28.3228H16.0937V28.7136H15.8983V28.909H14.1399V28.7136H14.3353V26.7598H14.1399Z" fill="#F3F3F3"/>
<path d="M16.1311 26.7598V26.5645H16.9126V26.7598H16.7173V28.7136H17.6941V28.5182H17.8895V28.3228H18.0849V28.7136H17.8895V28.909H16.1311V28.7136H16.3265V26.7598H16.1311Z" fill="#F3F3F3"/>
<path d="M18.1226 26.7598V26.5645H18.9041V26.7598H18.7087V28.7136H19.6856V28.5182H19.8809V28.3228H20.0763V28.7136H19.8809V28.909H18.1226V28.7136H18.3179V26.7598H18.1226Z" fill="#F3F3F3"/>
<path d="M20.1138 26.7598V26.5645H20.8953V26.7598H20.6999V28.7136H21.6768V28.5182H21.8721V28.3228H22.0675V28.7136H21.8721V28.909H20.1138V28.7136H20.3091V26.7598H20.1138Z" fill="#F3F3F3"/>
<path d="M22.105 26.7598V26.5645H22.8865V26.7598H22.6911V28.7136H23.668V28.5182H23.8633V28.3228H24.0587V28.7136H23.8633V28.909H22.105V28.7136H22.3004V26.7598H22.105Z" fill="#F3F3F3"/>
<path d="M24.0962 26.7598V26.5645H24.8777V26.7598H24.6823V28.7136H25.6592V28.5182H25.8546V28.3228H26.0499V28.7136H25.8546V28.909H24.0962V28.7136H24.2916V26.7598H24.0962Z" fill="#F3F3F3"/>
<path d="M26.0876 26.7598V26.5645H26.8691V26.7598H26.6738V28.7136H27.6506V28.5182H27.846V28.3228H28.0414V28.7136H27.846V28.909H26.0876V28.7136H26.283V26.7598H26.0876Z" fill="#F3F3F3"/>
<path d="M28.0791 26.7598V26.5645H28.8606V26.7598H28.6652V28.7136H29.6421V28.5182H29.8374V28.3228H30.0328V28.7136H29.8374V28.909H28.0791V28.7136H28.2745V26.7598H28.0791Z" fill="#F3F3F3"/>
<path d="M30.0703 26.7598V26.5645H30.8518V26.7598H30.6564V28.7136H31.6333V28.5182H31.8287V28.3228H32.024V28.7136H31.8287V28.909H30.0703V28.7136H30.2657V26.7598H30.0703Z" fill="#F3F3F3"/>
<path d="M32.0615 26.7598V26.5645H32.843V26.7598H32.6477V28.7136H33.6245V28.5182H33.8199V28.3228H34.0153V28.7136H33.8199V28.909H32.0615V28.7136H32.2569V26.7598H32.0615Z" fill="#F3F3F3"/>
<path d="M7.7378 32.4258H7.54243V32.2304H7.7378V32.4258ZM7.7378 31.0582V31.2535H7.54243V31.0582H7.7378ZM6.37017 32.4258V32.2304H6.56554V32.4258H6.37017ZM6.37017 31.2535V31.0582H6.56554V31.2535H6.37017ZM6.76091 32.035V31.8396H6.1748V31.6443H6.76091V31.4489H6.95628V30.8628H7.15165V31.4489H7.34702V31.6443H7.93317V31.8396H7.34702V32.035H7.15165V32.6212H6.95628V32.035H6.76091ZM6.76091 32.2304H6.56554V32.035H6.76091V32.2304ZM6.76091 31.4489H6.56554V31.2535H6.76091V31.4489ZM7.54243 32.035V32.2304H7.34702V32.035H7.54243ZM7.54243 31.4489H7.34702V31.2535H7.54243V31.4489Z" fill="#F3F3F3"/>
<path d="M8.16602 30.6671V30.4717H8.9475V30.6671H8.75212V32.6208H9.72898V32.4255H9.92438V32.23H10.1198V32.6208H9.92438V32.8162H8.16602V32.6208H8.36139V30.6671H8.16602Z" fill="#F3F3F3"/>
<path d="M10.1572 30.6671V30.4717H10.9387V30.6671H10.7434V32.6208H11.7202V32.4255H11.9156V32.23H12.111V32.6208H11.9156V32.8162H10.1572V32.6208H10.3526V30.6671H10.1572Z" fill="#F3F3F3"/>
<path d="M12.1487 30.6671V30.4717H12.9302V30.6671H12.7348V32.6208H13.7117V32.4255H13.907V32.23H14.1024V32.6208H13.907V32.8162H12.1487V32.6208H12.344V30.6671H12.1487Z" fill="#F3F3F3"/>
<path d="M14.1399 30.6671V30.4717H14.9214V30.6671H14.726V32.6208H15.7029V32.4255H15.8983V32.23H16.0937V32.6208H15.8983V32.8162H14.1399V32.6208H14.3353V30.6671H14.1399Z" fill="#F3F3F3"/>
<path d="M16.1311 30.6671V30.4717H16.9126V30.6671H16.7173V32.6208H17.6941V32.4255H17.8895V32.23H18.0849V32.6208H17.8895V32.8162H16.1311V32.6208H16.3265V30.6671H16.1311Z" fill="#F3F3F3"/>
<path d="M18.1226 30.6671V30.4717H18.9041V30.6671H18.7087V32.6208H19.6856V32.4255H19.8809V32.23H20.0763V32.6208H19.8809V32.8162H18.1226V32.6208H18.3179V30.6671H18.1226Z" fill="#F3F3F3"/>
<path d="M20.1138 30.6671V30.4717H20.8953V30.6671H20.6999V32.6208H21.6768V32.4255H21.8721V32.23H22.0675V32.6208H21.8721V32.8162H20.1138V32.6208H20.3091V30.6671H20.1138Z" fill="#F3F3F3"/>
<path d="M22.105 30.6671V30.4717H22.8865V30.6671H22.6911V32.6208H23.668V32.4255H23.8633V32.23H24.0587V32.6208H23.8633V32.8162H22.105V32.6208H22.3004V30.6671H22.105Z" fill="#F3F3F3"/>
<path d="M24.0962 30.6671V30.4717H24.8777V30.6671H24.6823V32.6208H25.6592V32.4255H25.8546V32.23H26.0499V32.6208H25.8546V32.8162H24.0962V32.6208H24.2916V30.6671H24.0962Z" fill="#F3F3F3"/>
<path d="M26.0876 30.6671V30.4717H26.8691V30.6671H26.6738V32.6208H27.6506V32.4255H27.846V32.23H28.0414V32.6208H27.846V32.8162H26.0876V32.6208H26.283V30.6671H26.0876Z" fill="#F3F3F3"/>
<path d="M28.0791 30.6671V30.4717H28.8606V30.6671H28.6652V32.6208H29.6421V32.4255H29.8374V32.23H30.0328V32.6208H29.8374V32.8162H28.0791V32.6208H28.2745V30.6671H28.0791Z" fill="#F3F3F3"/>
<path d="M30.0703 30.6671V30.4717H30.8518V30.6671H30.6564V32.6208H31.6333V32.4255H31.8287V32.23H32.024V32.6208H31.8287V32.8162H30.0703V32.6208H30.2657V30.6671H30.0703Z" fill="#F3F3F3"/>
<path d="M12.1487 34.5738V34.3784H12.9302V34.5738H12.7348V36.5274H13.7117V36.3321H13.907V36.1368H14.1024V36.5274H13.907V36.723H12.1487V36.5274H12.344V34.5738H12.1487Z" fill="#F3F3F3"/>
<path d="M14.1399 34.5738V34.3784H14.9214V34.5738H14.726V36.5274H15.7029V36.3321H15.8983V36.1368H16.0937V36.5274H15.8983V36.723H14.1399V36.5274H14.3353V34.5738H14.1399Z" fill="#F3F3F3"/>
<path d="M16.1311 34.5738V34.3784H16.9126V34.5738H16.7173V36.5274H17.6941V36.3321H17.8895V36.1368H18.0849V36.5274H17.8895V36.723H16.1311V36.5274H16.3265V34.5738H16.1311Z" fill="#F3F3F3"/>
<path d="M18.1226 34.5738V34.3784H18.9041V34.5738H18.7087V36.5274H19.6856V36.3321H19.8809V36.1368H20.0763V36.5274H19.8809V36.723H18.1226V36.5274H18.3179V34.5738H18.1226Z" fill="#F3F3F3"/>
<path d="M20.1138 34.5738V34.3784H20.8953V34.5738H20.6999V36.5274H21.6768V36.3321H21.8721V36.1368H22.0675V36.5274H21.8721V36.723H20.1138V36.5274H20.3091V34.5738H20.1138Z" fill="#F3F3F3"/>
<path d="M22.105 34.5738V34.3784H22.8865V34.5738H22.6911V36.5274H23.668V36.3321H23.8633V36.1368H24.0587V36.5274H23.8633V36.723H22.105V36.5274H22.3004V34.5738H22.105Z" fill="#F3F3F3"/>
</g>
<g filter="url(#filter0_f_871_143)">
<path d="M17.9999 26.7619C22.8388 26.7619 26.7615 22.8392 26.7615 18.0004C26.7615 13.1615 22.8388 9.23877 17.9999 9.23877C13.161 9.23877 9.23828 13.1615 9.23828 18.0004C9.23828 22.8392 13.161 26.7619 17.9999 26.7619Z" fill="#FF2E00"/>
</g>
<path d="M17.205 6.87305H18.7945V10.0522H22.7684V13.2314H13.2312V10.0522H17.205V6.87305Z" fill="#F3F3F3"/>
<path d="M13.2312 16.4106H10.052V13.2314H13.2312V16.4106Z" fill="#F3F3F3"/>
<path d="M22.7684 19.5893V16.4102H13.2312V19.5893H22.7684Z" fill="#F3F3F3"/>
<path d="M22.7686 22.769V19.5898H25.9477V22.769H22.7686Z" fill="#F3F3F3"/>
<path d="M13.2312 22.7686V25.9477H17.205V29.1269H18.7945V25.9477H22.7684V22.7686H13.2312Z" fill="#F3F3F3"/>
<path d="M13.2312 22.7682V21.1787H10.052V22.7682H13.2312Z" fill="#F3F3F3"/>
<path d="M22.7686 13.2314H25.9477V14.8209H22.7686V13.2314Z" fill="#F3F3F3"/>
</g>
</g>
<path d="M18.5 36C28.165 36 36 28.165 36 18.5C36 8.83502 28.165 1 18.5 1C8.83502 1 1 8.83502 1 18.5C1 28.165 8.83502 36 18.5 36Z" stroke="#1BE3C2" stroke-width="2"/>
</g>
<defs>
<filter id="filter0_f_871_143" x="8.25426" y="8.25475" width="19.4912" height="19.4912" filterUnits="userSpaceOnUse" color-interpolation-filters="sRGB">
<feFlood flood-opacity="0" result="BackgroundImageFix"/>
<feBlend mode="normal" in="SourceGraphic" in2="BackgroundImageFix" result="shape"/>
<feGaussianBlur stdDeviation="0.492012" result="effect1_foregroundBlur_871_143"/>
</filter>
<clipPath id="clip0_871_143">
<rect width="37" height="37" fill="white"/>
</clipPath>
</defs>
</svg>
