<svg version="1.2" xmlns="http://www.w3.org/2000/svg" viewBox="0 0 150 150" width="150" height="150">
	<title>0x8e0789d39db454dbe9f4a77acef6dc7c69f6d552</title>
	<defs>
		<clipPath clipPathUnits="userSpaceOnUse" id="cp1">
			<path d="m150 0v150h-150v-150z"/>
		</clipPath>
		<clipPath clipPathUnits="userSpaceOnUse" id="cp2">
			<path d="m75 150c-41.48 0-75-33.53-75-75 0-41.48 33.52-75 75-75 41.47 0 75 33.52 75 75 0 41.47-33.53 75-75 75z"/>
		</clipPath>
	</defs>
	<style>
		.s0 { fill: #00a3ff } 
		.s1 { fill: #00a3ff;stroke: #b6ff3e;stroke-width: 5 } 
		.s2 { fill: #ffffff } 
		.s3 { opacity: .6;fill: #ffffff } 
		.s4 { opacity: .2;fill: #ffffff } 
	</style>
	<g id="Clip-Path" clip-path="url(#cp1)">
		<g>
			<g id="Clip-Path" clip-path="url(#cp2)">
				<g>
					<path fill-rule="evenodd" class="s0" d="m160.3-10.3v170.6h-170.6v-170.6z"/>
					<path fill-rule="evenodd" class="s1" d="m75 143.2c-37.7 0-68.2-30.5-68.2-68.2 0-37.7 30.5-68.2 68.2-68.2 37.7 0 68.2 30.5 68.2 68.2 0 37.7-30.5 68.2-68.2 68.2z"/>
				</g>
			</g>
			<path class="s2" d="m51.4 94c-10.5-7.5-16-12.5-24.2-25.3-3.5-5.7-6.4-12.5-5.4-19.5 0.3-1.9 1-3.7 2-5.4 0.3-0.6 0.9-1.4 1.3-1.9 2-2.4 4.8-4.1 7.7-5.2 8.9-3.1 18.7-1.8 27.4 0.4 19.1 5.1 37.1 15.6 51.3 29.3 8 7.9 19.4 22.2 14.9 34.1-5.2 12.2-23 10.6-33.6 8.1l0.4-1.9c8.5 1.6 20 2.8 27.2-2.8 7.7-6.4 2.5-17.4-2.3-24.1-12.2-16.6-32.9-29.1-52.4-35.4-9.1-2.8-20.2-5-29.5-2.2-5.2 1.7-8.3 5.2-7.8 10.9 1.2 8.4 7.8 16.4 13.8 22.2 6.7 6.5 3.6 7.1 11.8 11.6l-2.6 7.1z"/>
			<path class="s2" d="m54.7 51.9l-1.2 0.7c-13.2 8-18.8 24.2-13.4 38.8 3.1 8.6 9.5 15.1 17.2 18.8 0 0 0 0-2.6-58.3z"/>
			<path class="s3" d="m72.7 77.8l-18-25.9c2.6 58.3 2.6 58.3 2.6 58.3 4.8-10.1 10.3-21.7 15.4-32.4z"/>
			<path class="s3" d="m104.3 75.5l0.1 1.3c2.1 15.4-6.9 29.9-21.6 34.9-8.7 3-17.8 2.2-25.5-1.5 0 0 0 0 47-34.7z"/>
			<path class="s4" d="m72.7 77.8l31.6-2.3c-47 34.7-47 34.7-47 34.7 4.8-10.1 10.4-21.7 15.4-32.4z"/>
			<path class="s4" d="m87.8 46.2l-11.6 24.4 27.1-2z"/>
			<path class="s3" d="m87.8 46.2l-27.2 2 15.6 22.4z"/>
			<path class="s2" d="m97.6 25.7l-37 22.5 27.2-2z"/>
			<path class="s3" d="m87.8 46.2l15.5 22.4-5.7-43z"/>
		</g>
	</g>
</svg>