<svg width="37" height="37" viewBox="0 0 37 37" fill="none" xmlns="http://www.w3.org/2000/svg">
<g clip-path="url(#clip0_545_64)">
<mask id="mask0_545_64" style="mask-type:luminance" maskUnits="userSpaceOnUse" x="0" y="0" width="37" height="37">
<path d="M36.5 0.5H0.5V36.5H36.5V0.5Z" fill="white"/>
</mask>
<g mask="url(#mask0_545_64)">
<path d="M36.5 18.5C36.5 23.333 34.5959 27.7199 31.496 30.9534C31.4073 31.046 31.3173 31.1373 31.2273 31.2273C31.1373 31.3173 31.0511 31.4009 30.9624 31.487C30.3286 32.0951 29.651 32.657 28.9349 33.1674C28.5646 33.4323 28.1827 33.683 27.7906 33.9196C25.079 35.5576 21.8994 36.5 18.5 36.5C15.1006 36.5 11.93 35.5601 9.21971 33.9247C8.82757 33.6894 8.44443 33.4387 8.07286 33.1726C7.35671 32.6634 6.67914 32.1029 6.04657 31.496C5.86529 31.3224 5.68786 31.145 5.51429 30.9637C2.408 27.7301 0.5 23.3381 0.5 18.5C0.5 13.6619 2.51471 9.02943 5.77271 5.77271C9.02943 2.51471 13.5294 0.5 18.5 0.5C23.4706 0.5 27.9706 2.51471 31.2273 5.77271C34.4853 9.02943 36.5 13.5294 36.5 18.5Z" fill="#4281A4"/>
<mask id="mask1_545_64" style="mask-type:luminance" maskUnits="userSpaceOnUse" x="0" y="0" width="37" height="37">
<path d="M36.5 18.5C36.5 23.333 34.5959 27.7199 31.496 30.9534C31.4073 31.046 31.3173 31.1373 31.2273 31.2273C31.1373 31.3173 31.0511 31.4009 30.9624 31.487C30.3286 32.0951 29.651 32.657 28.9349 33.1674C28.5646 33.4323 28.1827 33.683 27.7906 33.9196C25.079 35.5576 21.8994 36.5 18.5 36.5C15.1006 36.5 11.93 35.5601 9.21971 33.9247C8.82757 33.6894 8.44443 33.4387 8.07286 33.1726C7.35671 32.6634 6.67914 32.1029 6.04657 31.496C5.86529 31.3224 5.68786 31.145 5.51429 30.9637C2.408 27.7301 0.5 23.3381 0.5 18.5C0.5 13.6619 2.51471 9.02943 5.77271 5.77271C9.02943 2.51471 13.5294 0.5 18.5 0.5C23.4706 0.5 27.9706 2.51471 31.2273 5.77271C34.4853 9.02943 36.5 13.5294 36.5 18.5Z" fill="white"/>
</mask>
<g mask="url(#mask1_545_64)">
<g opacity="0.2">
<path d="M4.70215 32.3097L32.1136 4.89697" stroke="#F6E8D7" stroke-width="0.792857" stroke-linecap="round" stroke-linejoin="round"/>
<path d="M4.375 4.36865L32.9693 32.9629" stroke="#F6E8D7" stroke-width="0.792857" stroke-linecap="round" stroke-linejoin="round"/>
<path d="M18.5 -0.401367V40.0369" stroke="#F6E8D7" stroke-width="0.792857" stroke-linecap="round" stroke-linejoin="round"/>
<path d="M0.1875 12.8057L28.7818 41.4012" stroke="#F6E8D7" stroke-width="0.792857" stroke-linecap="round" stroke-linejoin="round"/>
<path d="M-2.10645 18.5H38.3332" stroke="#F6E8D7" stroke-width="0.792857" stroke-linecap="round" stroke-linejoin="round"/>
<path d="M18.4997 31.1293C25.4749 31.1293 31.1293 25.4748 31.1293 18.4997C31.1293 11.5246 25.4749 5.87012 18.4997 5.87012C11.5246 5.87012 5.87012 11.5246 5.87012 18.4997C5.87012 25.4748 11.5246 31.1293 18.4997 31.1293Z" stroke="#F6E8D7" stroke-width="0.792857" stroke-linecap="round" stroke-linejoin="round"/>
</g>
<path d="M18.5024 31.1293L5.87402 31.137L12.1921 24.8203L18.5024 31.1293Z" stroke="#F6E8D7" stroke-width="0.792857" stroke-linecap="round" stroke-linejoin="round"/>
<path d="M31.1357 18.4962C31.1357 21.9857 29.7253 25.1421 27.438 27.4294L18.501 18.4962V5.86279C25.4812 5.86279 31.137 11.5199 31.137 18.4962H31.1357Z" stroke="#F6E8D7" stroke-width="0.792857" stroke-linecap="round" stroke-linejoin="round"/>
<path d="M18.4993 5.86279C11.5204 5.86279 5.86328 11.5187 5.86328 18.4962H18.4993V5.86279Z" stroke="#F6E8D7" stroke-width="0.792857" stroke-linecap="round" stroke-linejoin="round"/>
<path d="M5.86328 18.4961L18.5019 31.1295H31.1301L31.1353 31.1257L18.4993 18.4961H5.86328Z" stroke="#F6E8D7" stroke-width="0.792857" stroke-linecap="round" stroke-linejoin="round"/>
</g>
</g>
<path d="M18.5 36C28.165 36 36 28.165 36 18.5C36 8.83502 28.165 1 18.5 1C8.83502 1 1 8.83502 1 18.5C1 28.165 8.83502 36 18.5 36Z" stroke="#1BE3C2" stroke-width="2"/>
</g>
<defs>
<clipPath id="clip0_545_64">
<rect width="37" height="37" fill="white"/>
</clipPath>
</defs>
</svg>
