<svg width="38" height="38" viewBox="0 0 38 38" fill="none" xmlns="http://www.w3.org/2000/svg">
<g clip-path="url(#clip0_984_7)">
<path d="M18.5 37C28.7521 37 37 28.7521 37 18.5C37 8.24786 28.7521 0 18.5 0C8.24786 0 0 8.24786 0 18.5C0 28.7521 8.24786 37 18.5 37Z" fill="#2775CA"/>
<path d="M23.3291 21.025C23.3291 18.3271 21.7104 17.4021 18.4729 17.0168C16.1604 16.7084 15.6979 16.0918 15.6979 15.0125C15.6979 13.9332 16.4688 13.2396 18.0104 13.2396C19.3979 13.2396 20.1688 13.7021 20.5541 14.8584C20.6313 15.0896 20.8625 15.2438 21.0938 15.2438H22.327C22.6354 15.2438 22.8666 15.0125 22.8666 14.7043V14.6271C22.5582 12.9313 21.1707 11.6209 19.3979 11.4668V9.61679C19.3979 9.30839 19.1666 9.07715 18.7813 9H17.625C17.3166 9 17.0854 9.23125 17.0082 9.61679V11.3896C14.6957 11.698 13.2312 13.2396 13.2312 15.1668C13.2312 17.7105 14.7729 18.7125 18.0104 19.098C20.1688 19.4834 20.8625 19.9459 20.8625 21.1793C20.8625 22.4127 19.7832 23.2605 18.3188 23.2605C16.3145 23.2605 15.6207 22.4125 15.3895 21.2563C15.3125 20.948 15.0813 20.7937 14.85 20.7937H13.5395C13.2313 20.7937 13 21.025 13 21.3334V21.4105C13.3082 23.3375 14.5416 24.725 17.0854 25.1105V26.9605C17.0854 27.2688 17.3166 27.5 17.702 27.5771H18.8582C19.1666 27.5771 19.3979 27.3459 19.475 26.9605V25.1105C21.7875 24.725 23.3291 23.1062 23.3291 21.025Z" fill="white"/>
<path d="M14.9814 29.127C8.96889 26.9687 5.88549 20.2625 8.12103 14.327C9.27728 11.0895 11.821 8.62285 14.9814 7.4666C15.2898 7.3125 15.4439 7.08125 15.4439 6.69571V5.6166C15.4439 5.30821 15.2898 5.07696 14.9814 5C14.9042 5 14.7501 5 14.673 5.07696C7.35014 7.38946 3.34174 15.175 5.65424 22.4979C7.04174 26.8145 10.3564 30.1291 14.673 31.5166C14.9814 31.6707 15.2898 31.5166 15.3667 31.2082C15.4439 31.1312 15.4439 31.0541 15.4439 30.9V29.8207C15.4439 29.5895 15.2126 29.2812 14.9814 29.127ZM23.1523 5.07696C22.8439 4.92285 22.5355 5.07696 22.4585 5.38535C22.3814 5.4625 22.3814 5.53946 22.3814 5.69375V6.77285C22.3814 7.08125 22.6126 7.38946 22.8439 7.54375C28.8564 9.70196 31.9398 16.4082 29.7042 22.3437C28.548 25.5812 26.0042 28.0479 22.8439 29.2041C22.5355 29.3582 22.3814 29.5895 22.3814 29.975V31.0541C22.3814 31.3625 22.5355 31.5937 22.8439 31.6707C22.921 31.6707 23.0751 31.6707 23.1523 31.5937C30.4751 29.2812 34.4835 21.4957 32.171 14.1729C30.7835 9.7791 27.3917 6.46446 23.1523 5.07696Z" fill="white"/>
<path d="M18.5 36C28.165 36 36 28.165 36 18.5C36 8.83502 28.165 1 18.5 1C8.83502 1 1 8.83502 1 18.5C1 28.165 8.83502 36 18.5 36Z" stroke="#1BE3C2" stroke-width="2"/>
<g filter="url(#filter0_d_984_7)">
<path d="M30.1154 36.2308C34.0451 36.2308 37.2308 33.0451 37.2308 29.1154C37.2308 25.1857 34.0451 22 30.1154 22C26.1857 22 23 25.1857 23 29.1154C23 33.0451 26.1857 36.2308 30.1154 36.2308Z" fill="black"/>
<mask id="mask0_984_7" style="mask-type:luminance" maskUnits="userSpaceOnUse" x="25" y="24" width="10" height="10">
<path d="M35 24H25V34H35V24Z" fill="white"/>
</mask>
<g mask="url(#mask0_984_7)">
<path d="M26.1318 31.5212L25 30.3894L26.3894 29C26.8486 28.5408 27.4407 28.2939 28.0431 28.2584C27.8797 28.1268 27.6725 28.0476 27.4469 28.0476H25.482V26.4469H27.4469C28.0964 26.4469 28.6896 26.691 29.1407 27.0919C29.1182 26.8833 29.0277 26.6807 28.8682 26.5212L27.4789 25.1318L28.6106 24L30 25.3894C30.4592 25.8486 30.7061 26.4408 30.7416 27.0431C30.8732 26.8798 30.9524 26.6726 30.9524 26.4469V24.482H32.5531V26.447C32.5531 27.0964 32.3089 27.6897 31.9081 28.1407C32.1166 28.1183 32.3192 28.0277 32.4788 27.8682L33.8682 26.4788L35 27.6106L33.6106 29C33.1514 29.4593 32.5593 29.7061 31.9569 29.7416C32.1203 29.8732 32.3275 29.9524 32.5531 29.9524H34.518V31.5531H32.5531C31.9037 31.5531 31.3104 31.3089 30.8593 30.9081C30.8818 31.1167 30.9723 31.3192 31.1318 31.4788L32.5212 32.8682L31.3894 34L29.9999 32.6106C29.5407 32.1514 29.2939 31.5592 29.2584 30.9569C29.1268 31.1202 29.0476 31.3274 29.0476 31.5531V33.518H27.4469V31.5531C27.4469 30.9036 27.691 30.3104 28.0918 29.8594C27.8833 29.8818 27.6807 29.9723 27.5211 30.1319L26.1318 31.5212Z" fill="white"/>
</g>
</g>
</g>
<defs>
<filter id="filter0_d_984_7" x="22.2885" y="22" width="15.6539" height="15.654" filterUnits="userSpaceOnUse" color-interpolation-filters="sRGB">
<feFlood flood-opacity="0" result="BackgroundImageFix"/>
<feColorMatrix in="SourceAlpha" type="matrix" values="0 0 0 0 0 0 0 0 0 0 0 0 0 0 0 0 0 0 127 0" result="hardAlpha"/>
<feOffset dy="0.711538"/>
<feGaussianBlur stdDeviation="0.355769"/>
<feComposite in2="hardAlpha" operator="out"/>
<feColorMatrix type="matrix" values="0 0 0 0 0 0 0 0 0 0 0 0 0 0 0 0 0 0 0.25 0"/>
<feBlend mode="normal" in2="BackgroundImageFix" result="effect1_dropShadow_984_7"/>
<feBlend mode="normal" in="SourceGraphic" in2="effect1_dropShadow_984_7" result="shape"/>
</filter>
<clipPath id="clip0_984_7">
<rect width="38" height="38" rx="19" fill="white"/>
</clipPath>
</defs>
</svg>
