<svg width="512" height="512" viewBox="0 0 512 512" fill="none" xmlns="http://www.w3.org/2000/svg">
<g clip-path="url(#clip0_793_22)">
<path d="M463 374C463 388.201 463 395.301 463.04 395.58C463.625 399.713 467.644 400.765 470.178 397.448C470.35 397.223 473.355 391.872 479.365 381.169C500.148 344.161 512 301.465 512 256C512 114.615 397.385 0 256 0C114.615 0 0 114.615 0 256C0 397.385 114.615 512 256 512C297.979 512 337.598 501.896 372.557 483.987C376.867 481.779 371.842 470 367 470C313.8 470 271 427.2 271 374C271 320.8 313.8 278 367 278C420.2 278 463 320.8 463 374Z" fill="url(#paint0_linear_793_22)"/>
<path d="M463 374C463 388.201 463 395.301 463.04 395.58C463.625 399.713 467.644 400.765 470.178 397.448C470.35 397.223 473.355 391.872 479.365 381.169C500.148 344.161 512 301.465 512 256C512 114.615 397.385 0 256 0C114.615 0 0 114.615 0 256C0 397.385 114.615 512 256 512C297.979 512 337.598 501.896 372.557 483.987C376.867 481.779 371.842 470 367 470C313.8 470 271 427.2 271 374C271 320.8 313.8 278 367 278C420.2 278 463 320.8 463 374Z" fill="url(#paint1_radial_793_22)" fill-opacity="0.2"/>
<mask id="mask0_793_22" style="mask-type:alpha" maskUnits="userSpaceOnUse" x="0" y="0" width="512" height="512">
<path d="M448.801 424.421C488.155 379.407 512 320.488 512 256C512 114.615 397.385 0 256 0C114.615 0 0 114.615 0 256C0 397.385 114.615 512 256 512C314.893 512 369.141 492.113 412.396 458.689C398.896 465.911 383.445 470 367 470C313.8 470 271 427.2 271 374C271 320.8 313.8 278 367 278C420.2 278 463 320.8 463 374C463 392.524 457.811 409.786 448.801 424.421Z" fill="url(#paint2_linear_793_22)"/>
<path d="M448.801 424.421C488.155 379.407 512 320.488 512 256C512 114.615 397.385 0 256 0C114.615 0 0 114.615 0 256C0 397.385 114.615 512 256 512C314.893 512 369.141 492.113 412.396 458.689C398.896 465.911 383.445 470 367 470C313.8 470 271 427.2 271 374C271 320.8 313.8 278 367 278C420.2 278 463 320.8 463 374C463 392.524 457.811 409.786 448.801 424.421Z" fill="url(#paint3_radial_793_22)" fill-opacity="0.2"/>
</mask>
<g mask="url(#mask0_793_22)">
<path d="M114.681 317.445V417.87C114.681 424.051 119.913 426.618 121.54 427.2C123.168 427.899 128.632 429.416 133.516 424.867L209.487 351.859C215.957 345.643 222.201 339.108 226.893 331.461C229.102 327.867 230.017 325.841 230.017 325.841C234.668 316.395 234.668 307.297 230.132 298.198C223.391 284.669 206.182 270.905 180.254 257.841L135.957 282.569C122.82 290.034 114.681 303.213 114.681 317.445Z" fill="#00378A"/>
<path d="M71 94.1029V199.427C71 212.607 79.8364 224.271 92.3934 228.003C135.179 240.367 209.706 266.96 227.728 306.035C230.051 311.167 231.447 316.182 231.915 321.429C243.89 299.619 249.354 274.542 246.796 249.115C243.307 213.074 224.238 180.298 194.475 159.42L88.3239 85.1218C86.4634 83.7221 84.2544 83.0222 82.0454 83.0222C80.1849 83.0222 78.5573 83.3722 76.8133 84.3053C73.3252 86.2881 71 89.904 71 94.1029Z" fill="#2E4DFF"/>
<path d="M397.247 317.445V417.87C397.247 424.051 392.016 426.618 390.386 427.2C388.76 427.899 383.293 429.416 378.411 424.867L300.671 350.162C295.38 345.074 290.326 339.695 286.34 333.533C283.183 328.653 281.911 325.841 281.911 325.841C277.259 316.395 277.259 307.297 281.792 298.198C288.536 284.669 305.746 270.905 331.669 257.841L375.969 282.569C389.225 290.034 397.247 303.213 397.247 317.445Z" fill="#00378A"/>
<path d="M441 94.0806V199.405C441 212.585 432.162 224.248 419.605 227.981C376.819 240.344 302.294 266.938 284.272 306.012C281.945 311.143 280.549 316.159 280.085 321.409C268.11 299.597 262.646 274.519 265.204 249.092C268.689 213.051 287.758 180.276 317.524 159.398L423.677 85.0995C425.537 83.6998 427.745 83 429.953 83C431.813 83 433.443 83.3499 435.184 84.283C438.674 86.2659 441 89.8817 441 94.0806Z" fill="#2E4DFF"/>
<g filter="url(#filter0_ii_793_22)">
<path d="M429.783 107.888L363.276 174.392C355.789 181.879 346.647 187.32 336.7 190.368C330.671 192.218 324.348 193.175 317.927 193.175H194.067C187.646 193.175 181.323 192.218 175.294 190.368C165.347 187.32 156.204 181.879 148.718 174.392C126.538 152.213 104.38 130.056 82.2116 107.877C80.144 105.81 78.0647 103.731 75.9971 101.663C76.4655 106.201 77.1395 111.077 78.1085 116.224C79.9365 126.073 82.7993 136.934 87.2393 148.339C89.0235 152.942 90.9611 157.35 93.0068 161.562C98.1987 172.248 104.119 181.716 110.279 190.052C121.88 205.756 137.617 217.509 155.388 224.365C167.077 228.87 179.636 231.265 192.478 231.265H319.516C332.358 231.265 344.917 228.87 356.605 224.365C374.377 217.509 390.114 205.756 401.715 190.052C407.864 181.726 413.795 172.248 418.976 161.572C421.033 157.361 422.97 152.942 424.754 148.339C429.195 136.934 432.057 126.073 433.886 116.224C434.854 111.077 435.529 106.201 435.997 101.663C433.918 103.742 431.85 105.81 429.783 107.888ZM89.8075 242.903L133.568 286.673H202.839L168.209 321.301L195.145 348.236L256.71 286.673H377.043L420.827 242.903C405.949 228.037 381.832 228.026 366.956 242.903L361.285 248.584H149.349L143.668 242.903C136.235 235.47 126.484 231.748 116.743 231.748C106.992 231.748 97.2409 235.47 89.8075 242.903ZM266.307 303.987L208.009 361.1L233.126 386.216C245.38 398.469 265.247 398.469 277.5 386.216L359.732 303.987H266.307Z" fill="#E7F0FD"/>
</g>
</g>
<mask id="mask1_793_22" style="mask-type:luminance" maskUnits="userSpaceOnUse" x="280" y="287" width="174" height="175">
<path d="M454 287H280V462H454V287Z" fill="white"/>
</mask>
<g mask="url(#mask1_793_22)">
<path d="M367 461.863C415.049 461.863 454 422.801 454 374.615C454 326.429 415.049 287.367 367 287.367C318.951 287.367 280 326.429 280 374.615C280 422.801 318.951 461.863 367 461.863Z" fill="url(#paint4_radial_793_22)"/>
<path d="M333.726 397.552H321.346C322.356 416.936 338.527 433.787 367.205 433.787C395.757 433.787 413.949 418.077 413.949 397.805C413.949 359.29 355.961 361.444 355.961 339.146C355.961 332.938 360.636 325.59 371.5 325.59C383.629 325.59 397.904 335.092 398.915 347.254H411.169C409.906 327.617 390.83 313.934 366.574 313.934C341.433 313.934 322.483 328.63 322.483 349.408C322.483 389.063 380.47 383.869 380.47 408.321C380.47 415.923 375.796 422.257 364.047 422.257C349.392 422.257 334.611 411.995 333.726 397.552ZM344.086 342.06C344.086 372.213 401.568 366.258 401.568 398.439C401.568 408.068 395.251 416.556 387.671 418.71C390.324 416.176 392.346 410.601 392.346 405.28C392.346 375.507 334.737 379.561 334.737 349.028C334.737 338.766 341.306 330.531 349.518 327.997C346.36 331.798 344.086 336.739 344.086 342.06Z" fill="white"/>
</g>
</g>
<defs>
<filter id="filter0_ii_793_22" x="67.9971" y="93.6631" width="376" height="309.743" filterUnits="userSpaceOnUse" color-interpolation-filters="sRGB">
<feFlood flood-opacity="0" result="BackgroundImageFix"/>
<feBlend mode="normal" in="SourceGraphic" in2="BackgroundImageFix" result="shape"/>
<feColorMatrix in="SourceAlpha" type="matrix" values="0 0 0 0 0 0 0 0 0 0 0 0 0 0 0 0 0 0 127 0" result="hardAlpha"/>
<feOffset dx="-8" dy="-8"/>
<feGaussianBlur stdDeviation="4"/>
<feComposite in2="hardAlpha" operator="arithmetic" k2="-1" k3="1"/>
<feColorMatrix type="matrix" values="0 0 0 0 0.982 0 0 0 0 0.988545 0 0 0 0 0.998 0 0 0 1 0"/>
<feBlend mode="normal" in2="shape" result="effect1_innerShadow_793_22"/>
<feColorMatrix in="SourceAlpha" type="matrix" values="0 0 0 0 0 0 0 0 0 0 0 0 0 0 0 0 0 0 127 0" result="hardAlpha"/>
<feOffset dx="8" dy="8"/>
<feGaussianBlur stdDeviation="4"/>
<feComposite in2="hardAlpha" operator="arithmetic" k2="-1" k3="1"/>
<feColorMatrix type="matrix" values="0 0 0 0 0 0 0 0 0 0 0 0 0 0 0 0 0 0 0.25 0"/>
<feBlend mode="normal" in2="effect1_innerShadow_793_22" result="effect2_innerShadow_793_22"/>
</filter>
<linearGradient id="paint0_linear_793_22" x1="0" y1="0" x2="512" y2="512" gradientUnits="userSpaceOnUse">
<stop stop-color="#2E4DFF"/>
<stop offset="1" stop-color="#00378A"/>
</linearGradient>
<radialGradient id="paint1_radial_793_22" cx="0" cy="0" r="1" gradientUnits="userSpaceOnUse" gradientTransform="translate(261.389 512) rotate(-91.206) scale(256.057)">
<stop stop-color="#2E4DFF"/>
<stop offset="1" stop-color="#00378A"/>
</radialGradient>
<linearGradient id="paint2_linear_793_22" x1="0" y1="0" x2="512" y2="512" gradientUnits="userSpaceOnUse">
<stop stop-color="#2E4DFF"/>
<stop offset="1" stop-color="#00378A"/>
</linearGradient>
<radialGradient id="paint3_radial_793_22" cx="0" cy="0" r="1" gradientUnits="userSpaceOnUse" gradientTransform="translate(261.389 512) rotate(-91.206) scale(256.057)">
<stop stop-color="#2E4DFF"/>
<stop offset="1" stop-color="#00378A"/>
</radialGradient>
<radialGradient id="paint4_radial_793_22" cx="0" cy="0" r="1" gradientUnits="userSpaceOnUse" gradientTransform="translate(367 559.145) rotate(-90) scale(271.778 271.006)">
<stop stop-color="#FFEF79"/>
<stop offset="1" stop-color="#00C2A1"/>
</radialGradient>
<clipPath id="clip0_793_22">
<rect width="512" height="512" fill="white"/>
</clipPath>
</defs>
</svg>
