<svg width="537" height="453" viewBox="0 0 537 453" fill="none" xmlns="http://www.w3.org/2000/svg">
<g clip-path="url(#clip0_2_24847)">
<rect x="4.07697" y="4" width="260" height="260" rx="130" fill="white" fill-opacity="0.2"/>
<g clip-path="url(#clip1_2_24847)">
<path d="M134.077 264C206.119 264 264.077 206.042 264.077 134C264.077 61.9579 206.119 4 134.077 4C62.0349 4 4.07697 61.9579 4.07697 134C4.07697 206.042 62.0349 264 134.077 264Z" fill="#2775CA"/>
<path d="M169.827 154.583C169.827 135.625 158.452 129.125 135.702 126.417C119.452 124.25 116.202 119.917 116.202 112.333C116.202 104.749 121.619 99.875 132.452 99.875C142.202 99.875 147.619 103.125 150.327 111.25C150.869 112.875 152.494 113.958 154.119 113.958H162.785C164.952 113.958 166.577 112.333 166.577 110.167V109.625C164.41 97.7079 154.66 88.5 142.202 87.4171V74.4171C142.202 72.25 140.577 70.625 137.869 70.0829H129.744C127.577 70.0829 125.952 71.7079 125.41 74.4171V86.875C109.16 89.0421 98.8691 99.875 98.8691 113.417C98.8691 131.292 109.702 138.333 132.452 141.042C147.619 143.75 152.494 147 152.494 155.667C152.494 164.334 144.91 170.292 134.619 170.292C120.535 170.292 115.66 164.333 114.035 156.208C113.494 154.042 111.869 152.958 110.244 152.958H101.035C98.8691 152.958 97.2441 154.583 97.2441 156.75V157.292C99.4099 170.833 108.077 180.583 125.952 183.292V196.292C125.952 198.458 127.577 200.083 130.285 200.625H138.41C140.577 200.625 142.202 199 142.744 196.292V183.292C158.994 180.583 169.827 169.208 169.827 154.583Z" fill="white"/>
<path d="M106.452 211.458C64.202 196.292 42.5349 149.167 58.2441 107.458C66.3691 84.7079 84.2441 67.375 106.452 59.25C108.619 58.1671 109.702 56.5421 109.702 53.8329V46.25C109.702 44.0829 108.619 42.4579 106.452 41.9171C105.91 41.9171 104.827 41.9171 104.285 42.4579C52.827 58.7079 24.6599 113.417 40.9099 164.875C50.6599 195.208 73.952 218.5 104.285 228.25C106.452 229.333 108.619 228.25 109.16 226.083C109.702 225.542 109.702 225 109.702 223.917V216.333C109.702 214.708 108.077 212.542 106.452 211.458ZM163.869 42.4579C161.702 41.375 159.535 42.4579 158.994 44.625C158.452 45.1671 158.452 45.7079 158.452 46.7921V54.375C158.452 56.5421 160.077 58.7079 161.702 59.7921C203.952 74.9579 225.619 122.083 209.91 163.792C201.785 186.542 183.91 203.875 161.702 212C159.535 213.083 158.452 214.708 158.452 217.417V225C158.452 227.167 159.535 228.792 161.702 229.333C162.244 229.333 163.327 229.333 163.869 228.792C215.327 212.542 243.494 157.833 227.244 106.375C217.494 75.5 193.66 52.2079 163.869 42.4579Z" fill="white"/>
</g>
</g>
<rect x="2.07697" y="2" width="264" height="264" rx="132" stroke="white" stroke-opacity="0.2" stroke-width="4"/>
<g clip-path="url(#clip2_2_24847)">
<rect x="272.077" y="4" width="260" height="260" rx="130" fill="white" fill-opacity="0.2"/>
<g clip-path="url(#clip3_2_24847)">
<path d="M402.053 14.1374C378.367 14.1562 355.218 21.1966 335.532 34.3688C315.846 47.541 300.506 66.2536 291.453 88.1414C282.399 110.029 280.038 134.11 284.667 157.34C289.296 180.569 300.708 201.905 317.46 218.651C334.212 235.396 355.553 246.8 378.784 251.419C402.016 256.039 426.095 253.668 447.98 244.606C469.864 235.544 488.57 220.197 501.735 200.506C514.899 180.815 521.93 157.663 521.94 133.976C521.946 118.233 518.849 102.643 512.826 88.0975C506.803 73.552 497.971 60.3365 486.837 49.2066C475.703 38.0766 462.483 29.2506 447.936 23.2331C433.388 17.2157 417.796 14.1248 402.053 14.1374Z" fill="white"/>
<path d="M484.079 58.5661L476.94 65.705C493.975 84.3337 503.422 108.663 503.422 133.906C503.422 159.149 493.975 183.478 476.94 202.106L484.079 209.245C503.024 188.697 513.542 161.771 513.542 133.822C513.542 105.874 503.024 78.9482 484.079 58.3995V58.5661Z" fill="#5A5564"/>
<path d="M333.948 59.185C352.576 42.1503 376.905 32.7037 402.148 32.7037C427.391 32.7037 451.72 42.1503 470.349 59.185L477.488 52.0461C456.939 33.1017 430.014 22.584 402.065 22.584C374.116 22.584 347.191 33.1017 326.642 52.0461L333.948 59.185Z" fill="#5A5564"/>
<path d="M327.261 202.177C310.246 183.552 300.812 159.238 300.812 134.012C300.812 108.786 310.246 84.4714 327.261 65.847L320.122 58.708C301.178 79.2567 290.66 106.182 290.66 134.131C290.66 162.08 301.178 189.005 320.122 209.554L327.261 202.177Z" fill="#5A5564"/>
<path d="M470.254 208.768C451.625 225.803 427.296 235.25 402.053 235.25C376.81 235.25 352.481 225.803 333.853 208.768L326.714 215.907C347.262 234.852 374.188 245.369 402.136 245.369C430.085 245.369 457.011 234.852 477.559 215.907L470.254 208.768Z" fill="#5A5564"/>
<path d="M447.147 110.18C445.72 95.2832 432.87 90.2859 416.617 88.763V68.2504H404.052V88.3822C400.744 88.3822 397.365 88.3822 394.01 88.3822V68.2504H381.541V88.9057H356.055V102.351C356.055 102.351 365.335 102.184 365.192 102.351C366.866 102.167 368.545 102.639 369.877 103.669C371.209 104.699 372.089 106.206 372.331 107.872V164.412C372.296 164.999 372.142 165.574 371.881 166.101C371.619 166.628 371.255 167.098 370.808 167.482C370.371 167.873 369.858 168.171 369.302 168.36C368.746 168.548 368.158 168.621 367.572 168.576C367.739 168.719 358.434 168.576 358.434 168.576L356.055 183.592H381.303V204.58H393.867V183.901H403.909V204.485H416.498V183.735C437.724 182.45 452.525 177.214 454.382 157.344C455.881 141.353 448.361 134.214 436.344 131.335C443.649 127.742 448.171 121.079 447.147 110.18ZM429.538 154.869C429.538 170.48 402.791 168.695 394.272 168.695V140.996C402.791 141.02 429.538 138.569 429.538 154.869ZM423.708 115.843C423.708 130.121 401.387 128.384 394.296 128.384V103.207C401.387 103.207 423.708 100.971 423.708 115.843Z" fill="#F09242"/>
<path d="M402.053 264C376.344 263.995 351.213 256.368 329.838 242.081C308.463 227.795 291.805 207.491 281.968 183.738C272.132 159.984 269.559 133.848 274.576 108.632C279.593 83.4172 291.974 60.2556 310.153 42.0762C328.333 23.8968 351.494 11.516 376.709 6.49913C401.925 1.4823 428.061 4.05472 451.815 13.8912C475.568 23.7276 495.872 40.3863 510.158 61.7611C524.445 83.1358 532.072 108.267 532.077 133.976C532.08 151.052 528.719 167.961 522.186 183.738C515.653 199.515 506.075 213.849 494.001 225.924C481.926 237.998 467.592 247.576 451.815 254.109C436.038 260.642 419.129 264.003 402.053 264ZM402.053 14.1373C378.367 14.1562 355.218 21.1966 335.532 34.3688C315.846 47.5409 300.506 66.2536 291.453 88.1414C282.399 110.029 280.038 134.11 284.667 157.34C289.296 180.569 300.708 201.905 317.46 218.651C334.212 235.396 355.553 246.799 378.784 251.419C402.016 256.039 426.095 253.668 447.98 244.606C469.864 235.544 488.57 220.197 501.735 200.506C514.899 180.815 521.93 157.663 521.94 133.976C521.946 118.233 518.849 102.643 512.826 88.0975C506.802 73.552 497.971 60.3365 486.837 49.2066C475.702 38.0766 462.483 29.2506 447.936 23.2331C433.388 17.2157 417.796 14.1248 402.053 14.1373Z" fill="#282138"/>
</g>
</g>
<rect x="270.077" y="2" width="264" height="264" rx="132" stroke="white" stroke-opacity="0.2" stroke-width="4"/>
<g clip-path="url(#clip4_2_24847)">
<rect x="138.077" y="189" width="260" height="260" rx="130" fill="white" fill-opacity="0.2"/>
<g clip-path="url(#clip5_2_24847)">
<path d="M268.077 449C339.874 449 398.077 390.797 398.077 319C398.077 247.203 339.874 189 268.077 189C196.28 189 138.077 247.203 138.077 319C138.077 390.797 196.28 449 268.077 449Z" fill="#627EEA"/>
<path d="M272.123 221.5V293.569L333.036 320.787L272.123 221.5Z" fill="white" fill-opacity="0.602"/>
<path d="M272.123 221.5L211.202 320.787L272.123 293.569V221.5Z" fill="white"/>
<path d="M272.123 367.49V416.459L333.077 332.13L272.123 367.49Z" fill="white" fill-opacity="0.602"/>
<path d="M272.123 416.459V367.482L211.202 332.13L272.123 416.459Z" fill="white"/>
<path d="M272.123 356.156L333.036 320.787L272.123 293.585V356.156Z" fill="white" fill-opacity="0.2"/>
<path d="M211.202 320.787L272.123 356.156V293.585L211.202 320.787Z" fill="white" fill-opacity="0.602"/>
</g>
</g>
<rect x="136.077" y="187" width="264" height="264" rx="132" stroke="white" stroke-opacity="0.2" stroke-width="4"/>
<defs>
<clipPath id="clip0_2_24847">
<rect x="4.07697" y="4" width="260" height="260" rx="130" fill="white"/>
</clipPath>
<clipPath id="clip1_2_24847">
<rect width="260" height="260" fill="white" transform="translate(4.07697 4)"/>
</clipPath>
<clipPath id="clip2_2_24847">
<rect x="272.077" y="4" width="260" height="260" rx="130" fill="white"/>
</clipPath>
<clipPath id="clip3_2_24847">
<rect width="260" height="260" fill="white" transform="translate(272.077 4)"/>
</clipPath>
<clipPath id="clip4_2_24847">
<rect x="138.077" y="189" width="260" height="260" rx="130" fill="white"/>
</clipPath>
<clipPath id="clip5_2_24847">
<rect width="260" height="260" fill="white" transform="translate(138.077 189)"/>
</clipPath>
</defs>
</svg>
