<svg width="537" height="453" viewBox="0 0 537 453" fill="none" xmlns="http://www.w3.org/2000/svg">
<rect x="4.5575" y="4" width="260" height="260" rx="130" fill="#00A3FF"/>
<rect x="2.55749" y="2" width="264" height="264" rx="132" stroke="white" stroke-opacity="0.2" stroke-width="4"/>
<g clip-path="url(#clip0_2_24844)">
<path d="M78.902 124.48L77.4374 126.677C60.5942 153.04 64.2558 187.459 86.9574 209.428C99.4067 222.609 116.982 229.2 134.558 229.2C134.558 229.2 134.558 229.2 78.902 124.48Z" fill="white"/>
<path opacity="0.6" d="M134.557 155.969L78.902 123.748C134.557 229.2 134.557 229.2 134.557 229.2C134.557 206.499 134.557 180.135 134.557 155.969Z" fill="white"/>
<path opacity="0.6" d="M190.213 124.48L191.678 126.677C208.521 153.04 204.859 187.459 182.158 209.428C168.976 222.609 152.133 229.2 134.558 229.2C134.558 229.2 134.558 229.2 190.213 124.48Z" fill="white"/>
<path opacity="0.2" d="M134.558 155.969L190.213 123.748C134.558 229.2 134.558 229.2 134.558 229.2C134.558 206.499 134.558 180.135 134.558 155.969Z" fill="white"/>
<path opacity="0.2" d="M134.558 84.9353V139.859L182.89 112.763L134.558 84.9353Z" fill="white"/>
<path opacity="0.6" d="M134.558 84.9353L86.2251 112.763L134.558 139.859V84.9353Z" fill="white"/>
<path d="M134.558 38.7998L86.2251 112.763L134.558 84.9353V38.7998Z" fill="white"/>
<path opacity="0.6" d="M134.558 84.9353L182.89 112.763L134.558 38.7998V84.9353Z" fill="white"/>
</g>
<g clip-path="url(#clip1_2_24844)">
<rect x="272.557" y="4" width="260" height="260" rx="130" fill="white" fill-opacity="0.2"/>
<g clip-path="url(#clip2_2_24844)">
<mask id="mask0_2_24844" style="mask-type:luminance" maskUnits="userSpaceOnUse" x="272" y="4" width="261" height="260">
<path d="M532.557 4H272.557V264H532.557V4Z" fill="white"/>
</mask>
<g mask="url(#mask0_2_24844)">
<path d="M402.557 264C474.354 264 532.557 205.797 532.557 134C532.557 62.2032 474.354 4 402.557 4C330.761 4 272.557 62.2032 272.557 134C272.557 205.797 330.761 264 402.557 264Z" fill="url(#paint0_radial_2_24844)"/>
<mask id="mask1_2_24844" style="mask-type:alpha" maskUnits="userSpaceOnUse" x="272" y="4" width="261" height="260">
<path d="M402.557 264C474.354 264 532.557 205.797 532.557 134C532.557 62.2032 474.354 4 402.557 4C330.761 4 272.557 62.2032 272.557 134C272.557 205.797 330.761 264 402.557 264Z" fill="url(#paint1_radial_2_24844)"/>
</mask>
<g mask="url(#mask1_2_24844)">
<path opacity="0.2" d="M268.224 75.5C268.224 72.6283 270.552 70.3 273.424 70.3H344.491C347.362 70.3 349.691 72.6283 349.691 75.5V196.4C349.691 199.272 347.362 201.6 344.491 201.6H273.424C270.552 201.6 268.224 199.272 268.224 196.4V75.5Z" fill="url(#paint2_linear_2_24844)"/>
<path opacity="0.2" d="M429.424 180.367C429.424 177.495 431.752 175.167 434.624 175.167H527.357C530.229 175.167 532.557 177.495 532.557 180.367V225.433C532.557 228.305 530.229 230.633 527.357 230.633H434.624C431.752 230.633 429.424 228.305 429.424 225.433V180.367Z" fill="#E74310"/>
<path opacity="0.2" d="M489.657 194.233C492.529 194.233 494.857 196.562 494.857 199.433V286.967C494.857 289.838 492.529 292.167 489.657 292.167H455.424C452.552 292.167 450.224 289.838 450.224 286.967V199.433C450.224 196.562 452.552 194.233 455.424 194.233H489.657Z" fill="#DF3600"/>
<path opacity="0.1" d="M377.858 88.5C380.729 88.5 383.058 90.8283 383.058 93.7V163.467C383.058 166.338 380.729 168.667 377.858 168.667H339.291C336.419 168.667 334.091 166.338 334.091 163.467V93.7C334.091 90.8283 336.419 88.5 339.291 88.5H377.858Z" fill="url(#paint3_linear_2_24844)"/>
<path opacity="0.1" d="M297.257 109.3C297.257 106.428 299.586 104.1 302.457 104.1H365.724C368.596 104.1 370.924 106.428 370.924 109.3V175.6C370.924 178.472 368.596 180.8 365.724 180.8H302.457C299.586 180.8 297.257 178.472 297.257 175.6V109.3Z" fill="url(#paint4_linear_2_24844)"/>
<path opacity="0.2" d="M532.557 39.5333C535.429 39.5333 537.757 41.8615 537.757 44.7333V132.267C537.757 135.138 535.429 137.467 532.557 137.467H451.957C449.086 137.467 446.757 135.138 446.757 132.267V44.7333C446.757 41.8615 449.086 39.5333 451.957 39.5333H532.557Z" fill="#FF9776"/>
<path opacity="0.2" d="M483.591 -18.5334C486.462 -18.5334 488.791 -16.2052 488.791 -13.3334V82.8667C488.791 85.7383 486.462 88.0667 483.591 88.0667H438.524C435.652 88.0667 433.324 85.7383 433.324 82.8667V-13.3334C433.324 -16.2052 435.652 -18.5334 438.524 -18.5334H483.591Z" fill="#FFCA8C"/>
<path opacity="0.2" d="M506.991 -1.19998C509.862 -1.19998 512.191 1.12814 512.191 4.00002V111.033C512.191 113.905 509.862 116.233 506.991 116.233H409.057C406.186 116.233 403.857 113.905 403.857 111.033V4.00002C403.857 1.12814 406.186 -1.19998 409.057 -1.19998H506.991Z" fill="url(#paint5_linear_2_24844)"/>
<path opacity="0.1" d="M364.424 -31.5333C367.296 -31.5333 369.624 -29.2052 369.624 -26.3333V45.6C369.624 48.4717 367.296 50.8 364.424 50.8H330.191C327.319 50.8 324.991 48.4717 324.991 45.6V-26.3333C324.991 -29.2052 327.319 -31.5333 330.191 -31.5333H364.424Z" fill="#DF3600"/>
<path opacity="0.1" d="M368.324 191.633C371.196 191.633 373.524 193.962 373.524 196.833V258.8C373.524 261.672 371.196 264 368.324 264H281.224C278.352 264 276.024 261.672 276.024 258.8L276.024 196.833C276.024 193.962 278.352 191.633 281.224 191.633H368.324Z" fill="#DF3600"/>
<path opacity="0.1" d="M445.024 156.967C447.896 156.967 450.224 159.295 450.224 162.167V258.8C450.224 261.672 447.896 264 445.024 264H345.357C342.486 264 340.157 261.672 340.157 258.8V162.167C340.157 159.295 342.486 156.967 345.357 156.967H445.024Z" fill="#FFD494"/>
<path opacity="0.2" d="M412.091 4C414.963 4 417.291 6.32812 417.291 9.2V34.3333C417.291 37.2052 414.963 39.5333 412.091 39.5333H308.091C305.219 39.5333 302.891 37.2052 302.891 34.3333V9.2C302.891 6.32812 305.219 4 308.091 4L412.091 4Z" fill="#FFD494"/>
<path opacity="0.1" d="M330.082 261.468L524.825 66.7245L518.146 60.0455L323.403 254.789L330.082 261.468Z" fill="#DF3600"/>
<path opacity="0.1" d="M315.473 247.293L510.217 52.5489L501.521 43.8531L306.777 238.597L315.473 247.293Z" fill="#DF3600"/>
<path opacity="0.1" d="M307.253 238.206L501.997 43.4626L493.301 34.7667L298.557 229.511L307.253 238.206Z" fill="#F45C2C"/>
<path opacity="0.2" d="M299.453 228.673L494.197 33.9292L487.04 26.7723L292.296 221.516L299.453 228.673Z" fill="#F45C2C"/>
<path opacity="0.1" d="M292.281 221.501L487.025 26.7568L479.868 19.5999L285.124 214.344L292.281 221.501Z" fill="#FFBC6E"/>
<path opacity="0.1" d="M287.514 211.967L482.258 17.2234L475.101 10.0665L280.358 204.81L287.514 211.967Z" fill="#DF3600"/>
<path opacity="0.09" d="M264.548 154.767L418.105 1.20999L410.948 -5.9469L257.391 147.61L264.548 154.767Z" fill="#FFD5A4"/>
<path opacity="0.08" d="M256.314 146.081L409.872 -7.47656L402.715 -14.6335L249.157 138.924L256.314 146.081Z" fill="#FFD5A4"/>
<path opacity="0.05" d="M248.948 136.114L402.505 -17.4432L395.348 -24.6001L241.791 128.957L248.948 136.114Z" fill="#FFD5A4"/>
<path opacity="0.2" d="M276.681 175.638L455.029 -2.7099L447.872 -9.86679L269.524 168.481L276.681 175.638Z" fill="#FFD5A4"/>
<path opacity="0.2" d="M281.447 186.904L459.795 8.55676L452.638 1.39987L274.291 179.748L281.447 186.904Z" fill="#FFD5A4"/>
<path opacity="0.1" d="M273.648 162.567L431.937 4.27805L424.78 -2.87884L266.491 155.41L273.648 162.567Z" fill="#FFD5A4"/>
<path opacity="0.1" d="M329.794 261.614L524.538 66.8702L510.26 52.5918L315.516 247.336L329.794 261.614Z" fill="#DF3600"/>
<path opacity="0.1" d="M329.794 261.614L524.538 66.8702L510.187 52.5191L315.443 247.263L329.794 261.614Z" fill="#DF3600"/>
</g>
<path d="M402.365 162.05L352.905 132.791L402.365 50.7424L451.781 132.791L402.365 162.05Z" fill="white"/>
<path d="M402.365 211.866L352.905 142.204L402.365 171.418L451.826 142.204L402.365 211.866Z" fill="white"/>
</g>
</g>
</g>
<rect x="270.557" y="2" width="264" height="264" rx="132" stroke="white" stroke-opacity="0.2" stroke-width="4"/>
<g clip-path="url(#clip3_2_24844)">
<rect x="138.557" y="189" width="260" height="260" rx="130" fill="white" fill-opacity="0.2"/>
<path d="M268.557 449C251.011 449 233.987 445.56 217.954 438.782C202.471 432.233 188.574 422.859 176.632 410.926C164.699 398.992 155.325 385.087 148.776 369.604C141.997 353.571 138.557 336.547 138.557 319C138.557 301.453 141.997 284.429 148.776 268.396C155.325 252.913 164.699 239.017 176.632 227.075C188.574 215.141 202.471 205.767 217.954 199.218C233.987 192.44 251.011 189 268.557 189C286.104 189 303.128 192.44 319.161 199.218C334.644 205.767 348.541 215.141 360.483 227.075C372.416 239.008 381.79 252.913 388.339 268.396C395.118 284.429 398.557 301.453 398.557 319C398.557 336.547 395.118 353.571 388.339 369.604C381.79 385.087 372.416 398.983 360.483 410.926C348.55 422.859 334.644 432.233 319.161 438.782C303.128 445.57 286.104 449 268.557 449Z" fill="white"/>
<path d="M268.557 442.112C336.55 442.112 391.669 386.993 391.669 319C391.669 251.007 336.55 195.888 268.557 195.888C200.565 195.888 145.446 251.007 145.446 319C145.446 386.993 200.565 442.112 268.557 442.112Z" fill="black"/>
<path d="M271.584 270.029C288.03 271.496 300.973 285.117 301.376 301.848L326.609 312.332L313.456 290.887L341.423 262.92L324.711 246.208L300.752 270.175L271.594 222.626V270.029H271.584Z" fill="white"/>
<path d="M300.945 308.076C298.524 322.641 286.489 333.951 271.584 335.29V352.608L327.114 318.954L300.945 308.076Z" fill="white"/>
<path d="M236.317 308.076L210.148 318.945L265.677 352.598V335.281C250.772 333.951 238.738 322.641 236.317 308.076Z" fill="white"/>
<path d="M326.49 336.602L271.584 369.879V413.952L294.176 382.115L317.758 405.697L334.47 388.985L308.054 362.569L326.49 336.602Z" fill="white"/>
<path d="M265.677 369.879L210.771 336.602L229.208 362.569L202.792 388.985L219.504 405.697L243.086 382.124L265.677 413.943V369.879Z" fill="white"/>
<path d="M210.652 312.341L235.885 301.857C236.289 285.126 249.231 271.505 265.677 270.038V222.626L236.518 270.175L212.551 246.208L195.839 262.929L223.805 290.896L210.652 312.341Z" fill="white"/>
<path d="M269.787 298.894C261.687 296.408 261.687 295.033 261.687 293.923C261.687 292.382 264.017 290.254 268.392 290.254C270.979 290.254 275.327 290.896 275.327 295.225H283.206C283.206 287.539 277.253 282.375 268.392 282.375C258.917 282.375 253.808 288.328 253.808 293.923C253.808 301.572 260.522 304.288 267.42 306.415C275.519 308.901 275.565 310.295 275.565 311.405C275.565 312.946 273.235 315.074 268.86 315.074C266.264 315.074 261.926 314.432 261.926 310.103H254.047C254.047 317.789 260 322.953 268.86 322.953C278.335 322.953 283.444 317 283.444 311.405C283.453 303.746 276.693 301.013 269.787 298.894Z" fill="white"/>
</g>
<rect x="136.557" y="187" width="264" height="264" rx="132" stroke="white" stroke-opacity="0.2" stroke-width="4"/>
<defs>
<radialGradient id="paint0_radial_2_24844" cx="0" cy="0" r="1" gradientUnits="userSpaceOnUse" gradientTransform="translate(357.491 66.1833) rotate(54.1675) scale(215.402)">
<stop stop-color="#FFD794"/>
<stop offset="1" stop-color="#ED5A37"/>
</radialGradient>
<radialGradient id="paint1_radial_2_24844" cx="0" cy="0" r="1" gradientUnits="userSpaceOnUse" gradientTransform="translate(357.491 66.1833) rotate(54.1675) scale(215.402)">
<stop stop-color="#FFD794"/>
<stop offset="1" stop-color="#ED5A37"/>
</radialGradient>
<linearGradient id="paint2_linear_2_24844" x1="308.957" y1="70.3" x2="308.957" y2="201.6" gradientUnits="userSpaceOnUse">
<stop stop-color="#FFE090"/>
<stop offset="1" stop-color="#FFE090" stop-opacity="0"/>
</linearGradient>
<linearGradient id="paint3_linear_2_24844" x1="358.358" y1="88.5" x2="358.358" y2="162.6" gradientUnits="userSpaceOnUse">
<stop stop-color="#DF3600"/>
<stop offset="1" stop-color="#DF3600" stop-opacity="0"/>
</linearGradient>
<linearGradient id="paint4_linear_2_24844" x1="297.257" y1="142.789" x2="365.349" y2="142.789" gradientUnits="userSpaceOnUse">
<stop stop-color="#DF3600"/>
<stop offset="1" stop-color="#DF3600" stop-opacity="0"/>
</linearGradient>
<linearGradient id="paint5_linear_2_24844" x1="458.024" y1="-1.19998" x2="458.024" y2="116.233" gradientUnits="userSpaceOnUse">
<stop stop-color="#DF3600"/>
<stop offset="1" stop-color="#DF3600" stop-opacity="0"/>
</linearGradient>
<clipPath id="clip0_2_24844">
<rect width="136.21" height="190.4" fill="white" transform="translate(66.4528 38.7998)"/>
</clipPath>
<clipPath id="clip1_2_24844">
<rect x="272.557" y="4" width="260" height="260" rx="130" fill="white"/>
</clipPath>
<clipPath id="clip2_2_24844">
<rect width="260" height="260" fill="white" transform="translate(272.557 4)"/>
</clipPath>
<clipPath id="clip3_2_24844">
<rect x="138.557" y="189" width="260" height="260" rx="130" fill="white"/>
</clipPath>
</defs>
</svg>
