<svg width="537" height="453" viewBox="0 0 537 453" fill="none" xmlns="http://www.w3.org/2000/svg">
<g clip-path="url(#clip0_2_24848)">
<rect x="4.07703" y="4" width="260" height="260" rx="130" fill="white" fill-opacity="0.2"/>
<g clip-path="url(#clip1_2_24848)">
<path d="M134.232 -4.6413C107.974 -4.62043 82.3111 3.18636 60.4877 17.7923C38.6643 32.3983 21.6598 53.1478 11.6233 77.4182C1.58682 101.689 -1.03104 128.39 4.10061 154.149C9.23225 179.907 21.883 203.565 40.454 222.133C59.0249 240.702 82.6824 253.346 108.436 258.469C134.19 263.592 160.884 260.963 185.144 250.914C209.405 240.865 230.142 223.848 244.736 202.014C259.329 180.179 267.124 154.507 267.134 128.242C267.141 110.785 263.708 93.4982 257.031 77.3694C250.354 61.2407 240.564 46.5866 228.22 34.2452C215.877 21.9038 201.223 12.117 185.096 5.44456C168.968 -1.22789 151.684 -4.65517 134.232 -4.6413Z" fill="#50AF95"/>
<path fill-rule="evenodd" clip-rule="evenodd" d="M151.875 146.339C150.946 146.409 146.148 146.695 135.446 146.695C126.933 146.695 120.89 146.44 118.769 146.339C85.8732 144.892 61.3191 139.165 61.3191 132.308C61.3191 125.451 85.8732 119.732 118.769 118.261V140.635C120.921 140.79 127.081 141.154 135.593 141.154C145.808 141.154 150.923 140.728 151.844 140.643V118.277C184.67 119.739 209.17 125.466 209.17 132.308C209.17 139.149 184.678 144.877 151.844 146.332L151.875 146.339ZM151.875 115.963V95.941H197.686V65.4095H72.9577V95.941H118.762V115.955C81.5319 117.665 53.5342 125.041 53.5342 133.879C53.5342 142.717 81.5319 150.085 118.762 151.803V215.962H151.867V151.78C189.011 150.07 216.963 142.702 216.963 133.871C216.963 125.041 189.035 117.673 151.867 115.955L151.875 115.963Z" fill="white"/>
</g>
</g>
<rect x="2.07703" y="2" width="264" height="264" rx="132" stroke="white" stroke-opacity="0.2" stroke-width="4"/>
<g clip-path="url(#clip2_2_24848)">
<rect x="272.077" y="4" width="260" height="260" rx="130" fill="white" fill-opacity="0.2"/>
<g clip-path="url(#clip3_2_24848)">
<path d="M402.053 14.1374C378.367 14.1562 355.218 21.1966 335.532 34.3688C315.846 47.541 300.507 66.2536 291.453 88.1414C282.399 110.029 280.038 134.11 284.667 157.34C289.296 180.569 300.708 201.905 317.46 218.651C334.212 235.396 355.553 246.8 378.784 251.419C402.016 256.039 426.095 253.668 447.98 244.606C469.864 235.544 488.57 220.197 501.735 200.506C514.899 180.815 521.93 157.663 521.94 133.976C521.946 118.233 518.849 102.643 512.826 88.0975C506.803 73.552 497.971 60.3365 486.837 49.2066C475.703 38.0766 462.484 29.2506 447.936 23.2331C433.388 17.2157 417.797 14.1248 402.053 14.1374Z" fill="white"/>
<path d="M484.079 58.5661L476.941 65.705C493.975 84.3337 503.422 108.663 503.422 133.906C503.422 159.149 493.975 183.478 476.941 202.106L484.079 209.245C503.024 188.697 513.542 161.771 513.542 133.822C513.542 105.874 503.024 78.9482 484.079 58.3995V58.5661Z" fill="#5A5564"/>
<path d="M333.948 59.185C352.576 42.1503 376.905 32.7037 402.148 32.7037C427.391 32.7037 451.72 42.1503 470.349 59.185L477.488 52.0461C456.939 33.1017 430.014 22.584 402.065 22.584C374.116 22.584 347.191 33.1017 326.642 52.0461L333.948 59.185Z" fill="#5A5564"/>
<path d="M327.261 202.177C310.246 183.552 300.812 159.238 300.812 134.012C300.812 108.786 310.246 84.4714 327.261 65.847L320.122 58.708C301.178 79.2567 290.66 106.182 290.66 134.131C290.66 162.08 301.178 189.005 320.122 209.554L327.261 202.177Z" fill="#5A5564"/>
<path d="M470.254 208.768C451.625 225.803 427.296 235.25 402.053 235.25C376.81 235.25 352.481 225.803 333.853 208.768L326.714 215.907C347.262 234.852 374.188 245.369 402.136 245.369C430.085 245.369 457.011 234.852 477.559 215.907L470.254 208.768Z" fill="#5A5564"/>
<path d="M447.147 110.18C445.72 95.2832 432.87 90.2859 416.617 88.763V68.2504H404.052V88.3822C400.744 88.3822 397.365 88.3822 394.01 88.3822V68.2504H381.541V88.9057H356.055V102.351C356.055 102.351 365.335 102.184 365.192 102.351C366.866 102.167 368.545 102.639 369.877 103.669C371.209 104.699 372.089 106.206 372.331 107.872V164.412C372.296 164.999 372.142 165.574 371.881 166.101C371.619 166.628 371.255 167.098 370.808 167.482C370.371 167.873 369.858 168.171 369.302 168.36C368.746 168.548 368.157 168.621 367.572 168.576C367.739 168.719 358.434 168.576 358.434 168.576L356.055 183.592H381.303V204.58H393.867V183.901H403.909V204.485H416.498V183.735C437.724 182.45 452.525 177.214 454.381 157.344C455.881 141.353 448.361 134.214 436.344 131.335C443.649 127.742 448.171 121.079 447.147 110.18ZM429.538 154.869C429.538 170.48 402.791 168.695 394.272 168.695V140.996C402.791 141.02 429.538 138.569 429.538 154.869ZM423.708 115.843C423.708 130.121 401.387 128.384 394.295 128.384V103.207C401.387 103.207 423.708 100.971 423.708 115.843Z" fill="#F09242"/>
<path d="M402.053 264C376.344 263.995 351.213 256.368 329.838 242.081C308.463 227.795 291.805 207.491 281.968 183.738C272.132 159.984 269.559 133.848 274.576 108.632C279.593 83.4172 291.974 60.2556 310.153 42.0762C328.333 23.8968 351.494 11.516 376.71 6.49913C401.925 1.4823 428.062 4.05472 451.815 13.8912C475.568 23.7276 495.872 40.3863 510.158 61.7611C524.445 83.1358 532.072 108.267 532.077 133.976C532.08 151.052 528.719 167.961 522.186 183.738C515.653 199.515 506.075 213.849 494.001 225.924C481.927 237.998 467.592 247.576 451.815 254.109C436.038 260.642 419.129 264.003 402.053 264ZM402.053 14.1373C378.367 14.1562 355.218 21.1966 335.532 34.3688C315.846 47.5409 300.507 66.2536 291.453 88.1414C282.399 110.029 280.038 134.11 284.667 157.34C289.296 180.569 300.708 201.905 317.46 218.651C334.212 235.396 355.553 246.799 378.784 251.419C402.016 256.039 426.095 253.668 447.98 244.606C469.864 235.544 488.57 220.197 501.735 200.506C514.899 180.815 521.93 157.663 521.94 133.976C521.946 118.233 518.849 102.643 512.826 88.0975C506.803 73.552 497.971 60.3365 486.837 49.2066C475.703 38.0766 462.484 29.2506 447.936 23.2331C433.388 17.2157 417.797 14.1248 402.053 14.1373Z" fill="#282138"/>
</g>
</g>
<rect x="270.077" y="2" width="264" height="264" rx="132" stroke="white" stroke-opacity="0.2" stroke-width="4"/>
<g clip-path="url(#clip4_2_24848)">
<rect x="138.077" y="189" width="260" height="260" rx="130" fill="white" fill-opacity="0.2"/>
<g clip-path="url(#clip5_2_24848)">
<path d="M268.077 449C339.874 449 398.077 390.797 398.077 319C398.077 247.203 339.874 189 268.077 189C196.28 189 138.077 247.203 138.077 319C138.077 390.797 196.28 449 268.077 449Z" fill="#627EEA"/>
<path d="M272.123 221.5V293.569L333.036 320.787L272.123 221.5Z" fill="white" fill-opacity="0.602"/>
<path d="M272.123 221.5L211.202 320.787L272.123 293.569V221.5Z" fill="white"/>
<path d="M272.123 367.49V416.459L333.077 332.13L272.123 367.49Z" fill="white" fill-opacity="0.602"/>
<path d="M272.123 416.459V367.482L211.202 332.13L272.123 416.459Z" fill="white"/>
<path d="M272.123 356.156L333.036 320.787L272.123 293.585V356.156Z" fill="white" fill-opacity="0.2"/>
<path d="M211.202 320.787L272.123 356.156V293.585L211.202 320.787Z" fill="white" fill-opacity="0.602"/>
</g>
</g>
<rect x="136.077" y="187" width="264" height="264" rx="132" stroke="white" stroke-opacity="0.2" stroke-width="4"/>
<defs>
<clipPath id="clip0_2_24848">
<rect x="4.07703" y="4" width="260" height="260" rx="130" fill="white"/>
</clipPath>
<clipPath id="clip1_2_24848">
<rect width="298.885" height="260" fill="white" transform="translate(-15.3655 4)"/>
</clipPath>
<clipPath id="clip2_2_24848">
<rect x="272.077" y="4" width="260" height="260" rx="130" fill="white"/>
</clipPath>
<clipPath id="clip3_2_24848">
<rect width="260" height="260" fill="white" transform="translate(272.077 4)"/>
</clipPath>
<clipPath id="clip4_2_24848">
<rect x="138.077" y="189" width="260" height="260" rx="130" fill="white"/>
</clipPath>
<clipPath id="clip5_2_24848">
<rect width="260" height="260" fill="white" transform="translate(138.077 189)"/>
</clipPath>
</defs>
</svg>
