<svg width="128" height="128" viewBox="0 0 128 128" fill="none" xmlns="http://www.w3.org/2000/svg">
<g clip-path="url(#clip0_6334_27574)">
<path d="M63.9619 3.38086C97.42 3.38086 124.543 30.5038 124.543 63.9619C124.543 97.42 97.42 124.543 63.9619 124.543C30.5038 124.543 3.38086 97.42 3.38086 63.9619C3.38087 30.5038 30.5038 3.38087 63.9619 3.38086Z" fill="url(#paint0_linear_6334_27574)"/>
<path d="M63.9619 3.38086C97.42 3.38086 124.543 30.5038 124.543 63.9619C124.543 97.42 97.42 124.543 63.9619 124.543C30.5038 124.543 3.38086 97.42 3.38086 63.9619C3.38087 30.5038 30.5038 3.38087 63.9619 3.38086Z" stroke="url(#paint1_linear_6334_27574)" stroke-width="6.7613"/>
<path d="M63.9619 3.38086C97.42 3.38086 124.543 30.5038 124.543 63.9619C124.543 97.42 97.42 124.543 63.9619 124.543C30.5038 124.543 3.38086 97.42 3.38086 63.9619C3.38087 30.5038 30.5038 3.38087 63.9619 3.38086Z" stroke="url(#paint2_linear_6334_27574)" stroke-width="6.7613"/>
<path d="M91.3011 57.2912C92.5104 49.206 86.3542 44.8599 77.9361 41.9607L80.667 31.0086L73.9994 29.3474L71.341 40.0111C69.5881 39.5739 67.788 39.1621 65.9988 38.7537L68.6766 28.0196L62.0131 26.3584L59.2807 37.3069C57.8302 36.9767 56.4055 36.6503 55.0233 36.3064L55.031 36.272L45.8362 33.9762L44.0625 41.0968C44.0625 41.0968 49.0093 42.2306 48.9051 42.3004C51.6051 42.9742 52.0934 44.7613 52.0123 46.1779L48.9015 58.6549C49.0874 58.7021 49.3286 58.7704 49.5947 58.8773C49.3723 58.822 49.1356 58.7618 48.8899 58.703L44.5297 76.1815C44.1997 77.0017 43.3622 78.2326 41.4745 77.7652C41.5413 77.862 36.6283 76.5559 36.6283 76.5559L33.318 84.1873L41.9948 86.3501C43.609 86.7549 45.1908 87.1784 46.7486 87.5766L43.9895 98.6543L50.6494 100.316L53.3817 89.3554C55.2012 89.8493 56.9668 90.3048 58.6953 90.7342L55.9722 101.643L62.6401 103.304L65.3989 92.247C76.7686 94.3985 85.3177 93.5311 88.9162 83.2483C91.8158 74.9695 88.7718 70.1943 82.7903 67.0804C87.1469 66.0757 90.4285 63.2106 91.3034 57.2921L91.3014 57.2906L91.3011 57.2912ZM76.0671 78.6507C74.0065 86.9295 60.066 82.4542 55.5463 81.332L59.2077 66.656C63.7271 67.7842 78.2206 70.0167 76.0674 78.6507H76.0671ZM78.1292 57.1712C76.2495 64.7017 64.6466 60.8759 60.8827 59.9377L64.2023 46.6275C67.9662 47.5656 80.0873 49.3165 78.1298 57.1712H78.1292Z" fill="white"/>
<rect x="4.22644" y="47.5508" width="13.1287" height="35.4476" fill="#91029B"/>
<path d="M0.287354 65.2746C0.287354 55.486 8.22257 47.5508 18.0112 47.5508V47.5508C27.7997 47.5508 35.735 55.486 35.735 65.2746V65.2746C35.735 75.0632 27.7997 82.9984 18.0112 82.9984V82.9984C8.22257 82.9984 0.287354 75.0632 0.287354 65.2746V65.2746Z" fill="#91029B"/>
<path d="M17.4374 56.6382V69.3588C17.4374 69.7139 17.1399 70.0018 16.773 70.0018H9.03985C8.52595 70.0018 8.20658 69.4615 8.46714 69.0329L16.2003 56.3122C16.5435 55.7476 17.4374 55.9831 17.4374 56.6382Z" fill="#F2EBFF"/>
<path d="M18.5845 75.2256L18.5846 62.5049C18.5846 62.1498 18.882 61.862 19.249 61.862L26.9821 61.862C27.496 61.862 27.8154 62.4023 27.5548 62.8309L19.8217 75.5516C19.4785 76.1162 18.5845 75.8806 18.5845 75.2256Z" fill="#F2EBFF"/>
</g>
<defs>
<linearGradient id="paint0_linear_6334_27574" x1="64.3309" y1="52.515" x2="64.3309" y2="147.698" gradientUnits="userSpaceOnUse">
<stop stop-color="#F79211"/>
<stop offset="1" stop-color="#91029B"/>
</linearGradient>
<linearGradient id="paint1_linear_6334_27574" x1="119.925" y1="63.9619" x2="6.07701" y2="63.9619" gradientUnits="userSpaceOnUse">
<stop offset="1" stop-color="#9B0275"/>
</linearGradient>
<linearGradient id="paint2_linear_6334_27574" x1="115.82" y1="63.9619" x2="0" y2="63.9619" gradientUnits="userSpaceOnUse">
<stop stop-color="#B02F70"/>
<stop offset="1" stop-color="#91029B"/>
</linearGradient>
<clipPath id="clip0_6334_27574">
<rect width="127.924" height="127.924" fill="white"/>
</clipPath>
</defs>
</svg>
