<svg width="128" height="128" viewBox="0 0 128 128" fill="none" xmlns="http://www.w3.org/2000/svg">
<g clip-path="url(#clip0_6334_27589)">
<rect x="0.0439453" y="0.0761719" width="127.924" height="127.924" fill="url(#paint0_linear_6334_27589)"/>
<rect x="4.3363" y="47.2932" width="13.3335" height="36.0006" fill="#91029B"/>
<path d="M0.335815 65.2935C0.335815 55.3522 8.39481 47.2932 18.3361 47.2932V47.2932C28.2774 47.2932 36.3364 55.3522 36.3364 65.2935V65.2935C36.3364 75.2348 28.2774 83.2938 18.3361 83.2938V83.2938C8.39481 83.2938 0.335815 75.2348 0.335815 65.2935V65.2935Z" fill="#91029B"/>
<path d="M17.7537 56.5222V69.4413C17.7537 69.802 17.4516 70.0943 17.0789 70.0943H9.22516C8.70324 70.0943 8.37889 69.5456 8.64351 69.1103L16.4973 56.1912C16.8458 55.6178 17.7537 55.857 17.7537 56.5222Z" fill="#F2EBFF"/>
<path d="M18.9187 75.3996L18.9187 62.4805C18.9187 62.1199 19.2209 61.8275 19.5936 61.8275L27.4473 61.8275C27.9692 61.8275 28.2936 62.3763 28.029 62.8116L20.1752 75.7307C19.8266 76.3041 18.9187 76.0649 18.9187 75.3996Z" fill="#F2EBFF"/>
<path d="M63.999 22.8506L63.4618 24.6765V77.6591L63.999 78.1954L88.593 63.658L63.999 22.8506Z" fill="#B9C2F4"/>
<path d="M63.9993 22.8506L39.4053 63.658L63.9993 78.1956V52.4793V22.8506Z" fill="white"/>
<path d="M63.9978 82.8509L63.6951 83.2198V102.093L63.9978 102.978L88.6063 68.3206L63.9978 82.8509Z" fill="#B9C2F4"/>
<path d="M63.9993 102.978V82.8506L39.4053 68.3206L63.9993 102.978Z" fill="white"/>
<path d="M63.9987 78.1943L88.5922 63.6569L63.9987 52.4785V78.1943Z" fill="#7383E9"/>
<path d="M39.4053 63.6569L63.9988 78.1943V52.4785L39.4053 63.6569Z" fill="#B9C2F4"/>
</g>
<path d="M64.0059 3.52051C97.4289 3.52051 124.523 30.615 124.523 64.0381C124.523 97.4612 97.4289 124.556 64.0059 124.556C30.5828 124.556 3.48828 97.4611 3.48828 64.0381C3.48829 30.615 30.5828 3.52052 64.0059 3.52051Z" stroke="url(#paint1_linear_6334_27589)" stroke-width="6.88821"/>
<defs>
<linearGradient id="paint0_linear_6334_27589" x1="64.0059" y1="51.7377" x2="64.0059" y2="130.46" gradientUnits="userSpaceOnUse">
<stop stop-color="#5065E4"/>
<stop offset="1" stop-color="#512C7E"/>
</linearGradient>
<linearGradient id="paint1_linear_6334_27589" x1="115.864" y1="64.0381" x2="0.0439453" y2="64.0381" gradientUnits="userSpaceOnUse">
<stop stop-color="#512C7E"/>
<stop offset="1" stop-color="#91029B"/>
</linearGradient>
<clipPath id="clip0_6334_27589">
<path d="M0.0439453 64.0381C0.0439453 28.7129 28.6807 0.0761719 64.0059 0.0761719V0.0761719C99.3311 0.0761719 127.968 28.7129 127.968 64.0381V64.0381C127.968 99.3633 99.3311 128 64.0059 128V128C28.6807 128 0.0439453 99.3633 0.0439453 64.0381V64.0381Z" fill="white"/>
</clipPath>
</defs>
</svg>
