<svg width="128" height="128" viewBox="0 0 128 128" fill="none" xmlns="http://www.w3.org/2000/svg">
<g clip-path="url(#clip0_6344_25564)">
<rect width="127.924" height="127.924" fill="url(#paint0_linear_6344_25564)"/>
<rect x="4.29297" y="47.217" width="13.3335" height="36.0006" fill="#91029B"/>
<path d="M0.29187 65.2173C0.29187 55.276 8.35087 47.217 18.2921 47.217V47.217C28.2334 47.217 36.2924 55.276 36.2924 65.2173V65.2173C36.2924 75.1586 28.2334 83.2176 18.2921 83.2176V83.2176C8.35087 83.2176 0.29187 75.1586 0.29187 65.2173V65.2173Z" fill="#91029B"/>
<path d="M17.7102 56.4461V69.3652C17.7102 69.7258 17.408 70.0181 17.0353 70.0181H9.18158C8.65966 70.0181 8.33531 69.4694 8.59993 69.0341L16.4537 56.115C16.8023 55.5416 17.7102 55.7808 17.7102 56.4461Z" fill="#F2EBFF"/>
<path d="M18.8752 75.3234L18.8752 62.4043C18.8752 62.0437 19.1773 61.7514 19.55 61.7514L27.4037 61.7514C27.9257 61.7514 28.25 62.3001 27.9854 62.7354L20.1316 75.6545C19.783 76.2279 18.8752 75.9887 18.8752 75.3234Z" fill="#F2EBFF"/>
<path d="M69.0192 24.1855V36.1289H62.7034V24.1855H69.0192ZM68.2499 90.2989V101.19H61.9341V90.2989H68.2499ZM72.7034 77.0196C72.7034 75.4811 72.42 74.1721 71.8532 73.0924C71.3133 72.0128 70.4227 71.0546 69.1811 70.2179C67.9665 69.3812 66.3201 68.5715 64.2418 67.7888C60.7331 66.4393 57.6426 65.0088 54.9706 63.4973C52.3255 61.9588 50.2607 60.056 48.7762 57.7888C47.2918 55.4946 46.5495 52.5931 46.5495 49.0843C46.5495 45.7375 47.3457 42.836 48.9382 40.3799C50.5306 37.9237 52.7304 36.0344 55.5374 34.7119C58.3714 33.3623 61.6642 32.6876 65.4159 32.6876C68.2769 32.6876 70.868 33.1194 73.1892 33.9831C75.5104 34.8198 77.5077 36.0614 79.1811 37.7078C80.8545 39.3272 82.1366 41.3111 83.0272 43.6592C83.9179 46.0074 84.3633 48.693 84.3633 51.7159H72.7438C72.7438 50.0965 72.5684 48.666 72.2175 47.4244C71.8667 46.1828 71.3538 45.1437 70.6791 44.307C70.0313 43.4703 69.2486 42.8495 68.3309 42.4447C67.4132 42.0128 66.4011 41.7969 65.2945 41.7969C63.648 41.7969 62.2985 42.1208 61.2459 42.7685C60.1932 43.4163 59.424 44.2935 58.9382 45.4001C58.4793 46.4797 58.2499 47.7213 58.2499 49.1248C58.2499 50.5013 58.4928 51.7024 58.9787 52.7281C59.4915 53.7537 60.3687 54.6984 61.6102 55.5621C62.8518 56.3988 64.5522 57.2625 66.7115 58.1532C70.2202 59.5027 73.2972 60.9602 75.9422 62.5256C78.5873 64.0911 80.6521 66.0074 82.1366 68.2746C83.621 70.5418 84.3633 73.4298 84.3633 76.9386C84.3633 80.4204 83.5536 83.3893 81.9341 85.8455C80.3147 88.2746 78.0475 90.137 75.1325 91.4325C72.2175 92.7011 68.8437 93.3353 65.0111 93.3353C62.5279 93.3353 60.0583 93.0115 57.6021 92.3637C55.146 91.6889 52.9193 90.6093 50.922 89.1248C48.9247 87.6403 47.3322 85.67 46.1447 83.2139C44.9571 80.7308 44.3633 77.6808 44.3633 74.0641H56.0232C56.0232 76.0344 56.2796 77.6808 56.7924 79.0034C57.3053 80.2989 57.98 81.338 58.8167 82.1208C59.6804 82.8765 60.6521 83.4163 61.7317 83.7402C62.8113 84.0641 63.9044 84.226 65.0111 84.226C66.7384 84.226 68.1555 83.9156 69.2621 83.2949C70.3957 82.6741 71.2459 81.8239 71.8127 80.7443C72.4065 79.6376 72.7034 78.3961 72.7034 77.0196Z" fill="#F0FFE2"/>
</g>
<path d="M63.9619 3.44434C97.385 3.44434 124.479 30.5389 124.479 63.9619C124.479 97.385 97.385 124.479 63.9619 124.479C30.5389 124.479 3.44434 97.385 3.44434 63.9619C3.44435 30.5389 30.5389 3.44435 63.9619 3.44434Z" stroke="url(#paint1_linear_6344_25564)" stroke-width="6.88821"/>
<defs>
<linearGradient id="paint0_linear_6344_25564" x1="63.962" y1="51.6616" x2="63.962" y2="145" gradientUnits="userSpaceOnUse">
<stop stop-color="#4CAF50"/>
<stop offset="1" stop-color="#073B80"/>
</linearGradient>
<linearGradient id="paint1_linear_6344_25564" x1="115.82" y1="63.9619" x2="0" y2="63.9619" gradientUnits="userSpaceOnUse">
<stop stop-color="#195B72"/>
<stop offset="1" stop-color="#91029B"/>
</linearGradient>
<clipPath id="clip0_6344_25564">
<path d="M0 63.9619C0 28.6367 28.6367 0 63.9619 0V0C99.2871 0 127.924 28.6367 127.924 63.9619V63.9619C127.924 99.2871 99.2871 127.924 63.9619 127.924V127.924C28.6367 127.924 0 99.2871 0 63.9619V63.9619Z" fill="white"/>
</clipPath>
</defs>
</svg>
