<?xml version="1.0" encoding="utf-8"?>
<!-- Generator: Adobe Illustrator 27.8.1, SVG Export Plug-In . SVG Version: 6.00 Build 0)  -->
<svg version="1.1" id="Layer_1" xmlns="http://www.w3.org/2000/svg" xmlns:xlink="http://www.w3.org/1999/xlink" x="0px" y="0px"
	 viewBox="0 0 2000 2000" style="enable-background:new 0 0 2000 2000;" xml:space="preserve">
<style type="text/css">
	.st0{fill:#0000FF;}
	.st1{fill:#212121;}
	.st2{fill:#C89D5D;}
	.st3{fill:#DEB982;}
	.st4{fill:#934948;}
	.st5{fill:#81B375;}
	.st6{fill:#F2B476;}
	.st7{fill:#ECD189;}
	.st8{fill:#E69543;}
	.st9{fill:#DDD8AB;}
	.st10{fill:#DCD8AA;}
	.st11{fill:#DCD7AA;}
	.st12{fill:#C0A55E;}
	.st13{fill:#D9B47F;}
	.st14{fill:#C4A06C;}
	.st15{fill:#DB9B65;}
	.st16{fill:#ECEAE7;}
	.st17{fill:#C4BEA9;}
	.st18{fill:#BBC2B8;}
	.st19{fill:#E4DFCD;}
	.st20{fill:#C6C6B7;}
	.st21{fill:#CFCEBE;}
	.st22{fill:#CFCBC8;}
	.st23{fill:#BAC1B6;}
	.st24{fill:#6B3A39;}
	.st25{fill:#B0A795;}
	.st26{fill:#CACBBC;}
	.st27{fill:#D8C9AB;}
	.st28{fill:#DCD6BF;}
	.st29{fill:#B4BBB0;}
	.st30{fill:#899E9D;}
	.st31{fill:#BCC1B1;}
	.st32{fill:#B1CBCA;}
	.st33{fill:#E0D5BE;}
	.st34{fill:#F7EEE0;}
	.st35{fill:#F0E9D9;}
	.st36{fill:#B7C2B2;}
	.st37{fill:#272523;}
	.st38{fill:#D6B077;}
	.st39{fill:#E3DFCD;}
	.st40{fill:#232222;}
	.st41{fill:#222222;}
	.st42{fill:#212221;}
	.st43{fill:#F7E4AA;}
</style>
<g>
	<path class="st0" d="M1026.1,1866.7L1026.1,1866.7c-487.7,0-883-395.3-883-883v-4.4c0-487.6,395.3-883,883-883h0
		c487.7,0,883,395.3,883,883v4.4C1909.1,1471.4,1513.8,1866.7,1026.1,1866.7z"/>
	<g>
		<path class="st1" d="M1176.1,1418.8c0.3-0.6,0.6-1.2,0.9-1.7c3.5-9.4,12.4-11.5,20.3-14.2c22.7-7.8,42.1-20.9,60-36.6
			c6-4.6,11.4-9.9,16.4-15.5c11.8-13,17.9-27.2,15.1-45.7c-6.5-42.2-13.1-84.3-18.1-126.7c-4.9-41.5-9.8-83-12.8-124.7
			c-2.8-38.1-5.4-76.1-6.8-114.3c-1.1-27.8-1.6-55.7-3.2-83.5c-1.4-24.2-1.7-48.5-5.6-72.5c-2.2-13.7-4.4-15.1-17.7-10.2
			c-19.3,7-37,16.9-53.9,28.4c-22.1,15-41,33.5-58.4,53.5c-0.5,0.7-1.1,1.4-1.6,2c-0.3,0.3-0.6,0.6-0.8,0.9
			c-1.1,1.1-2.3,2.2-3.3,3.3c-0.7,0.9-1.3,1.7-2,2.6c-0.4,0.6-0.8,1.2-1.3,1.7c-0.9,1.1-1.9,2.2-2.7,3.3c-2.4,3.6-5.4,6.9-7.7,10.6
			c-0.8,1.2-1.6,2.4-2.3,3.6c-1.7,2.2-3.2,4.6-4.4,7.1c-1.2,2.1-2.7,4.1-3.8,6.3c-1.5,2.8-3.3,5.4-4.9,8.1c-1.1,1.8-2,3.8-2.9,5.7
			c-0.3,0.7-0.6,1.4-1,2c-4.1,6.5-7.9,13.2-10.5,20.5c-0.2,0.7-0.5,1.4-0.9,2.2c-0.5,1.1-1,2.2-1.5,3.2c-0.8,2-1.7,3.9-2.4,5.9
			c-17.8,42.2-29.7,86.1-34,131.6c-3,31-5.1,62.1-3.1,93.4c1.7,26.1,2.7,52.3,3.9,78.5c0.3,7.3,2.3,14.4,1.8,21.7
			c0,9.7-0.7,19.5,0.7,29.2c0.8,5.8,1.3,13.4-4.6,15.7c-6.4,2.5-9.1-4.9-11.8-9.5c-11.6-19.7-18.5-41.1-23.5-63.2
			c-8.9-39.1-12-78.7-10.8-118.8c0.3-8.9,2.3-17.7,1.6-26.7c-0.3-6.1,1.9-12,1.7-18.1c0-0.9,0-1.9,0.1-2.8c0-0.9,0.1-1.9,0.2-2.8
			c4.1-31.1,9.6-61.9,18.6-92c5.2-15.6,9.8-31.4,16.8-46.4c11.7-27.5,25.4-54,42.1-78.8c13.3-19.8,28.5-37.9,45.9-54.1
			c5.8-5.4,7.5-10.9,5.2-18.6c-5.1-16.9-9.2-33.9-22.6-46.8c-10.3-9.8-22.3-15.6-36.1-18c-11.9-2.1-21.3,2.5-29,11.2
			c-7.6,8.6-13.7,18.3-19.7,28c-6,9.7-12,19.5-20.6,27.3c-13,11.7-27.6,16.2-44.8,11.6c-8.4-2.2-16.5-5.5-24.2-9.3
			c-19.1-9.4-36.9-0.8-49.5,13c-15.5,17-17,37.5-14.4,58.9c0.5,3.9,1.7,7.6,2,11.5c0.1,2.2-0.1,4.5,1,6.6c0.7,1,1.1-1,0.3-0.2
			c0,0-0.3-0.1-0.6-0.5c-0.6-0.9-0.6-2-0.6-3.1c3.4-28.3,25.8-49.3,54.4-50.9c5.6-0.3,11.2-0.6,16.7,0.4c4.6,0.8,8.5,2.9,10.2,7.6
			c1.6,4.6-1,8-4,11.1c-6.2,6.6-14,10.9-21.6,15.7c-10.6,6.8-19.7,14.9-20.9,28.5c-0.7,8.1,1.1,16.1,1.1,24.1c0,4.8,4.2,4.2,7.5,4.5
			c16.6,1.5,33.3,2.1,49.8,4.8c12.1,2,24,5.1,35.6,9.2c5.6,1.9,11,4,16,7.1c2.6,1.6,5.5,3.4,4.7,7.1c-0.7,3.5-3.7,5-6.7,5.5
			c-9.6,1.6-19.3,2.6-29,2.9c-38.8,1.4-77.7,2-116.4,6.5c-18.1,1.4-35.9,4.6-53.7,8.3c-4,0.8-6.6,3.2-6.7,7.4
			c-0.1,12.5-1.8,25.2,4,37c3.8,7.3,10.4,8.5,17.6,7.8c3.3-0.4,6.5-1.3,9.8-1.8c16-3.4,31.8-5.8,47.2,2.9c10,5.6,17,13.5,21.1,23.9
			c4.9,12.6,7.5,25.6,7.4,39.2c-0.3,27.3,0.2,54.6,3.5,81.7c1.6,13.2,6,25.5,12.7,36.9c1.6,2.7,3.2,6.9,7,6c3.3-0.8,3-5.1,3.3-7.9
			c1.9-15.6-0.2-31.1-2.1-46.6c-2.2-18.4,0.2-35.6,11.6-50.8c8-6.4,12-4.9,15.6,5.9c-0.1,21,4.2,41.6,6.1,62.4
			c1.6,17.3,2.4,34.6-3.7,51.3c-2.3,6.4-5.4,12.2-10.8,16.6c-13.4,10.9-29.7,9.8-43.8-3.7c-16.9-16.1-24.6-37-29-59.2
			c-4.4-22.2-5.4-44.8-5.3-67.4c0-14-0.5-27.9-3.6-41.6c-2.9-12.6-6.4-14.9-19.3-14.5c-6.2,0.2-12.2,1.4-18.3,2.3
			c-51,7.4-68.3-32.8-63.7-64.8c0.5-3.2,3.2-7.5,0.4-9.4c-3.1-2.1-6.6,1.7-9.7,3.2c-4.9,2.3-8.6,6.1-12.1,10.2
			c-4.8,5.6-3.4,12-2.6,18.3c1.3,9.2,4.8,17.7,7.6,26.4c7,20.7,17.5,39.8,28.3,58.7c55.2,96.3,115.9,189.3,175.5,282.9
			c6.1,9.6,13.5,18.5,19.9,27.9c12.6,18.6,30.8,25.6,52.2,26.7c11.2,0.6,22.2-1.4,33.3-2.5c20.2-2,40.4-4.4,60.8-4.1
			c6.9,0.1,14,0.6,19.6,5.6l0,0c0.6,0.4,1.2,0.9,1.6,1.4c2.4,2.1,1.2,4.1-0.3,5.8c-3.8,4.1-8,7.9-13.2,10.1
			c-25,10.6-50.4,19.8-77.3,23.7c-22.1,3.3-44,1-65.2-6.4c-13.2-4.6-24.2-12.4-33.6-22.7c-8.8-9.7-16.5-20.3-24-31.1
			c-20.1-28.9-39.3-58.3-57.5-88.4c-22.1-36.5-44.9-72.6-68-108.5c-26.4-41.1-51.4-83-73.7-126.5c-10.3-20.1-19.4-40.8-24.6-63
			c-4-17.1-5.9-34.2,2-50.8c1.2-2.5,0.5-4.2-1.5-5.8c-1.3-1-2.5-2.2-3.7-3.4c-29-27.1-51.1-59.1-65.6-95.9
			c-11.1-28.2-14.6-57.2-6-86.9c3-10.6,7.7-20.3,14.6-29c16.1-20.1,39.6-26.7,63.8-17.9c1.5,0.6,3.1,1.2,5.1,1.9
			c1.1-3.3-1-5.6-1.9-7.9c-9.9-24.9-18.4-50.3-23.8-76.6c-2.4-11.8-3.7-23.7-2.7-35.8c1.7-20,11.1-35,29.8-43
			c20.7-8.8,42.5-13.5,64.8-15.8c7.4-0.8,14.2,2,21.2,3.9c9.2,2.5,18.1,5.6,26.8,9.4c14.4,6.3,21.7,17.5,23.5,32.9
			c1.6,13.9,1.6,27.8,1.9,41.8c0.2,10,0.8,20.1,1.2,30.1c0.1,2.4,0.4,4.2,3.6,4.4c8.9,0.3,17.8,1.2,26.7,1.3
			c10.7,0.1,15.5-3.7,18.8-14.2c3.4-10.7,4.3-21.9,6.2-32.9c2.1-12.2,5.6-23.9,12.2-34.5c13.1-21,32.4-28.7,56.4-26.8
			c3.3,0.3,6.6,0.8,10,1.1c0.2,0,0.4-0.3,1.2-0.8c-0.6-8.3-0.1-16.8,2.3-25.1c3.4-11.5,9.1-21.5,18.6-29.1
			c15.1-12.2,34.5-12.9,50.5-2c5.3,3.6,10,8,14.6,12.5c2.8,2.8,5.5,5.5,8.4,8.2c5.6,5.2,11.8,5.7,18.5,2.1
			c5.9-3.2,11.1-7.5,16.2-11.8c8.3-7.1,16.4-14.3,25.4-20.5c11.6-8.1,24-14.2,38-16.6c11.6-1.9,22.8-0.7,33.3,5
			c17.8,9.8,26.1,28.3,22.3,49.9c-1.5,8.5-4.1,16.8-6.9,25c-2.1,6.1-4,12.2-5.1,18.5c-0.8,4.7-0.9,9.4,0,14.1
			c1.3,7.4,5.1,12.8,12.1,15.9c6.6,3,13.3,5.9,19.8,9.1c35.5,17.5,52.1,56.5,40.2,94.3c-1.9,6.2-4.5,12-8.9,16.9
			c-1.8,2-2.8,3.7-1.2,6.6c7.7,14.4,9.3,30.3,10.9,46.1c2.8,28.1,3.9,56.2,4.7,84.4c1.6,58,4.5,116,9,173.9
			c4.1,52,10.2,103.9,17.4,155.5c4.2,30.1,8.4,60.2,13.2,90.3c4.9,30.3-3.4,56.3-24.3,78.5c-25.4,26.9-54.4,48.7-89.1,62.2
			c-3.9,1.5-7.9,2.6-12,3.6c-6.1,1.5-12.2,1-18.1-1.2c-10.3-3.8-13.8-10.8-11-21.8C1175.7,1419.8,1176,1419.3,1176.1,1418.8z"/>
		<path class="st2" d="M1127.9,1432.2c-20.9-6.4-42.1-2.2-63.1-1c-13.9,0.8-27.7,2.9-41.6,4.2c-8.4,0.8-16.7-0.5-25-2
			c-14.7-2.7-26.4-10.1-35.2-22.1c-6.7-9.3-13.6-18.4-20.1-27.8c-27.8-39.9-52.4-81.7-78.1-123c-21.2-34.1-43.2-67.8-64.3-102
			c-21.3-34.7-41.9-69.9-58.9-107c-2-4.3-4.2-8.5-5.1-13.2c-0.2-9-5-16.9-6.2-25.8c-1-7.3-1.6-14.3,0.6-21.4
			c6.6-9.9,17.5-13.1,27.2-18.1c2.5,2.6,1,4.7,0.6,6.7c-2.4,10.4-3,20.9-1.1,31.5c4.6,24.4,21.5,39.3,46.3,40.3
			c8.2,0.3,16.1-1,24.1-2.3c5-0.8,9.9-1.3,15-1.4c6.4-0.1,10.5,3.1,12.9,8.8c2.3,5.7,3.4,11.7,4.2,17.9c1.6,12.8,1.6,25.6,1.9,38.4
			c0.5,19.8,1.1,39.6,4.8,59.1c3.6,18.9,9.7,36.6,21.6,52c4.8,6.3,10.5,11.6,17.7,15c13.3,6.3,27,2.6,35.2-9.6
			c6.3-9.3,8.3-20,9.1-30.9c1.1-14.3-0.4-28.4-2.3-42.5c-2.2-16.3-4.7-32.6-4.3-49.1c1.1-3.6,1.7-7.6,4.9-10
			c2.5-1.8,2.7-3.1-0.3-4.4c5.5-4,11.9-5.5,18.5-6.7c7.1,5.1,9.1,8.4,10.9,17.8c0.4-3-2.5-7.2,2.7-8.4c-0.1,4.7,0.2,9.5-0.2,14.2
			c-2.1,25.1-1.7,50.2,0.6,75.2c2.6,28.7,7.6,56.9,16.7,84.3c4.5,13.6,10.4,26.5,18,38.6c1.6,2.5,3.1,6.4,6.5,5.7
			c3.8-0.8,2.7-5.2,2.8-7.9c0.2-7.8-0.3-15.6-0.4-23.4c-0.1-4.2,0-8.3,0-12.5c4.6,1.2,3.7,5.1,3.7,8.1c0,18.2,8.2,33.9,15.8,49.6
			c2,4.2,5.4,7.8,7.8,11.9c14.4,25.2,37.8,32.9,64.9,33.6c22.9,0.6,45.6-1.4,68.2-4.5c8.9-1.2,17.8-0.6,26.7-0.4
			c1.7,0,4.1,0.1,4.7,1.4c3.2,7.8,8.4,3.6,13,2.4c6.8-1.7,13.6-3.1,20.4-4.3c2.7-0.5,5.5-1.4,7.8,1.1c-16.9,15.1-35.4,27.6-57,35
			c-8.8,3-17,6.6-23.5,13.4c-1.9-1.4-3.7-0.1-5.5,0.4c-13.9,4.4-27.8,8.8-41.7,13.3C1129.1,1431,1128.5,1431.7,1127.9,1432.2z"/>
		<path class="st2" d="M1176.1,1418.8c0.3,0.8,0,1.2-0.8,1.4C1174.9,1419.3,1175.2,1418.8,1176.1,1418.8z"/>
		<path class="st2" d="M1129.5,1433.7c-1,0-1.6-0.4-1.6-1.4C1129,1432.1,1129.3,1432.8,1129.5,1433.7z"/>
		<path class="st3" d="M1257.4,1368.6c-13.8,1.5-27.2,5.3-40.5,9c-1.3,0.4-2.5,1.1-3.9,0c0.1-2.9,4.6-2.3,4.3-5.5
			c-0.6-1-1.4-1.8-2.6-1.8c-10.8,0.1-21.6-0.8-32.5,0.8c-7.4,1.1-14.9,1.8-22.3,2.6c-15.6,1.5-31.1,1.7-46.7,1.4
			c-12.9-0.3-25.5-3-37.1-8.5c-6.7-3.2-12.9-7.5-17.3-14c-3.8-5.8-8.2-11.2-12.4-16.8c-10.1-13.4-14.2-29.4-19.8-44.8
			c-1.4-4-0.4-8.3-0.8-12.5c-0.3-3,1-6.2-1.5-8.8c-3.1-35.8-5.2-71.7-6.2-107.6c-2.1-73.7,7.1-145.6,35.9-214.2
			c1-2.3,1.5-4.8,3.3-6.6c2.1-0.9,2.1-3.1,2.8-4.9c0.1-0.7,0.3-1.4,0.5-2l-0.1,0.1c3.9-6.9,6.6-14.4,11.2-20.9
			c0.6-1.3,1.8-2.3,1.9-3.9c0.8-1.2,1.4-2.5,2-3.8c2-2.5,3.5-5.3,4.9-8.2c2.1-2.5,3.5-5.3,4.9-8.1c1.4-1.6,2.3-3.5,3.4-5.3
			c1.8-1.4,2.4-3.5,3.6-5.3c1.9-3.1,4.4-5.8,6.2-9c0.4-1,1.1-1.8,1.8-2.5c1-1,1.7-2.1,2-3.4l-0.1,0.1c1-0.5,1.4-1.6,2.2-2.3
			c1.4-1.2,2.3-2.8,3.2-4.3l-0.1,0.1c0.9-0.6,1.6-1.4,1.8-2.5c18.5-23.4,40.5-43,65.4-59.3c13.8-9,28.2-17.1,43.6-23.1
			c5.2-2,10.5-3.8,16.1-4.5c5.6-0.8,6.1-0.5,7.7,5c2.6,8.6,3.5,17.5,4.3,26.4c2.8,33.4,4,66.9,5,100.3c1.7,57.5,5,114.8,9.9,172.1
			c6.2,71.5,15.5,142.5,26.8,213.3c1.3,8,2.2,16,3.2,24.1c1.4,11.5-0.7,22.2-7.4,31.8C1276.7,1351.8,1268,1361.1,1257.4,1368.6z"/>
		<path class="st4" d="M848.4,870.9c-4.3-15-5.3-30.2-1.7-45.4c4.9-21,17.5-35.7,37.9-43.3c8.5-3.2,16.9-2,25.2,1.4
			c9.5,3.9,18.7,8.5,28.9,10.8c15.2,3.4,28.1-0.8,39.5-10.5c9.1-7.7,15.2-17.8,21.2-27.8c5.3-8.9,11.1-17.4,17.4-25.6
			c10-12.8,22.4-18.3,39-13.8c23.9,6.5,40.1,21,48.6,44.1c3.3,8.9,5.5,18.1,8,27.3c1.2,4.3,0.1,7.3-3.1,10.4
			c-12.5,12-24.3,24.5-35.1,38.1c-14.3,18-26.3,37.4-37.2,57.5c-7.1,13.2-13.7,26.7-19.4,40.6c-7.4-6.3-16.3-6.8-25.3-5.8
			c-5,0.5-9.9,0.6-14.9,0.7c-12.7-4.1-25.6-7.6-38.8-9.2c-7.2-0.9-14.3-2.2-21.5-2.3c-9.5-0.2-18.8-2.4-28.3-1.8
			c-2.3,0.1-4.8,0-4.9-3.1c-0.1-8.9-1.3-17.8-1.3-26.7c0-12.8,7.5-21.8,17.6-28.7c6-4.1,12.2-7.9,18.3-11.8c3.6-2.3,6.6-5.1,9.4-8.2
			c4.3-4.8,3.3-9.2-2.4-12.1c-1.2-0.6-2.6-1.2-3.9-1.4c-20.2-1.8-38.9,1.6-54,16.6c-9.3,9.2-14,20.6-15.8,33.4
			C848.3,875.3,849.8,871.7,848.4,870.9z"/>
		<path class="st5" d="M1244.9,726.9c-0.6,1.6-1.9,1.8-3.4,1.8c-17.1-0.2-32.8,5.5-48.1,12.3c-14.8,6.6-28.7,14.7-42.1,23.7
			c-2.1,1.4-4.2,2.6-6.3,4c-2.4-0.1-3.7-1.8-5.2-3.3c-2.3-5.9-4.5-11.9-6.8-17.8c-14.7-36.5-41.6-57.6-80.3-63.8
			c-4.6-0.7-9.3-0.6-14.5-0.9c3.8-22-2.7-41.7-11.1-61c-5.6-12.8-14.2-23.2-25.2-31.7c-2.6-2-4.6-3.7-4.3-7.4
			c0.8-12.2,3.3-23.7,10.5-33.8c2.2-3,4.8-5.4,7.9-7.3c4.9-3.1,10-3.3,14.9,0c2.5,1.7,5,3.6,7.2,5.7c3.7,3.4,7.2,7,10.7,10.6
			c8.9,9.2,19.6,14.5,32.5,14.9c7,4.8,14.5,6.1,22.9,5c18.4-2.5,34.4-10.5,49.7-20.5c10-6.6,14.6-4.5,17.3,7.4
			c1.3,5.8,0.8,11.6-0.6,17.4c-2.1,8.4-4.3,16.7-5.9,25.2c-3.6,19.4,9.4,44.6,27.4,52.9c7.2,3.3,12,0.2,11.9-7.9
			c0-2.4-1.1-5,0.8-7.2c9.2,4.4,18.6,8.6,27.6,13.3c6.3,3.4,12.4,7.4,14.7,14.9c-10.7,2.6-12.4,4.6-13,16.4
			C1233.6,703.3,1238.2,715.4,1244.9,726.9z"/>
		<path class="st5" d="M958.8,607.8c15-0.7,25.3,7.5,33.5,18.6c7.3,9.8,10.7,21.4,13.3,33.2c2,9.3,4,18.6,8.4,27
			c1.4,2.6,1.5,4.4-1.4,6.2c-11.9,7.4-20.1,18.4-27.9,29.7c-6,8.7-11.4,17.8-17.3,26.6c-9.8,14.7-15.4,16.3-31.5,9.4
			c-8.2-3.5-16.2-7.6-24.9-9.7c-22.2-5.3-42.2,0.2-60,13.4c-21.8,16.2-35.2,37.7-38.2,65.1c-0.8,7.3-1,7-8.1,8.9
			c-22.1,5.8-41.3,16.3-55.4,35.1c-13.2,17.5-15.9,37-12.5,57.9c0.3,1.6,0.4,3.4,1,4.9c1.5,3.7,0,5.5-3.4,7
			c-8,3.5-15.4,7.9-22.2,13.2c-2.9,2.3-4.7,1.9-6.7-1c-19.4-28.3-38.6-56.8-50.6-89.3c-2.8-7.5-5.8-15.1-5.9-23.3
			c4.8,0.6,4.5,5,5.6,8.1c7.6,19.7,16.2,39,26.4,57.5c1.9,3.5,3.8,9.6,8,8.2c4.4-1.5,2.8-7.6,2.4-12c-0.4-4.9-3.1-9.6-1.3-14.7
			c2.9-2.7,5.7-0.3,8.5,0.2c1.9,0.4,4,0.8,5.3-1.1c1.3-1.8,0.6-3.8-0.4-5.5c-3.9-6.4-7.6-12.9-13.9-17.3c-2.9-2-6.2-3.8-7.3-7.6
			c-6.1-23.6-13.5-46.9-16.5-71.2c-0.5-4.2-3.1-7.7-3.7-11.9c6.6-7,14.4-6.4,22.2-3.1c6.2,2.6,11.1,7.4,15.9,12.1
			c9.2,8.9,17.3,18.9,27.2,27.1c10,8.3,21,14.4,34.1,16.6c21.8,3.7,40.7-7.1,48.1-28c3.7-10.4,4.5-21.2,4.9-32.1
			c0.3-11.2,1.7-22.1,5.2-32.8c4.8-14.6,13.4-21,28.7-19.5c6.4,0.7,12.7,1.1,19.1,1.4c13.2,0.7,25.4-2,36.2-10
			c13.7,4.3,25.6-0.2,35-13.8c10.2-14.8,14.3-31.8,16.1-49.4c0.9-9.1,2.4-18.2,1.9-27.4C956.5,612.3,957,609.9,958.8,607.8z"/>
		<path class="st6" d="M977.3,929.5c12.1-4.3,24.3-4.4,36.6-0.7c2.9,0.9,3.8,3,3.7,5.8c-5.2,12.6-9.9,25.3-14,38.3
			c-0.7,2.4-1.8,4.6-2.8,6.9c-4.8,10-7,21.1-12.2,30.9c-1.3,2.4-2.2,6.2-5.3,5.6c-3.8-0.7-3.1-4.8-3.1-7.7
			c-0.1-8.6,0.1-17.3-1.9-25.8c-0.5-2.1-0.6-4.9-3.5-5c-2.2-0.1-3.3,2.1-3.8,3.9c-5.6,18.4-12,36.8-5.4,56.3
			c2.2,6.3,0.5,10.1-5.3,12.8c-6.4,2.9-11.8,7.4-17.2,11.8c-10.3,8.5-10.2,11.6,0.8,19.3c-0.3,4.5-1,9.1,4.5,11.3
			c1.3,0.3,2.7,0.6,4.4,0.9c-3.1,4.4-6.1,8.6-9.1,12.8c-0.3-0.8-0.5-1.6-0.8-2.4c-3-7.5-4.3-7.8-11.4-2.7c-4.1,2-4.4-1.9-5.9-3.9
			c-1.3-1.7-1.6-4.9-4.3-4.4c-3,0.5-3,3.7-3.5,6.1c-2.6,13.2-3.1,26.5-3.7,39.9c-0.2,4.7-0.1,9.5-1.8,14c-0.6,1.5-1.1,3.5-3.1,3.5
			c-1.6,0-2.2-1.6-2.7-2.8c-2.8-7.5-6.2-14.8-2.8-23.3c3.9-9.8,2.8-20.4,2.3-30.7c-0.8-17.8-2.1-35.6-6.5-53
			c-4.8-18.7-14.7-33.2-31.6-43.3c-10.1-6.1-20.5-11.1-30.9-16.6c-15.5-8.2-15.9-12.9-3.8-25.3c3.7-3.8,8-5.9,12.9-7.1
			c10.1-2.3,20.4-2.6,30.6-3.2c26.9-1.6,53.9-2.7,80.8-3.6c10-0.4,20-1.4,29.9-2.1c1.1-0.1,2.3-0.1,3.3-0.5c2.6-1,7,0,7.3-4
			c0.2-3-3.4-4.1-5.8-5.3C987.5,933.9,982.4,931.8,977.3,929.5z"/>
		<path class="st7" d="M703.1,628.5c0.1-16.1,3.8-21.5,16.8-25.8c14-4.7,28.4-7.9,43.1-9.9c6.3-0.8,6.7-0.6,7.2,5.7
			c1,12.2,1.6,24.5,2.3,36.7c1.5,29.9,5.9,59.3,15.2,87.9c1,3.1,0.7,6-0.1,9c-2.9,11.1-4.2,22.4-4.6,33.9c-0.2,5.6-0.8,11.1-2,16.6
			c-2.4,10.6-7.6,13.3-17.8,9.1c-7.2-2.9-12.3-7.3-14.9-15.5c-7.1-22.3-17.4-43.4-24.6-65.7c-7.1-21.7-14.4-43.4-18.4-66
			C704.1,638.5,703.6,632.3,703.1,628.5z"/>
		<path class="st8" d="M846.4,954.9c-7.9,4.5-13.9,10.9-19.2,18.1c-1.9,2.5-1.4,3.9,0.7,5.5c6.1,4.4,12.2,8.7,19.4,11.3
			c13.3,4.8,24.7,13,35.2,22c12.5,10.7,18,25.8,21.1,41.7c4.1,21.7,5.4,43.5,5.1,65.5c-0.1,5.1-1.5,9.9-3.1,14.6
			c-1.5,4.1-1.9,7.8,0.4,11.9c1.7,3.1,2.3,6.7,3.6,10.6c1.9-5.1,2.5-9.9,2.5-14.9c0-13.6,1.5-27.2,3.4-40.6c0.4-3,1.4-6,2.6-8.7
			c1.7-3.9,4.5-4.2,6.7-0.6c1.6,2.6,2.8,5.4,3.9,8.3c0.6,1.5,1.5,2.2,3,2.5c-10.6,15.6-13,32.8-10.5,51.2c1.8,13.3,3.3,26.6,2.5,40
			c-0.3,5.6-1.2,11.1-3,16.4c-1,3-2.6,3.4-4.9,1.3c-3.8-3.4-6.6-7.6-9-12c-8.6-15.8-12-32.9-13.2-50.6c-1.6-23.1-0.8-46.3-1.7-69.5
			c-0.5-12-2.3-23.9-6.8-35.1c-6.1-15-17.2-24.5-33.1-28c-7.1-1.6-14.4-1.2-21.7,0c-4.1,0.7-8.2,1.4-12.3,2.1c-9.9,0-20,1-28.3-6.2
			c-3.5-4.9-4.4-10.8-4.7-16.5c-0.4-8.3,0-16.6,0-24.9c0-3.4,1.1-5.9,4.8-6.7C808.6,959.8,827.3,956,846.4,954.9z"/>
		<path class="st9" d="M1204.9,645.1c0.4,1.9,0.9,3.8,1.3,5.7c1.1,4.7,0.3,8.9-3.7,12c-4.3,3.3-8.7,1.6-12.4-0.8
			c-5.1-3.4-10-7.1-14-11.9c-10.9-13.2-17.6-27.7-13.1-45.4c2.1-8.3,4-16.8,6-25.2c1.4-6.1,1.4-12.1-0.9-18.1
			c-0.3-0.8-0.6-1.6-0.9-2.3c-2.4-5.1-3.5-5.5-8.2-2.6c-5.2,3.2-10.3,6.7-15.5,9.8c-13.6,8.2-28.4,12.8-44.1,14.6
			c-5.1,0.6-9.9-1.1-14.6-2.9c-2.2-0.9-3.9-2.3-3.6-5c11-0.5,20.5-4.8,29.3-11c7.3-5.1,14-11,20.7-16.9c6.9-6.1,14.6-11.1,22.4-16.1
			c6.6-4.3,14-7,22-7.4c12.8-0.6,20.7,8.1,18.5,19.7c-1.5,8-4,15.6-6.5,23.3c-3.2,9.8-6.1,19.7-6.4,30.1
			C1180.5,615.6,1186.9,633.1,1204.9,645.1z"/>
		<path class="st8" d="M943.7,1083.2c-3.4-2.1-8.1-1.1-9.7-7.3c-1.3-5.1-0.8-8.2,2.7-10.7c8-5.9,15-13.3,24.6-17
			c4-1.5,4.6-3.7,2.8-7.8c-4.1-9.1-4.2-18.6-2.5-28.5c1.2-6.8,2.2-13.7,4-20.4c0.8-3.2,2-6.3,3-9.5c1.1-3.9,3.2-8.4,7.3-7.9
			c4.4,0.5,4.1,5.6,5,9.5c2.3,10.4,1,21.1,1.7,31.5c2.7,0.6,2.7-1.4,3.3-2.9c3.4-8.2,6.7-16.5,10.4-24.6c1.2-2.7,2-5.9,4.8-7.7
			c-3,12.7-6.2,25.3-9,38c-3.6,16-6.3,32.1-8.2,48.4c-0.3,2.5-1,4.9-1.5,7.3c-1,1.1-1.9,2.3-3.3,3c-2.8,1.1-4.7,3.8-7.8,4.4
			c-7.1-2.7-13.9-1-20.8,1.2C948.3,1082.8,946.3,1085.3,943.7,1083.2z"/>
		<path class="st10" d="M691.1,887.3c0.8,4.6,1.3,9.4,2.4,13.9c1.2,5.1,0.5,10-0.9,14.8c-1.1,3.9-2.7,4.3-5.9,1.6
			c-4.3-3.7-7.1-8.6-9.6-13.6c-10-20-19.6-40-26.6-61.3c-0.2-0.7-1-1.3-1.5-2c-4.1-16.6-3.7-33,1.7-49.2c2.3-6.8,5.3-13.4,11.4-18
			c5.3,2.8,5.7,8.3,6.3,13c2.6,21.9,8.9,42.9,14.8,64c0.7,2.5,1,4.9,1,7.4c-9.9,6.1-10.4,12.9-1.8,20.8
			C685.4,881.5,690.1,882.5,691.1,887.3z"/>
		<path class="st4" d="M813.5,864.4c3.6,10.4,5.9,21.2,10.8,31.3c2.7,5.5,5.8,10.7,8.8,16.1c0.9,1.7,2.5,3,2.2,5.9
			c-24.5,2.9-49.2,5.6-73.8,13.4c-0.8-24.4,7.3-43.3,27.4-56.2c6.5-4.2,13.6-7.5,21-10.1C811.2,865.2,812.3,865,813.5,864.4z"/>
		<path class="st9" d="M958.8,607.8c0.3,20.4-0.7,40.7-6.7,60.3c-3.5,11.8-8.3,23.1-17.5,31.9c-5.9,5.6-12.8,9-20.7,9.8
			c-3.9,0.4-8.6,1-10.1-4.5c12.4-10.2,17.2-24.2,19.9-39.4c1.6-9.3,3.2-18.7,5-27.9c1.2-6,3.5-11.7,6.3-17.2
			C940,611.2,947.7,606.4,958.8,607.8z"/>
		<path class="st11" d="M1244.9,726.9c-1.7-0.2-3.2-0.9-4.1-2.5c-6.7-13.4-11.4-27.2-7.6-42.5c2.7-10.9,3.7-11.5,13.9-8.6
			c7.5,11.8,8.3,24.5,4.9,37.6C1250.6,716.7,1247.8,721.8,1244.9,726.9z"/>
		<path class="st12" d="M806.3,596.7c5.1,1.6,6.3,5.8,6.9,10.4c0.9,7.8,1.5,15.5,1.5,23.4c-0.1,15.3,0,30.7,0.1,46
			c-4.4-0.3-3.8-4.2-4.9-6.8c-0.1-2.7-1.8-4.8-2.1-7.4c-0.6-1.3-0.2-2.8-1.1-4.1c-2.9-19.6-3.4-39.4-4.3-59.1c0-0.7,0.3-1.3,0.8-1.8
			C804.2,596.9,805.3,597.1,806.3,596.7z"/>
		<path class="st13" d="M971.9,1080.5c0.7-3.8,3.9-4.5,6.8-5.5c0.3,0.1,0.7,0.2,1,0.2c1,0.4,1.8,1,2.3,1.9
			c0.5,6.2-0.9,12.2-1.4,18.3c-3.1,2.8-0.5,6.9-2.4,10.4c-3.2-6.9-6.2-13.6-11.2-19.1C966.8,1083.2,969.1,1081.7,971.9,1080.5z"/>
		<path class="st14" d="M730.9,991.2c-0.5,14,1.2,27.7,6.1,40.9c0.8,2.2,1.2,4.3-0.5,6.3c-4.3-9.6-7.1-19.6-8.5-30
			C727.3,1002.5,726,996.2,730.9,991.2z"/>
		<path class="st15" d="M789.7,1011.6c9.2,3.3,18.9,4.2,28.3,6.2c-4.6,1.1-9.2,2.3-14,1.9C798.1,1019.3,792.3,1018.2,789.7,1011.6z"
			/>
		<path class="st16" d="M811.2,668.4c1.3,2.6,1.5,5.8,3.6,8.1c0.5,3.5,1,7.1,1.4,10.7c0.2,1.5-0.8,2.6-2.2,3.1
			c-2,0.6-2.3-0.8-2.6-2.2c-0.8-4-2.2-8-1.9-12.2C809.7,673.3,806.9,670,811.2,668.4z"/>
		<path class="st17" d="M1072.8,913c-4,7.2-6.4,15.3-12.1,21.5c2.5-8.6,6.8-16.4,11.8-23.8C1073.5,911.3,1073.6,912.1,1072.8,913z"
			/>
		<path class="st18" d="M1099.7,869.3c-1.2,4-3.4,7.3-6.6,10.1c-0.7,0.6-1.3,0.5-2-0.1c2.1-4.4,5-8.3,8.3-11.8
			c0.3,0.3,0.5,0.6,0.8,0.9C1100.1,868.7,1099.9,869,1099.7,869.3z"/>
		<path class="st19" d="M811.2,668.4c-2.3,2-1,4.9-1.7,7.4c-1.7-2.8-1.4-5.9-1.7-8.9c-0.6-1.7-1.1-3.4,0.4-5
			C810.4,663.5,810.3,666.2,811.2,668.4z"/>
		<path class="st20" d="M1081.2,897.9c-0.7,3.4-1.9,6.4-5,8.4c-0.8-0.7-0.8-1.4-0.2-2.2c1.2-3.1,2.7-6,5-8.4
			C1081.9,896.3,1082,897.1,1081.2,897.9z"/>
		<path class="st21" d="M1081.2,897.9c-0.1-0.8-0.2-1.5-0.3-2.3c0.6-2.5,2.1-4.4,3.7-6.3c0.6-0.7,1.2-0.7,1.8,0
			C1085.6,892.8,1084.3,895.9,1081.2,897.9z"/>
		<path class="st22" d="M1139.8,765.5c2.2,0.3,4.3,0.9,5.2,3.3c-1.1,1-2.1,2.4-3.9,1.6c-0.3-0.5-0.7-0.9-1-1.4
			C1140,767.8,1139.9,766.6,1139.8,765.5z"/>
		<path class="st23" d="M1086.4,889.4c-0.6,0-1.2,0-1.8,0c1-2.7,2.4-5.2,4.7-7.2c0.9,0.7,1.1,1.5,0.3,2.4
			C1089.4,886.8,1088.3,888.4,1086.4,889.4z"/>
		<path class="st24" d="M848.4,870.9c1.1,1.1,2.2,2.2,3.2,3.3c0,1.3,0.5,2.7-0.8,3.8C848.6,876.1,848.2,873.6,848.4,870.9z"/>
		<path class="st25" d="M808.3,661.9c-0.1,1.7-0.3,3.3-0.4,5c-1.6-2.7-1.5-5.7-1.2-8.7C808,659.1,808.2,660.5,808.3,661.9z"/>
		<path class="st26" d="M1089.6,884.6c-0.1-0.8-0.2-1.6-0.3-2.4c0.2-1.3,0.9-2.1,1.9-2.9c0.7,0,1.3,0.1,2,0.1
			C1092.8,881.7,1091.6,883.4,1089.6,884.6z"/>
		<path class="st27" d="M1061.1,936.3c-0.5,2.2-0.1,5-3.6,5c0.1-1.9,1-3.5,2.1-4.9C1060,935.7,1060.5,935.8,1061.1,936.3z"/>
		<path class="st28" d="M1107.9,857.4c0.1,2.4-1,4.1-3.2,5.1c-0.6-0.3-0.8-0.6-0.6-1c0.2-0.4,0.3-0.5,0.5-0.5
			C1105.3,859.5,1106.2,858.1,1107.9,857.4z"/>
		<path class="st29" d="M1076,904.1c0.1,0.7,0.1,1.5,0.2,2.2c-0.1,1.3-0.4,2.4-1.6,3.2c-0.5,0.8-1.1,0.8-1.7,0.1
			C1073.4,907.4,1074.3,905.6,1076,904.1z"/>
		<path class="st30" d="M803.2,597.6c-0.3,0.5-0.6,1-0.8,1.5c-0.8-1.4-1.5-3,0.2-4.2c1-0.7,2,0,2.5,1.1
			C804.9,597,803.9,597.1,803.2,597.6z"/>
		<path class="st31" d="M1102.6,863.9c0.4,1.5,0.1,2.8-1.3,3.6c-0.4,0.4-0.8,0.6-1.4,0.5c0,0-0.5-0.6-0.5-0.6
			C1100.1,865.9,1100.9,864.5,1102.6,863.9z"/>
		<path class="st32" d="M813.5,864.4c-1,2-2.3,1.3-3.6,0.4C811.1,864.7,812.3,864.6,813.5,864.4z"/>
		<path class="st33" d="M1072.9,909.6c0.6,0,1.1,0,1.7-0.1c-0.1,1.4-0.5,2.7-1.8,3.5c-0.1-0.8-0.2-1.5-0.3-2.3
			C1072.4,910.2,1072.6,909.8,1072.9,909.6z"/>
		<path class="st13" d="M978.7,1075c0.9-1.1,2.2-1.4,3.5-1.5c-0.1,0.6-0.1,1.2-0.2,1.7c-0.9,1.1-1.9,1-3,0.2L978.7,1075z"/>
		<path class="st34" d="M979.1,1075.4c1-0.1,2-0.1,3-0.2c0,0.6-0.1,1.3-0.1,1.9C980.8,1076.9,979.4,1077,979.1,1075.4z"/>
		<path class="st31" d="M1104.7,861c0.1,0.5,0.1,1,0.1,1.5c-0.5,0.9-1.1,1.4-2.2,1.5C1102.6,862.5,1103.4,861.6,1104.7,861z"/>
		<path class="st35" d="M803.2,597.6c0.6-0.5,1.2-1.1,1.8-1.6c0.4,0.2,0.8,0.5,1.2,0.8C805.4,597.4,804.5,598.1,803.2,597.6z"/>
		<path class="st17" d="M1061.1,936.3c-0.5,0-1,0-1.6,0c-0.1-1,0.2-1.7,1.3-2C1060.9,935,1061,935.6,1061.1,936.3z"/>
		<path class="st36" d="M1109.6,855c-0.2,1.1-0.7,2-1.8,2.5C1107.8,856.3,1108.6,855.5,1109.6,855z"/>
		<path class="st5" d="M1140.1,768.9c0.7,0.2,1,0.7,1,1.4C1140.2,770.3,1139.9,769.7,1140.1,768.9z"/>
		<path class="st37" d="M971.9,1080.5c-0.8,2.7-3.3,4.1-4.9,6.2c-5.7,3.4-12.1,5.2-18.5,6.7c-0.8-0.1-1.6,0-2.4-0.2
			c-6.3-1.4-6.7-2.3-3.7-8.1c0.4-0.7,0.9-1.3,1.3-2c6.3-4.7,13.7-5.2,21.1-5.9C967.8,1077,970.1,1078.2,971.9,1080.5z"/>
		<path class="st38" d="M986.3,1360.6c1.1,0.3,2,1.1,2.2,2.2c0.2,1-0.5,1.6-1.3,1c-0.8-0.6-1.3-1.6-2-2.4
			C985.5,1361.1,985.9,1360.8,986.3,1360.6z"/>
		<path class="st39" d="M1100,868.1c0.4-0.3,0.9-0.4,1.4-0.5c-0.6,0.6-1.1,1.2-1.7,1.7C1099.7,868.9,1099.8,868.5,1100,868.1z"/>
		<path class="st40" d="M965.5,839c-5.2,0.1-9.7-1.2-13.9-3.6c-3.4-2-5.2-5-4.5-9.1c0.7-3.7,3.8-4.9,6.8-5.3
			c9.8-1.5,18.8,1.1,26.7,7.1c4.4,3.4,3.8,6.5-1.6,8.4C974.6,838.1,970,839.2,965.5,839z"/>
		<path class="st41" d="M1151.2,655.2c5.6-0.2,9.1,3.3,7.6,7.9c-3.8,11.7-10.2,21.7-21.7,27.1c-6.2,2.9-12.6-0.5-14-7.2
			c-0.7-3.3-0.6-6.7,1.1-9.7C1130.2,662.4,1140.8,658.4,1151.2,655.2z"/>
		<path class="st41" d="M1102.6,650.9c0.6-8.3,1.6-16.2,5.4-23.6c2.1-4.2,5.4-7.2,9.7-8.8c7.1-2.6,12.6,1.4,11.8,8.9
			c-1.3,12.5-7.6,22.5-16.8,30.7c-1.8,1.7-4.2,3.1-6.8,2c-3.1-1.3-3.3-4.2-3.3-7C1102.6,652.4,1102.6,651.6,1102.6,650.9z"/>
		<path class="st42" d="M690.6,827c0-1.4-0.1-2.8,0-4.2c0.2-2.8,0.3-5.8,3.6-6.9c3-1.1,5.8,0.1,7.7,2.1
			c13.1,13.6,21.6,29.7,24.5,48.4c0.9,6-3.3,8.4-8.4,4.9C702.2,860.8,691.2,847,690.6,827z"/>
		<path class="st41" d="M691.1,887.3c-3.7-2.5-7.5-4.8-10.9-7.5c-3.6-2.8-6-6.6-6.2-11.4c-0.4-6.9,2.9-10.2,10.4-10.4
			c8.8,5.3,15.7,12.3,20.5,21.4c0.9,1.7,1.9,3.5,2.3,5.3c1.1,4.5-1.3,7.2-6,6.2C697.7,890.2,694.4,888.5,691.1,887.3z"/>
		<path class="st43" d="M746,731.2c0,3.9,0.1,7.8-0.1,11.7c0,1.3-0.6,2.8-2.3,3c-1.3,0.1-1.9-1-2.4-2c-5.2-9-8.6-18.7-11.5-28.6
			c-4.7-16-9.4-32-13.7-48c-2.8-10.4-5.6-20.9-5-31.9c0.1-1.1,0-2.2,0.1-3.3c0.2-3.1,0.9-6.5,3.8-7.9c3.2-1.5,5.7,1.3,7.9,3.3
			c6,5.4,9.3,12.7,11.4,20.1c3.5,12.5,6,25.3,7.1,38.3c1,11,3.2,21.9,4.5,32.9c0.5,4.1,0.1,8.3,0.1,12.5
			C745.9,731.2,746,731.2,746,731.2z"/>
	</g>
</g>
</svg>
